<svg xmlns="http://www.w3.org/2000/svg" viewBox="0 0 312.26 310.99"><defs><style>.cls-1{isolation:isolate;}.cls-2{fill:#8fc23a;}.cls-3{fill:#80b035;}.cls-4{fill:#537323;}.cls-5{fill:#fff8d2;}.cls-6{fill:#a1e7f4;}.cls-7{fill:#fff;}.cls-8{fill:#f0f0ed;}.cls-9{fill:#e65f5b;}.cls-10{fill:#fff2f4;}.cls-11{fill:#e69b4c;}.cls-12{fill:#e6aa6c;}.cls-13{fill:#5c2d29;}.cls-14{fill:#ede0de;}.cls-15,.cls-16{fill:#361a17;}.cls-16{opacity:0.1;}.cls-17{fill:#48631e;}.cls-18{fill:#344716;}.cls-19{fill:#fefeff;}.cls-20{fill:#e8595f;}.cls-21{fill:#fffefa;}.cls-22{fill:#392a2d;}.cls-23{fill:#fae7d6;}.cls-24{fill:#b97457;}.cls-25{fill:#fcf0e5;}.cls-26{fill:#ecd5bd;}.cls-27{fill:#14192c;}.cls-28{fill:#96a6c7;}.cls-29{fill:#edeeef;}.cls-30{fill:#fefaf7;}.cls-31{fill:#e4dace;}.cls-32{fill:#3d3834;}.cls-33{fill:#554e46;}.cls-34{fill:#040701;}.cls-35{fill:#e8e8e8;}.cls-36{fill:#070c02;}.cls-37{fill:#c7b6ac;}.cls-38,.cls-41{fill:#e2d9d4;}.cls-39,.cls-47{fill:#2f2627;}.cls-40{fill:#d6cdca;}.cls-41,.cls-47{opacity:0.55;}.cls-41,.cls-47,.cls-49{mix-blend-mode:multiply;}.cls-42{fill:#080d0f;}.cls-43{fill:#1a0a14;}.cls-44{fill:#674043;}.cls-45{fill:#111b1d;}.cls-46{fill:#ebebeb;}.cls-48,.cls-49{fill:#ca6b3e;}.cls-49{opacity:0.45;}.cls-50{fill:#402436;}.cls-51{fill:#614a59;}.cls-52{fill:#814218;}.cls-53{fill:#0b0e19;}.cls-54{fill:#fbfbfb;}.cls-55{fill:none;stroke:#361a17;stroke-linecap:round;stroke-linejoin:round;}.cls-56{fill:#a64044;}.cls-57{fill:#313e5e;}.cls-58{fill:#252644;}.cls-59{fill:#eaa969;}</style></defs><title>homebg</title><g class="cls-1"><g id="Layer_1" data-name="Layer 1"><polygon class="cls-2" points="115.26 110.55 115.98 245.44 114.56 244.93 106.9 242.15 103.37 240.86 92.12 236.78 88.64 235.51 43.64 219.16 40.63 218.07 38.23 217.2 37.52 82.31 100.11 105.05 103.3 106.21 115.26 110.55"/><polygon class="cls-3" points="192.68 79.13 193.4 214.03 184.28 217.73 181.1 219.01 152.39 230.67 148.73 232.15 131.91 238.98 128.71 240.28 118.01 244.61 115.98 245.44 115.26 110.55 128.45 105.19 131.54 103.94 159.48 92.61 162.91 91.22 171.42 87.76 174.78 86.39 185.51 82.04 188.86 80.68 192.68 79.13"/><polygon class="cls-2" points="270.41 107.38 271.13 242.27 237.08 229.9 233.88 228.73 203.98 217.87 200.56 216.63 193.4 214.03 192.68 79.13 203.72 83.14 206.9 84.3 270.41 107.38"/><path class="cls-4" d="M175,93.4c-.48,10.16-1.75,20.3-5,30.14-6.11,18.51-19.25,32.45-34.29,36.38-6.67,1.74-13.37,1.58-20,.61-5.14-.74-10.25-2-15.29-3.18-9.3-2.24-18.91-4.55-28.31-3.68-11.93,1.09-24.09,7.61-33.39,17.9-.19.2-.36.4-.54.61l0-4.85c9.6-9.77,21.75-16,33.7-17.05,9.92-.9,19.8,1.47,29.35,3.76,4.92,1.19,9.74,2.35,14.49,3.08,6.51,1,12.89,1.18,19.27-.49,16.69-4.35,27.44-20.49,31.94-34.15a106.36,106.36,0,0,0,4.73-27.72Z" transform="translate(-0.19 -7)"/><path class="cls-4" d="M270.85,160.93l0,3.74c-11.17-3.93-24.06-3.23-34.2,3.05-4.82,3-9.17,7.1-13.38,11.07-6,5.66-12.18,11.51-20,14.46a34.18,34.18,0,0,1-9.84,2.1c-9.66.7-19.52-2.22-29.12-5-2.44-.73-5-1.47-7.41-2.14-5-1.35-10.34-2.42-15.24-1a21.31,21.31,0,0,0-9.37,6c-13.54,14-11,38.08-.22,52.86l-3.2,1.3c-11.15-16-13.44-41.55,1.1-56.54a24.5,24.5,0,0,1,10.86-6.88c5.66-1.6,11.49-.45,17,1,2.47.67,5,1.42,7.49,2.15,9.36,2.77,19,5.61,28.14,4.92a30.8,30.8,0,0,0,8.77-1.89c7.19-2.71,12.87-8.07,18.88-13.76,4.33-4.09,8.81-8.32,13.93-11.48C245.81,158.13,259.11,157.12,270.85,160.93Z" transform="translate(-0.19 -7)"/><path class="cls-3" d="M270.64,122.63l0,4.62C262,135.4,250,141.73,238.09,142a30.45,30.45,0,0,1-14.31-3.1c-10.09-5-17.42-16.09-19.62-29.66a71.32,71.32,0,0,1-.26-19.07l3.18,1.16a66.59,66.59,0,0,0,.33,17.32c2,12.48,8.69,22.65,17.84,27.19,14.64,7.28,32.68-.71,44.07-11.86Z" transform="translate(-0.19 -7)"/><path class="cls-5" d="M107.09,249.15l-3.53-1.29c-4.09-23.36-9.74-51-11.92-56.45C86.38,178.18,78.33,172.87,69,176.46c-12.37,4.78-22.82,16.59-30.67,29l0-6.09c7.83-11.38,17.8-21.57,29.58-26.11C79,169,88.74,175.13,94.69,190.08,97.12,196.2,103,225.47,107.09,249.15Z" transform="translate(-0.19 -7)"/><path class="cls-3" d="M92.3,243.77l-3.47-1.26c-2.89-24.2-7.64-52-18.93-51.77-8.47.17-18.73,17.42-26.08,35.42l-3-1.09c7.56-18.63,18.57-37.51,29.06-37.73C84.17,187.05,89.2,217.07,92.3,243.77Z" transform="translate(-0.19 -7)"/><path class="cls-3" d="M103.49,113.21a45.32,45.32,0,0,1-6,7.58,53.22,53.22,0,0,1-27,14.3,120.63,120.63,0,0,1-16.11,2c-4.22.32-8.58.66-12.8,1.36-1.14.19-2.32.42-3.56.7l0-3.46c1.06-.23,2.11-.42,3.1-.59,4.36-.72,8.79-1.06,13.08-1.39a120,120,0,0,0,15.68-1.89,50.07,50.07,0,0,0,25.36-13.4,41.08,41.08,0,0,0,5.13-6.33Z" transform="translate(-0.19 -7)"/><path class="cls-3" d="M270.94,177.75l0,3.66-.69-.29c-6.73-2.77-16.48-1.46-20.5,5.48a30.49,30.49,0,0,0-2.19,5.46c-1,3-2,6-4.23,8.46-3.32,3.55-8.53,4.9-15.95,4.11l-2.16-.25c-4.23-.5-8.61-1-12.35.56-6,2.54-8.8,9.91-8.93,16.09a27.3,27.3,0,0,0,.21,3.84l-3.42-1.24a25.51,25.51,0,0,1-.07-2.63c.15-7.29,3.6-16.05,11-19.19,4.52-1.92,9.33-1.36,14-.81.72.09,1.43.18,2.13.25,6.32.67,10.64-.34,13.21-3.07,1.73-1.86,2.57-4.44,3.47-7.16A31.79,31.79,0,0,1,247,184.9C251.8,176.49,262.82,174.68,270.94,177.75Z" transform="translate(-0.19 -7)"/><path class="cls-3" d="M271.12,212.87l0,3.92a29.72,29.72,0,0,0-8-3.52c-7-1.81-14.16,0-18.32,4.54a24.88,24.88,0,0,0-3.86,6.14,37.84,37.84,0,0,0-3.66,13l-3.2-1.17A42.06,42.06,0,0,1,238,222.5a28.28,28.28,0,0,1,4.42-7c5-5.48,13.46-7.64,21.57-5.52A30.33,30.33,0,0,1,271.12,212.87Z" transform="translate(-0.19 -7)"/><path class="cls-5" d="M163.09,98.22a175.26,175.26,0,0,1-2.69,18.91c-1.05,5.35-3.18,12.75-9.32,15.2a10.32,10.32,0,0,1-3.69.73,13,13,0,0,1-7.33-2.21,22.62,22.62,0,0,1-7.06-8.16,50.62,50.62,0,0,1-4.36-10.5l3.09-1.25a47.39,47.39,0,0,0,4.12,10,19.56,19.56,0,0,0,6,7,9,9,0,0,0,8.08,1.19c4.61-1.85,6.34-8.12,7.24-12.68,1.11-5.58,1.94-11.22,2.49-16.88Z" transform="translate(-0.19 -7)"/><path class="cls-6" d="M270.73,138.81l0,3.4c-6.74.82-13.34,2.91-19.29,4.94l-3.26,1.13c-8.72,3-17.73,6.16-27.08,6.63l-1.28,0c-11.22.23-21-3.9-26.66-11.22-.25-.31-.48-.63-.7-.95-4.8-6.9-5.77-15.67-6.31-23.36A284.88,284.88,0,0,1,185.69,89l3.36-1.36a281.69,281.69,0,0,0,.4,31.44c.41,5.92,1.09,12.51,3.69,18.1a22.39,22.39,0,0,0,2,3.56c5.07,7.28,14.73,11.31,25.84,10.74,8.89-.44,17.68-3.5,26.17-6.45l3.28-1.13C256.69,141.8,263.6,139.62,270.73,138.81Z" transform="translate(-0.19 -7)"/><path class="cls-6" d="M270.79,150.14l0,3.38A94.24,94.24,0,0,0,250,155.6c-13.29,2.57-23.49,8.28-33.35,13.8-7.59,4.24-15,8.4-23.32,10.64-11.45,3.08-24.6,2.52-42.26-6.43-10.6-5.38-25.23-6.27-35.36,1.15a25,25,0,0,0-4.2,3.86c-4.91,5.7-6.4,20.43-3.79,37.5a140.27,140.27,0,0,0,8.37,30.54c.66,1.66,1.35,3.3,2.07,5l-2,.83-1.42-.51c-14-32.53-14.27-65.52-5.62-75.54a27.91,27.91,0,0,1,6.61-5.64c11-6.83,26-5.72,36.88-.19,17.19,8.73,29.67,9.18,40.74,6,7.56-2.18,14.48-6.05,21.8-10.15,10.09-5.65,20.52-11.5,34.32-14.16A97.62,97.62,0,0,1,270.79,150.14Z" transform="translate(-0.19 -7)"/><path class="cls-5" d="M184.46,224.73,181.28,226c-2.9-4.19-6-8.27-9.17-12.19-4.36-5.32-11.05-12.31-18.78-11.43-6,.69-11.34,6.66-12.09,13.58-.67,6.3,2,13.13,7.26,18.29a31.22,31.22,0,0,0,4.08,3.41l-3.66,1.48c-1-.78-1.87-1.58-2.72-2.42-5.94-5.87-9-13.76-8.23-21.08.9-8.47,7.5-15.76,15-16.62,9.33-1.05,16.79,6.68,21.62,12.59C178.07,215.83,181.36,220.21,184.46,224.73Z" transform="translate(-0.19 -7)"/><polygon class="cls-7" points="37.52 82.31 37.6 97.22 115.34 125.47 115.26 110.55 37.52 82.31"/><polygon class="cls-7" points="38.16 202.29 38.24 217.2 115.98 245.45 115.9 230.53 38.16 202.29"/><polygon class="cls-7" points="52.04 87.58 37.52 82.31 38.24 217.2 52.75 222.48 52.04 87.58"/><polygon class="cls-8" points="115.26 110.55 115.34 125.47 192.76 94.05 192.68 79.13 115.26 110.55"/><polygon class="cls-8" points="115.9 230.53 115.98 245.45 193.4 214.03 193.32 199.11 115.9 230.53"/><polygon class="cls-7" points="192.68 79.13 192.76 94.05 270.5 122.29 270.42 107.38 192.68 79.13"/><polygon class="cls-7" points="193.32 199.11 193.4 214.03 271.13 242.28 271.06 227.36 193.32 199.11"/><polygon class="cls-7" points="270.42 107.38 255.9 102.1 256.62 237 271.13 242.28 270.42 107.38"/><path class="cls-9" d="M256.3,299.71l15-95.88S259.59,193.34,257.79,168l-12.33-27.55s8.5-4.64,15.47,5.54a132.17,132.17,0,0,1,9.93,16.53l-.11-31L291,146l21.43,49.32L298,303.47Z" transform="translate(-0.19 -7)"/><polygon class="cls-10" points="270.56 124.49 290.45 138.77 312.26 188.35 297.81 296.47 290.38 296.86 309.25 188.86 287.13 139.23 270.57 127.09 270.56 124.49"/><polygon class="cls-11" points="306.49 282.28 307.9 261.37 257.19 254.13 255.9 277.97 306.49 282.28"/><polygon class="cls-10" points="307.9 261.37 303.92 260.76 302.3 282.28 306.49 282.28 307.9 261.37"/><polygon class="cls-12" points="308.64 310.99 311.57 277.7 253.22 266.29 249.8 310.99 308.64 310.99"/><polygon class="cls-10" points="311.57 277.7 308.64 310.99 304.39 310.99 306.69 276.75 311.57 277.7"/><path class="cls-9" d="M62.37,300.24l-24-94.74s14.43-12,14.72-37.4l10.64-27.63S54.93,135.82,48.6,146A161.23,161.23,0,0,0,38.12,166.1l-.19-34.6L19,145.82.19,195.56,21,304Z" transform="translate(-0.19 -7)"/><polygon class="cls-10" points="37.74 124.5 18.78 138.82 0 188.56 20.85 297.02 28.28 297.41 3.03 189.07 22.12 139.28 37.76 128.65 37.74 124.5"/><polygon class="cls-11" points="11.35 282.78 8.69 261.81 57.45 256.05 61.05 277.23 11.35 282.78"/><polygon class="cls-10" points="8.69 261.81 12.63 261.2 15.53 282.78 11.35 282.78 8.69 261.81"/><polygon class="cls-12" points="10.78 310.99 6.01 278.19 63.5 266.73 69.49 310.99 10.78 310.99"/><polygon class="cls-10" points="6.01 278.19 10.78 310.99 14.76 310.99 10.82 277.23 6.01 278.19"/><polygon class="cls-13" points="49.95 234.84 15.89 232.99 13.69 249.44 52.84 251.2 49.95 234.84"/><ellipse class="cls-14" cx="14.59" cy="249.44" rx="12.97" ry="14.3" transform="translate(-109.97 25.73) rotate(-26.5)"/><ellipse class="cls-15" cx="14.59" cy="249.44" rx="9.78" ry="10.78" transform="translate(-109.96 25.72) rotate(-26.5)"/><ellipse class="cls-16" cx="185.6" cy="152.39" rx="12.15" ry="3.21"/><polygon class="cls-17" points="232.23 188.03 224.34 188.03 228.28 179.38 232.23 170.73 236.17 179.38 240.11 188.03 232.23 188.03"/><polygon class="cls-18" points="235.63 119.6 227.74 119.6 231.69 110.95 235.63 102.3 239.57 110.95 243.51 119.6 235.63 119.6"/><polygon class="cls-17" points="128.45 130.94 120.56 130.94 124.51 122.29 128.45 113.65 132.39 122.29 136.34 130.94 128.45 130.94"/><polygon class="cls-17" points="66.38 194.28 58.49 194.28 62.43 185.63 66.38 176.98 70.32 185.63 74.26 194.28 66.38 194.28"/><polygon class="cls-18" points="88.27 156.61 80.39 156.61 84.33 147.96 88.27 139.31 92.22 147.96 96.16 156.61 88.27 156.61"/><path class="cls-19" d="M184.06,15.11a3.28,3.28,0,0,1,1.34.28,6.18,6.18,0,0,1-.2-1.56c0-3.77,3.36-6.83,7.51-6.83s7.51,3.06,7.51,6.83c0,.12,0,.23,0,.34a4.11,4.11,0,0,1,2.08-.55,3.71,3.71,0,0,1,3.87,3.52,3.71,3.71,0,0,1-3.87,3.53H184.06A2.93,2.93,0,0,1,181,17.89,2.92,2.92,0,0,1,184.06,15.11Z" transform="translate(-0.19 -7)"/><path class="cls-19" d="M63.38,36.29a6,6,0,0,1,2.4.51,11.31,11.31,0,0,1-.36-2.8c0-6.78,6-12.27,13.48-12.27S92.37,27.22,92.37,34c0,.2,0,.41,0,.61a7.41,7.41,0,0,1,3.74-1c3.84,0,7,2.83,7,6.33s-3.11,6.33-7,6.33H63.38a5.25,5.25,0,0,1-5.48-5A5.25,5.25,0,0,1,63.38,36.29Z" transform="translate(-0.19 -7)"/><path class="cls-19" d="M240.89,62.07a4.86,4.86,0,0,0-2,.42,9.4,9.4,0,0,0,.3-2.32c0-5.61-5-10.16-11.16-10.16s-11.15,4.55-11.15,10.16c0,.17,0,.34,0,.5a6.18,6.18,0,0,0-3.1-.82,5.26,5.26,0,1,0,0,10.48h27.09a4.15,4.15,0,1,0,0-8.26Z" transform="translate(-0.19 -7)"/><ellipse class="cls-16" cx="76.43" cy="135.44" rx="9.22" ry="2.97"/><ellipse class="cls-16" cx="93.72" cy="204.69" rx="15.65" ry="4.13"/><path class="cls-20" d="M199.83,123.92c.26,4.78-5.52,14.86-9.44,21.11a4.75,4.75,0,0,1-7.58.34c-4.57-5.88-11.39-15.4-11.65-20.18-.39-7.2,5.72-13.33,13.64-13.68S199.44,116.71,199.83,123.92Z" transform="translate(-0.19 -7)"/><ellipse class="cls-13" cx="185.31" cy="117.56" rx="9.61" ry="8.75"/><ellipse class="cls-21" cx="185.31" cy="117.56" rx="7.63" ry="6.95"/><path class="cls-22" d="M190.7,120.76a2.44,2.44,0,0,1-.76,3.11c-1.05.89-3.28-2.48-4-2.61a26.12,26.12,0,0,0,2.89-2.75" transform="translate(-0.19 -7)"/><path class="cls-23" d="M188.8,119.51c.32-.3,1,.51,1.47.94s.23.91-.59,1.28-2.55-1-3.14-1.08a20.81,20.81,0,0,0,2.26-1.14" transform="translate(-0.19 -7)"/><path class="cls-24" d="M188.9,120.54a5.34,5.34,0,0,1-.54.8,8.45,8.45,0,0,1-1.21,1,8.58,8.58,0,0,0,1.73,1.52,4.17,4.17,0,0,0,.45-2.9c-.05-.15-.18-.86-.43-.45" transform="translate(-0.19 -7)"/><path class="cls-22" d="M179.52,120.76a2.44,2.44,0,0,0,.76,3.11c1.05.89,3.27-2.48,4-2.61a26.12,26.12,0,0,1-2.89-2.75" transform="translate(-0.19 -7)"/><path class="cls-23" d="M181.49,119.58c-.34-.6-1.09,1-1.53,1.81a2,2,0,0,0,.61,2.51c.85.72,2.64-2,3.25-2.1a21.12,21.12,0,0,1-2.33-2.22" transform="translate(-0.19 -7)"/><path class="cls-24" d="M181.32,120.54a4.16,4.16,0,0,0,.54.8,7.48,7.48,0,0,0,1.21,1,9.15,9.15,0,0,1-1.73,1.52,4.17,4.17,0,0,1-.45-2.9c.05-.15.18-.86.43-.45" transform="translate(-0.19 -7)"/><path class="cls-22" d="M180.08,127.47c1.75-.63,3-1.3,5.08-1a14.7,14.7,0,0,1,4.56,1.57,3.28,3.28,0,0,0,1-1.78c-.05-1.27-2.36-5.9-5.63-5.44a2.44,2.44,0,0,0-2,.31c-.72.66-3.75,3.48-3.38,5.3A4.16,4.16,0,0,0,180.08,127.47Z" transform="translate(-0.19 -7)"/><path class="cls-25" d="M186.48,130c.94-.51,2.47-.85,3.29-2.45a2.06,2.06,0,0,1-.41-.76c-.2-.78-.23-1.79-.61-2s-1.89-2.05-2-2.12a.68.68,0,0,0-.82.1,1,1,0,0,1-.88.39c-.29-.06-.31,0-.88-.49s-2.12,1.17-2.79,1.83c-.5.49-.05,1.29-.8,2.09a1.64,1.64,0,0,0-.49.83c.6,1.32,1.85,1.56,2.89,2.42" transform="translate(-0.19 -7)"/><path class="cls-22" d="M184.91,124.38c0-.42-.08-1.1,0-1.45-.11-.18-.19-.11-.41-.29l-.1,0a3.57,3.57,0,0,1,.29,1.1c0,1.61.15,1.5.21,1.44S184.9,124.53,184.91,124.38Z" transform="translate(-0.19 -7)"/><path class="cls-22" d="M186.08,122.64c-.22.18-.31.11-.42.29.06.35,0,1,0,1.45,0,.15-.08.62,0,.75s.21.17.21-1.44a3.32,3.32,0,0,1,.3-1.1A.31.31,0,0,0,186.08,122.64Z" transform="translate(-0.19 -7)"/><path class="cls-26" d="M186.77,130c1-.51,2.57-.85,3.42-2.45a3.73,3.73,0,0,1-.29-.44,4.82,4.82,0,0,1-1,.34c-1.09.25-1.52.45-2,1.37a1.49,1.49,0,0,1-1,.91,2.23,2.23,0,0,1-2.56-.93c-.46-1-.5-1.45-1.72-1.93a7,7,0,0,1-.95-.46,1.19,1.19,0,0,1-.15.18,1.59,1.59,0,0,0-.52.83c.63,1.32,1.93,1.56,3,2.42" transform="translate(-0.19 -7)"/><path class="cls-27" d="M186.17,125.28s.06-1.08.68-1.11.92.34,1.26.27c0,0-.05.08-.06.09a1.29,1.29,0,0,1-.19.21,1,1,0,0,1-.82.35C186.4,125,186.3,125.32,186.17,125.28Z" transform="translate(-0.19 -7)"/><path class="cls-28" d="M187.47,124.55a.44.44,0,0,1-.4.48.46.46,0,0,1-.52-.37.43.43,0,0,1,.4-.47A.45.45,0,0,1,187.47,124.55Z" transform="translate(-0.19 -7)"/><path class="cls-27" d="M187.23,124.58a.2.2,0,0,1-.19.23.23.23,0,0,1-.25-.18.21.21,0,0,1,.19-.23A.22.22,0,0,1,187.23,124.58Z" transform="translate(-0.19 -7)"/><path class="cls-29" d="M187.31,124.35a.14.14,0,0,1-.13.15.14.14,0,0,1-.16-.11.13.13,0,0,1,.12-.15A.15.15,0,0,1,187.31,124.35Z" transform="translate(-0.19 -7)"/><path class="cls-27" d="M184.34,125.3s0-1.09-.66-1.12-.93.32-1.27.24c0,0,.05.08.06.09a2,2,0,0,0,.19.22,1,1,0,0,0,.81.36C184.11,125,184.21,125.33,184.34,125.3Z" transform="translate(-0.19 -7)"/><path class="cls-28" d="M184,124.68a.46.46,0,0,1-.53.36.43.43,0,0,1-.39-.48.46.46,0,0,1,.53-.36A.43.43,0,0,1,184,124.68Z" transform="translate(-0.19 -7)"/><path class="cls-27" d="M183.81,124.65a.23.23,0,0,1-.26.17.21.21,0,0,1-.19-.23.24.24,0,0,1,.26-.18A.23.23,0,0,1,183.81,124.65Z" transform="translate(-0.19 -7)"/><path class="cls-29" d="M183.94,124.44a.14.14,0,0,1-.16.12.13.13,0,0,1-.12-.15.14.14,0,0,1,.16-.12A.14.14,0,0,1,183.94,124.44Z" transform="translate(-0.19 -7)"/><path class="cls-30" d="M185.79,125.35a.78.78,0,0,0-.93,0c-.61.47-1.61,1.31-1.69,1.85-.13.77.3,1.71,2.05,1.13,0,0,1.67.65,2.11-.47C187.7,126.93,186.62,126,185.79,125.35Z" transform="translate(-0.19 -7)"/><path class="cls-27" d="M185.19,128.23h0c-.17.08-1.31.64-1.78-.38a.88.88,0,0,0,1,.84c.63,0,.79-.08.84-.19,0,.11.21.21.83.19a.89.89,0,0,0,1-.84C186.5,128.87,185.37,128.31,185.19,128.23Z" transform="translate(-0.19 -7)"/><path class="cls-27" d="M185.12,128.33s-1.14-.44-1-1.08,1-.56,1.14-.55,1.17.14,1,.69A1.49,1.49,0,0,1,185.12,128.33Z" transform="translate(-0.19 -7)"/><path class="cls-20" d="M88.56,117.25c.21,4-4.6,12.38-7.86,17.59a4,4,0,0,1-6.32.28c-3.8-4.89-9.49-12.82-9.7-16.81-.32-6,4.76-11.1,11.36-11.4S88.24,111.25,88.56,117.25Z" transform="translate(-0.19 -7)"/><ellipse class="cls-13" cx="76.43" cy="110.78" rx="8" ry="7.29"/><ellipse class="cls-21" cx="76.43" cy="110.78" rx="6.36" ry="5.79"/><path class="cls-20" d="M254.58,158.25c.39,7.38-8.53,23-14.6,32.63a7.33,7.33,0,0,1-11.71.52c-7.06-9.08-17.61-23.8-18-31.19-.6-11.14,8.84-20.61,21.08-21.15S254,147.11,254.58,158.25Z" transform="translate(-0.19 -7)"/><ellipse class="cls-13" cx="231.83" cy="151.37" rx="16.6" ry="15.11"/><ellipse class="cls-21" cx="231.81" cy="151.42" rx="14.19" ry="12.92"/><path class="cls-20" d="M111.43,172.21c.33,6.21-7.17,19.31-12.27,27.43a6.16,6.16,0,0,1-9.84.44c-5.94-7.64-14.81-20-15.15-26.22-.5-9.37,7.44-17.33,17.72-17.79S110.93,162.84,111.43,172.21Z" transform="translate(-0.19 -7)"/><ellipse class="cls-13" cx="92.39" cy="164.23" rx="14.81" ry="13.49"/><ellipse class="cls-21" cx="92.39" cy="163.88" rx="11.76" ry="10.71"/><path class="cls-31" d="M79.51,120.8l-.16.1Z" transform="translate(-0.19 -7)"/><path class="cls-31" d="M79.33,120.91l-.14.09Z" transform="translate(-0.19 -7)"/><path class="cls-31" d="M79.81,120.6l-.1.07Z" transform="translate(-0.19 -7)"/><path class="cls-31" d="M79.14,121l-.12.06Z" transform="translate(-0.19 -7)"/><path class="cls-31" d="M79.66,120.7l-.11.07Z" transform="translate(-0.19 -7)"/><path class="cls-31" d="M78,121.53l-.14,0Z" transform="translate(-0.19 -7)"/><path class="cls-31" d="M81.69,117.41a6.18,6.18,0,0,1-1.88-1.71c-.35-.67-.82-1.49-.55-1.35h.14c-1.07-.56-1.35,0-2.24-.34a8.06,8.06,0,0,0-1.71.13h0c.2.21-1.19.78-2,1.59S73,118,72.44,118a2.44,2.44,0,0,0,.16.66,5.4,5.4,0,0,0,3.56,2.94,6.05,6.05,0,0,1-1.91-.92,1.78,1.78,0,0,1-.25-2.18l.07-.08c-.42-.25-.76-1.1-.27-1.41a13.79,13.79,0,0,0,1.46-1.19.33.33,0,0,1,.42,0,1,1,0,0,1,.1,1.32,3.44,3.44,0,0,1,.83-.32,3.25,3.25,0,0,1,1.73.31,1,1,0,0,1,0-1.35.32.32,0,0,1,.42,0,13.3,13.3,0,0,0,1.5,1.14c.52.31.17,1.22-.26,1.44a2.51,2.51,0,0,1,.35.63,1.4,1.4,0,0,1-.55,1.62,8.86,8.86,0,0,0,1-.89,3.43,3.43,0,0,0,.92-2.16A1.31,1.31,0,0,0,81.69,117.41Z" transform="translate(-0.19 -7)"/><path class="cls-31" d="M77.12,121.67h0Z" transform="translate(-0.19 -7)"/><path class="cls-31" d="M79,121.12l-.11.06Z" transform="translate(-0.19 -7)"/><path class="cls-31" d="M77.55,121.62l-.16,0Z" transform="translate(-0.19 -7)"/><path class="cls-31" d="M76.91,121.68h0Z" transform="translate(-0.19 -7)"/><path class="cls-31" d="M76.44,121.63l-.27-.06Z" transform="translate(-0.19 -7)"/><path class="cls-31" d="M77.79,121.58l-.2,0Z" transform="translate(-0.19 -7)"/><path class="cls-31" d="M76.71,121.67l-.26,0Z" transform="translate(-0.19 -7)"/><path class="cls-31" d="M77.32,121.66h0Z" transform="translate(-0.19 -7)"/><path class="cls-31" d="M78.61,121.3l-.18.07Z" transform="translate(-0.19 -7)"/><path class="cls-31" d="M78.17,121.46l-.12,0Z" transform="translate(-0.19 -7)"/><path class="cls-31" d="M78.37,121.39l-.13,0Z" transform="translate(-0.19 -7)"/><path class="cls-31" d="M78.79,121.21l-.15.07Z" transform="translate(-0.19 -7)"/><path class="cls-32" d="M73.4,115.73c.86-.81,2.25-1.38,2-1.59h0a2.91,2.91,0,0,0-1.42-.09,11.45,11.45,0,0,1-2.26.07c-.32,0-1,.43-1.12,1.39a2.7,2.7,0,0,0,1.59,2.4.63.63,0,0,0,.2.06C73,118,72.62,116.47,73.4,115.73Z" transform="translate(-0.19 -7)"/><path class="cls-32" d="M82.29,114.37c-.28-.16-.6,0-1.32,0l-1.57,0h-.14c-.27-.14.2.68.55,1.35a6.18,6.18,0,0,0,1.88,1.71,1.31,1.31,0,0,1,.12.11c.37.39.37,1,1.17-.66A1.68,1.68,0,0,0,82.29,114.37Z" transform="translate(-0.19 -7)"/><path class="cls-32" d="M78.68,117.25a.54.54,0,0,1-.1-.3.65.65,0,0,1,1.29,0,.61.61,0,0,1-.63.6h-.07a3.24,3.24,0,0,1,.87.79c.43-.22.78-1.13.26-1.44a13.3,13.3,0,0,1-1.5-1.14.32.32,0,0,0-.42,0,1,1,0,0,0,0,1.35l.32.14Z" transform="translate(-0.19 -7)"/><path class="cls-33" d="M79.87,116.93a.65.65,0,0,0-1.29,0,.54.54,0,0,0,.1.3,4.51,4.51,0,0,1,.49.28h.07A.61.61,0,0,0,79.87,116.93Zm-1,0a.32.32,0,0,1,.33-.32h0a.21.21,0,0,1,.22-.2.23.23,0,0,1,.23.2.21.21,0,0,1-.14.19,1,1,0,0,1,0,.12.33.33,0,0,1-.34.31A.32.32,0,0,1,78.89,117Z" transform="translate(-0.19 -7)"/><path class="cls-34" d="M79.57,116.94a1,1,0,0,0,0-.12h-.08a.21.21,0,0,1-.23-.2h0a.32.32,0,0,0-.33.32.32.32,0,0,0,.34.3A.33.33,0,0,0,79.57,116.94Z" transform="translate(-0.19 -7)"/><path class="cls-35" d="M79.46,116.83h.08a.21.21,0,0,0,.14-.19.23.23,0,0,0-.23-.2.21.21,0,0,0-.22.2h0A.21.21,0,0,0,79.46,116.83Z" transform="translate(-0.19 -7)"/><path class="cls-32" d="M75,117.58H74.9a.62.62,0,0,1-.66-.58.65.65,0,0,1,1.29,0,.46.46,0,0,1-.09.3l.34-.19a1,1,0,0,0-.1-1.32.33.33,0,0,0-.42,0A13.79,13.79,0,0,1,73.8,117c-.49.31-.15,1.16.27,1.41A6.46,6.46,0,0,1,75,117.58Z" transform="translate(-0.19 -7)"/><path class="cls-33" d="M74.88,116.42a.61.61,0,0,0-.64.59.62.62,0,0,0,.66.58H75c.13-.1.28-.19.42-.28a.46.46,0,0,0,.09-.3A.61.61,0,0,0,74.88,116.42Zm.35.58a.33.33,0,0,1-.34.31.31.31,0,1,1,0-.61h0a.21.21,0,0,1,.22-.21.23.23,0,0,1,.23.2.2.2,0,0,1-.14.19Z" transform="translate(-0.19 -7)"/><path class="cls-34" d="M74.89,116.7h0a.31.31,0,1,0,0,.61.33.33,0,0,0,.34-.31l0-.12h-.08A.21.21,0,0,1,74.89,116.7Z" transform="translate(-0.19 -7)"/><path class="cls-35" d="M75.34,116.69a.23.23,0,0,0-.23-.2.21.21,0,0,0-.22.21h0a.21.21,0,0,0,.23.19h.08A.2.2,0,0,0,75.34,116.69Z" transform="translate(-0.19 -7)"/><path class="cls-32" d="M80.39,119a2.51,2.51,0,0,0-.35-.63,3.24,3.24,0,0,0-.87-.79,4.51,4.51,0,0,0-.49-.28h0l-.32-.14a3.25,3.25,0,0,0-1.73-.31,3.44,3.44,0,0,0-.83.32l-.34.19c-.14.09-.29.18-.42.28a6.46,6.46,0,0,0-1,.81l-.07.08a1.78,1.78,0,0,0,.25,2.18,6.05,6.05,0,0,0,1.91.92h0l.27.06h0l.26,0h.68l.16,0h0l.2,0,0,0,.14,0,.07,0,.12,0,.07,0,.13,0,.06,0,.18-.07,0,0,.15-.07.06,0,.11-.06.06,0,.12-.06,0,0,.14-.09h0l.16-.1,0,0,.11-.07,0,0,.1-.07,0,0h0A1.4,1.4,0,0,0,80.39,119Zm-2.85-1.48c.15,0,.28.17.28.37s-.12.38-.27.38a.33.33,0,0,1-.28-.37A.33.33,0,0,1,77.54,117.47Zm-1.09,0c.16,0,.28.16.29.37a.35.35,0,0,1-.27.38c-.16,0-.28-.17-.29-.37S76.3,117.49,76.45,117.49ZM76.34,120a4.93,4.93,0,0,1-2.06.07,3.5,3.5,0,0,0,1.62-.36A2.23,2.23,0,0,0,77,117.32s0-.18.15,0c0,0-.15,1.88.82,2.37a3.3,3.3,0,0,0,1.76.37s-.54.4-2,0A2.61,2.61,0,0,0,76.34,120Z" transform="translate(-0.19 -7)"/><path class="cls-36" d="M76.47,118.24a.35.35,0,0,0,.27-.38c0-.21-.13-.37-.29-.37s-.27.17-.27.38S76.31,118.24,76.47,118.24Z" transform="translate(-0.19 -7)"/><path class="cls-36" d="M77.55,118.22c.15,0,.27-.17.27-.38s-.13-.37-.28-.37a.33.33,0,0,0-.27.38A.33.33,0,0,0,77.55,118.22Z" transform="translate(-0.19 -7)"/><path class="cls-36" d="M79.69,120.05a3.3,3.3,0,0,1-1.76-.37c-1-.49-.82-2.37-.82-2.37-.11-.17-.15,0-.15,0a2.23,2.23,0,0,1-1.06,2.39,3.5,3.5,0,0,1-1.62.36,4.93,4.93,0,0,0,2.06-.07,2.61,2.61,0,0,1,1.36,0C79.15,120.45,79.69,120.05,79.69,120.05Z" transform="translate(-0.19 -7)"/><path class="cls-37" d="M88.6,176.51a1.23,1.23,0,0,0,0-.2.37.37,0,0,0,0-.11l0-.21s0-.06,0-.09v0h0a7.06,7.06,0,0,1,.1,1c0-.08,0-.16,0-.24A.28.28,0,0,0,88.6,176.51Z" transform="translate(-0.19 -7)"/><path class="cls-37" d="M92,177.05c-.45.54-2.77,1.39-3.3.26v-.05l0-.08a2,2,0,0,0,2.53,1,3.76,3.76,0,0,1,.93,0,4.4,4.4,0,0,0,1.81.05,2.33,2.33,0,0,0,1.1-.64C94.25,178.19,92.43,177.51,92,177.05Z" transform="translate(-0.19 -7)"/><path class="cls-37" d="M88.66,177.1s0,0,0-.06S88.66,177.08,88.66,177.1Z" transform="translate(-0.19 -7)"/><path class="cls-38" d="M88.26,174.87l0-.06Z" transform="translate(-0.19 -7)"/><path class="cls-38" d="M88.49,175.69s0-.05,0-.08S88.48,175.66,88.49,175.69Z" transform="translate(-0.19 -7)"/><path class="cls-38" d="M88.16,174.61s0-.05,0-.07S88.15,174.59,88.16,174.61Z" transform="translate(-0.19 -7)"/><path class="cls-38" d="M87.94,174.09a.25.25,0,0,0,0-.07A.25.25,0,0,1,87.94,174.09Z" transform="translate(-0.19 -7)"/><path class="cls-38" d="M88.06,174.35l0-.07Z" transform="translate(-0.19 -7)"/><path class="cls-38" d="M88.35,175.13a.14.14,0,0,1,0-.06A.14.14,0,0,0,88.35,175.13Z" transform="translate(-0.19 -7)"/><path class="cls-38" d="M88.42,175.4s0,0,0-.06S88.42,175.38,88.42,175.4Z" transform="translate(-0.19 -7)"/><path class="cls-38" d="M98,171.08a10.68,10.68,0,0,0-1.29-2.26.24.24,0,0,1-.1,0,.5.5,0,0,1-.14-.29l-.25-.35h-.08s0,0,0-.07a8.43,8.43,0,0,1-1.41-3.54,15.14,15.14,0,0,0-1.79-.38,17.38,17.38,0,0,0-4.77.88h0a6,6,0,0,1,.88-.32c-.21,1.56-1.17,3-1.81,4.46a4.29,4.29,0,0,0-.42,3,5.1,5.1,0,0,1-.38-2.88v0a5,5,0,0,0,.42,2.89l0,.09c.7-1.41,2.57-2.33,3-.32a9.5,9.5,0,0,0,.42,1.46,3.52,3.52,0,0,1,3.39.15c.48-1,.66-2.25,2-2.57a1.73,1.73,0,0,1,1.94,1.2,5.51,5.51,0,0,0,.27-.69C98,171.32,98.09,171.28,98,171.08Zm-8.37-6.49c.41-.09.83-.17,1.24-.22a.31.31,0,0,0,0,.08.74.74,0,0,1-1,.64.43.43,0,0,1-.21-.14.48.48,0,0,1-.09-.27S89.65,164.62,89.65,164.59ZM88.4,167.5a.45.45,0,0,1,.53-.26.69.69,0,0,1,.2.13c.23.21.48.49.37.77a.68.68,0,0,1-.24.27,1.06,1.06,0,0,1-.86.28,1.22,1.22,0,0,0,0-.6A1,1,0,0,1,88.4,167.5Zm1.38,3.43c-.93,0-1.64-1.21-1.64-1.21a2.15,2.15,0,0,1,1.45-.94A1.67,1.67,0,0,1,91.21,170,1.91,1.91,0,0,1,89.78,170.93Zm2.5-4.85a.91.91,0,0,1,.33-.15l.52-.14c0,.24.34.33.53.48a.57.57,0,0,1,.16.68.68.68,0,0,1-.66.36.2.2,0,0,1-.11,0,.32.32,0,0,1-.08-.12,1.58,1.58,0,0,0-.75-.78A.23.23,0,0,1,92.28,166.08Zm1.33,6.44a.19.19,0,0,1-.08.07c-.08,0-.16,0-.22-.09l-.47-.42c-.13-.11-.26-.26-.2-.41a.4.4,0,0,1,.35-.18,2.75,2.75,0,0,0,.41,0c.16-.05.35-.18.47-.08a.26.26,0,0,1,.07.21A1.39,1.39,0,0,1,93.61,172.52Zm1.76-1.61a1.89,1.89,0,0,1-1.49-.87,1.62,1.62,0,0,1,1.53-1.28,2.17,2.17,0,0,1,1.51.86S96.3,170.88,95.37,170.91Z" transform="translate(-0.19 -7)"/><path class="cls-38" d="M98.1,171.2c0,.1,0,.2-.08.31C98.05,171.41,98.08,171.3,98.1,171.2Z" transform="translate(-0.19 -7)"/><path class="cls-38" d="M97.67,172.36A11.35,11.35,0,0,1,96,174.49,7.47,7.47,0,0,0,97.67,172.36Z" transform="translate(-0.19 -7)"/><path class="cls-38" d="M87.81,173.83l0-.08Z" transform="translate(-0.19 -7)"/><path class="cls-38" d="M88.57,176.2a.37.37,0,0,1,0,.11A.37.37,0,0,0,88.57,176.2Z" transform="translate(-0.19 -7)"/><path class="cls-38" d="M88.53,175.9s0,.06,0,.09S88.53,175.93,88.53,175.9Z" transform="translate(-0.19 -7)"/><path class="cls-38" d="M88.6,176.51a.28.28,0,0,1,0,.09A.28.28,0,0,0,88.6,176.51Z" transform="translate(-0.19 -7)"/><path class="cls-39" d="M93,167.16a.32.32,0,0,0,.08.12.2.2,0,0,0,.11,0,.68.68,0,0,0,.66-.36.57.57,0,0,0-.16-.68c-.19-.15-.51-.24-.53-.48l-.52.14a.91.91,0,0,0-.33.15.23.23,0,0,0-.06.3A1.58,1.58,0,0,1,93,167.16Z" transform="translate(-0.19 -7)"/><path class="cls-39" d="M96.24,168.13l0,0h0s0,0,0,.07Z" transform="translate(-0.19 -7)"/><path class="cls-39" d="M96.63,168.77a.24.24,0,0,0,.1,0l-.24-.34A.5.5,0,0,0,96.63,168.77Z" transform="translate(-0.19 -7)"/><path class="cls-39" d="M88.4,168.69a1.06,1.06,0,0,0,.86-.28.68.68,0,0,0,.24-.27c.11-.28-.14-.56-.37-.77a.69.69,0,0,0-.2-.13.45.45,0,0,0-.53.26,1,1,0,0,0,0,.59A1.22,1.22,0,0,1,88.4,168.69Z" transform="translate(-0.19 -7)"/><path class="cls-39" d="M89.94,165.09a.74.74,0,0,0,1-.64.31.31,0,0,1,0-.08c-.41,0-.83.13-1.24.22,0,0,0,.06,0,.09a.48.48,0,0,0,.09.27A.43.43,0,0,0,89.94,165.09Z" transform="translate(-0.19 -7)"/><path class="cls-39" d="M93.4,171.47a2.75,2.75,0,0,1-.41,0,.4.4,0,0,0-.35.18c-.06.15.07.3.2.41l.47.42c.06.06.14.12.22.09a.19.19,0,0,0,.08-.07,1.39,1.39,0,0,0,.33-.92.26.26,0,0,0-.07-.21C93.75,171.29,93.56,171.42,93.4,171.47Z" transform="translate(-0.19 -7)"/><path class="cls-40" d="M88.62,176.84v-.14h0c.32,1.26,2.28.73,3.09.19a3.43,3.43,0,0,1-.88-.41c-.58-.43-1.89-2-.73-2.86l.26-.17A9.5,9.5,0,0,1,90,172c-.44-2-2.31-1.09-3,.32h0l.12.21a.83.83,0,0,1,.73-.22.56.56,0,0,1,.35.59,1.73,1.73,0,0,1-.29.67.93.93,0,0,1-.13.15l0,.05,0,.08.09.19a.25.25,0,0,1,0,.07l.09.19,0,.07a1.08,1.08,0,0,0,.08.19s0,.05,0,.07,0,.13.08.2l0,.06c0,.06,0,.13.07.2a.14.14,0,0,0,0,.06l.06.21s0,0,0,.06a1.6,1.6,0,0,1,0,.21s0,0,0,.08l0,.18v0s0,.06,0,.09l0,.21a.37.37,0,0,1,0,.11,1.23,1.23,0,0,1,0,.2.28.28,0,0,1,0,.09c0,.08,0,.16,0,.24l0,.2s0,0,0,.06,0,.06,0,.08l0,.08A1.24,1.24,0,0,1,88.62,176.84Z" transform="translate(-0.19 -7)"/><path class="cls-40" d="M88.72,177.28v0Z" transform="translate(-0.19 -7)"/><path class="cls-40" d="M95.8,171c-1.36.32-1.54,1.54-2,2.57a1,1,0,0,1,.48.89,3.1,3.1,0,0,1-2,2.33c.75.54,2.87,1.14,3.17-.18h0c0,.05,0,.09,0,.14v.06c.29-.87.13-1.93.57-2.35a11.35,11.35,0,0,0,1.67-2.13l.08-.12v0A1.73,1.73,0,0,0,95.8,171Zm.6,1.89a.82.82,0,0,1-.91.57,1.55,1.55,0,0,1-.55-.22l-.56-.31c-.08,0-.16-.09-.17-.17a.2.2,0,0,1,.06-.14,1.19,1.19,0,0,1,1-.4,1.85,1.85,0,0,1,1,.47.3.3,0,0,1,.08.08A.24.24,0,0,1,96.4,172.91Z" transform="translate(-0.19 -7)"/><path class="cls-38" d="M86.93,167.42c-.09.26-.16.52-.23.79v0a2.62,2.62,0,0,0-.09.38v0c0,.11,0,.23-.07.35a.28.28,0,0,1,0,.09c0,.06,0,.12,0,.18a5.1,5.1,0,0,0,.38,2.88,4.29,4.29,0,0,1,.42-3c.64-1.47,1.6-2.9,1.81-4.46a6,6,0,0,0-.88.32,6,6,0,0,0-1.3,2.38Z" transform="translate(-0.19 -7)"/><path class="cls-41" d="M86.93,167.42c-.09.26-.16.52-.23.79v0a2.62,2.62,0,0,0-.09.38v0c0,.11,0,.23-.07.35a.28.28,0,0,1,0,.09c0,.06,0,.12,0,.18a5.1,5.1,0,0,0,.38,2.88,4.29,4.29,0,0,1,.42-3c.64-1.47,1.6-2.9,1.81-4.46a6,6,0,0,0-.88.32,6,6,0,0,0-1.3,2.38Z" transform="translate(-0.19 -7)"/><path class="cls-41" d="M98,171.54v0Z" transform="translate(-0.19 -7)"/><path class="cls-41" d="M98.1,171.2h0Z" transform="translate(-0.19 -7)"/><path class="cls-41" d="M96.07,164.94a7.57,7.57,0,0,0-1.29-.44v0A6,6,0,0,1,96,165Z" transform="translate(-0.19 -7)"/><path class="cls-38" d="M96.24,168.13l.25.35a.29.29,0,0,0,0-.09A.34.34,0,0,0,96.24,168.13Z" transform="translate(-0.19 -7)"/><path class="cls-41" d="M96.24,168.13l.25.35a.29.29,0,0,0,0-.09A.34.34,0,0,0,96.24,168.13Z" transform="translate(-0.19 -7)"/><path class="cls-38" d="M98.08,170.54h0c0-.1,0-.2,0-.3s0-.11,0-.17,0-.1,0-.15a1,1,0,0,0,0-.23v-.07a2.93,2.93,0,0,0-.05-.29h0a8.18,8.18,0,0,0-2-4.13.19.19,0,0,1,0-.16,6,6,0,0,0-1.19-.5,8.43,8.43,0,0,0,1.41,3.54,1.38,1.38,0,0,1,.48-.51.62.62,0,0,1,.43-.12.46.46,0,0,1,.38.43,1,1,0,0,1-.17.57.84.84,0,0,1-.27.32.44.44,0,0,1-.32.06A10.68,10.68,0,0,1,98,171.08c.07.2-.06.24,0,.45v0c0-.11.06-.21.08-.31v0C98.09,171,98.08,170.76,98.08,170.54Z" transform="translate(-0.19 -7)"/><path class="cls-41" d="M98.08,170.54h0c0-.1,0-.2,0-.3s0-.11,0-.17,0-.1,0-.15a1,1,0,0,0,0-.23v-.07a2.93,2.93,0,0,0-.05-.29h0a8.18,8.18,0,0,0-2-4.13.19.19,0,0,1,0-.16,6,6,0,0,0-1.19-.5,8.43,8.43,0,0,0,1.41,3.54,1.38,1.38,0,0,1,.48-.51.62.62,0,0,1,.43-.12.46.46,0,0,1,.38.43,1,1,0,0,1-.17.57.84.84,0,0,1-.27.32.44.44,0,0,1-.32.06A10.68,10.68,0,0,1,98,171.08c.07.2-.06.24,0,.45v0c0-.11.06-.21.08-.31v0C98.09,171,98.08,170.76,98.08,170.54Z" transform="translate(-0.19 -7)"/><path class="cls-39" d="M96.24,168.13a.34.34,0,0,1,.23.26.29.29,0,0,1,0,.09l.24.34a.44.44,0,0,0,.32-.06.84.84,0,0,0,.27-.32,1,1,0,0,0,.17-.57.46.46,0,0,0-.38-.43.62.62,0,0,0-.43.12,1.38,1.38,0,0,0-.48.51h0Z" transform="translate(-0.19 -7)"/><path class="cls-41" d="M96.24,168.13a.34.34,0,0,1,.23.26.29.29,0,0,1,0,.09l.24.34a.44.44,0,0,0,.32-.06.84.84,0,0,0,.27-.32,1,1,0,0,0,.17-.57.46.46,0,0,0-.38-.43.62.62,0,0,0-.43.12,1.38,1.38,0,0,0-.48.51h0Z" transform="translate(-0.19 -7)"/><path class="cls-39" d="M96.32,172.71a1.85,1.85,0,0,0-1-.47,1.19,1.19,0,0,0-1,.4.2.2,0,0,0-.06.14c0,.08.09.13.17.17l.56.31a1.55,1.55,0,0,0,.55.22.82.82,0,0,0,.91-.57.24.24,0,0,0,0-.12A.3.3,0,0,0,96.32,172.71Z" transform="translate(-0.19 -7)"/><path class="cls-39" d="M87.87,173.55a1.73,1.73,0,0,0,.29-.67.56.56,0,0,0-.35-.59.83.83,0,0,0-.73.22h0c.25.44.47.83.66,1.19h0A.93.93,0,0,0,87.87,173.55Z" transform="translate(-0.19 -7)"/><path class="cls-42" d="M95.44,176.64h0c-.3,1.32-2.42.72-3.17.18a1,1,0,0,1-.43.09l-.06,0c-.81.54-2.77,1.07-3.09-.19h0v.14a1.24,1.24,0,0,0,.09.42v.05c.53,1.13,2.85.28,3.3-.26.4.46,2.22,1.14,3,.55a.93.93,0,0,0,.38-.76v-.06C95.43,176.73,95.44,176.69,95.44,176.64Z" transform="translate(-0.19 -7)"/><path class="cls-43" d="M95.41,168.76A1.62,1.62,0,0,0,93.88,170a1.89,1.89,0,0,0,1.49.87c.93,0,1.55-1.29,1.55-1.29A2.17,2.17,0,0,0,95.41,168.76Zm0,2a1,1,0,0,1-1.07-.91,1,1,0,0,1,1-1,1.06,1.06,0,0,1,.68.21.29.29,0,0,1,.12.1.9.9,0,0,1,.27.6A1,1,0,0,1,95.37,170.77Z" transform="translate(-0.19 -7)"/><path class="cls-44" d="M96.18,169.42a.38.38,0,0,1-.24.36,0,0,0,0,1,0,0,.62.62,0,1,1-.63-.54h0a.42.42,0,0,1,.38-.23.39.39,0,0,1,.24.06,1.06,1.06,0,0,0-.68-.21,1,1,0,0,0-1,1,1,1,0,0,0,1.07.91,1,1,0,0,0,1-1,.9.9,0,0,0-.27-.6A.35.35,0,0,1,96.18,169.42Z" transform="translate(-0.19 -7)"/><path class="cls-45" d="M95.32,169.44a.33.33,0,0,1,0-.17h0a.56.56,0,1,0,.63.54,0,0,0,0,0,0,0,.48.48,0,0,1-.18,0A.41.41,0,0,1,95.32,169.44Z" transform="translate(-0.19 -7)"/><path class="cls-46" d="M95.36,169.27a.33.33,0,0,0,0,.17.41.41,0,0,0,.44.38.48.48,0,0,0,.18,0,.38.38,0,0,0,.24-.36.35.35,0,0,0-.08-.22.29.29,0,0,0-.12-.1.39.39,0,0,0-.24-.06A.42.42,0,0,0,95.36,169.27Z" transform="translate(-0.19 -7)"/><path class="cls-43" d="M89.59,168.78a2.15,2.15,0,0,0-1.45.94s.71,1.23,1.64,1.21a1.91,1.91,0,0,0,1.43-1A1.67,1.67,0,0,0,89.59,168.78Zm.22,2a1,1,0,0,1-1.07-.92,1,1,0,0,1,1-1,1.09,1.09,0,0,1,.67.21.45.45,0,0,1,.13.11.93.93,0,0,1,.27.6A1,1,0,0,1,89.81,170.79Z" transform="translate(-0.19 -7)"/><path class="cls-44" d="M90.62,169.43a.38.38,0,0,1-.23.36v0a.57.57,0,0,1-.59.57.59.59,0,0,1-.63-.54.57.57,0,0,1,.59-.57h0a.44.44,0,0,1,.38-.24.48.48,0,0,1,.24.06,1.09,1.09,0,0,0-.67-.21,1,1,0,0,0-1,1,1,1,0,0,0,1.07.92,1,1,0,0,0,1-1,.93.93,0,0,0-.27-.6A.38.38,0,0,1,90.62,169.43Z" transform="translate(-0.19 -7)"/><path class="cls-45" d="M89.77,169.45a.29.29,0,0,1,0-.16h0a.57.57,0,0,0-.59.57.59.59,0,0,0,.63.54.57.57,0,0,0,.59-.57v0a.39.39,0,0,1-.18,0A.4.4,0,0,1,89.77,169.45Z" transform="translate(-0.19 -7)"/><path class="cls-46" d="M89.8,169.29a.29.29,0,0,0,0,.16.4.4,0,0,0,.44.38.39.39,0,0,0,.18,0,.38.38,0,0,0,.16-.57.45.45,0,0,0-.13-.11.48.48,0,0,0-.24-.06A.44.44,0,0,0,89.8,169.29Z" transform="translate(-0.19 -7)"/><path class="cls-42" d="M90.86,176.47a3.43,3.43,0,0,0,.88.41l.06,0a1,1,0,0,0,.43-.09,3.1,3.1,0,0,0,2-2.33,1,1,0,0,0-.48-.89,3.52,3.52,0,0,0-3.39-.15l-.26.17C89,174.5,90.28,176,90.86,176.47Z" transform="translate(-0.19 -7)"/><path class="cls-39" d="M86.48,169.4s0,.1,0,.14S86.48,169.45,86.48,169.4Z" transform="translate(-0.19 -7)"/><path class="cls-39" d="M86.46,170.48c0-.1,0-.22,0-.33C86.44,170.26,86.45,170.38,86.46,170.48Z" transform="translate(-0.19 -7)"/><path class="cls-39" d="M84.08,170.52a.33.33,0,0,1,.26-.11h0a3.7,3.7,0,0,0,.88-.55,23.78,23.78,0,0,0,1.68-2.44,6,6,0,0,1,1.3-2.38h0s.14-.67-1.67.05l-1.46.59a1.15,1.15,0,0,1,.49.51.58.58,0,0,1-.24.74.89.89,0,0,1-.58,0,1.27,1.27,0,0,1-.85-.61.94.94,0,0,1,0-.16c-.65.26-1.26.49-1.89.68-1.41.42-1.53,2.65-.82,4.08a3.62,3.62,0,0,1-.27-.74A4.07,4.07,0,0,0,84.08,170.52Zm-3.3-1.88.36,0h.09a.66.66,0,0,1-.3.66l-.17.07A3.84,3.84,0,0,1,80.78,168.64Z" transform="translate(-0.19 -7)"/><path class="cls-39" d="M84.11,175.8c.2,0,.45-.28.89-.79a6.65,6.65,0,0,0,1.48-4.18A6.65,6.65,0,0,1,85,175C84.56,175.52,84.31,175.81,84.11,175.8Z" transform="translate(-0.19 -7)"/><path class="cls-39" d="M86.45,169.78v0Z" transform="translate(-0.19 -7)"/><path class="cls-39" d="M81.31,171.21c.34.64.81,1.37,1.24,2h0C82.11,172.57,81.65,171.85,81.31,171.21Z" transform="translate(-0.19 -7)"/><path class="cls-39" d="M83.31,174.45l.09.15-.09-.15Z" transform="translate(-0.19 -7)"/><path class="cls-39" d="M86.7,168.23v0Z" transform="translate(-0.19 -7)"/><path class="cls-39" d="M86.6,168.66v0Z" transform="translate(-0.19 -7)"/><path class="cls-39" d="M86.52,169.1a.28.28,0,0,0,0-.09A.28.28,0,0,1,86.52,169.1Z" transform="translate(-0.19 -7)"/><path class="cls-39" d="M102.07,173.24h0a25.07,25.07,0,0,0,1.33-2.54A25.07,25.07,0,0,1,102.07,173.24Z" transform="translate(-0.19 -7)"/><path class="cls-39" d="M100.8,175.7a.25.25,0,0,0,.12-.07A.25.25,0,0,1,100.8,175.7Z" transform="translate(-0.19 -7)"/><path class="cls-39" d="M103.4,170.7c0-.11.08-.22.11-.33v0C103.47,170.5,103.44,170.6,103.4,170.7Z" transform="translate(-0.19 -7)"/><path class="cls-39" d="M99.84,175a6.23,6.23,0,0,1-1.07-1.56A6.23,6.23,0,0,0,99.84,175c.47.48.74.76.93.74C100.58,175.73,100.31,175.45,99.84,175Z" transform="translate(-0.19 -7)"/><path class="cls-39" d="M96,165a.19.19,0,0,0,0,.16,8.18,8.18,0,0,1,2,4.13,3.38,3.38,0,0,0,1.11,1.28,1.11,1.11,0,0,1,.64-.34.33.33,0,0,1,.14,0c.1.06.08.2,0,.3l-.15.32.16.05a3.61,3.61,0,0,0,2.71-.6.62.62,0,0,1,0-.61.69.69,0,0,1,.45-.17h.36a3,3,0,0,0,.22-.28c0,.1,0,.2,0,.29h0v.05s0,.08,0,.12a1.29,1.29,0,0,1,0,.19.45.45,0,0,1,0,.16c0,.06,0,.12,0,.18a.29.29,0,0,0,0,.09c.44-1.44.11-3.37-1.22-3.69s-2.8-.91-4.67-1.53c-1-.32-1.39-.3-1.56-.2Zm3.41,2a.39.39,0,0,1,.15,0c.35,0,.7.22.69.47s-.43.47-.78.39a.25.25,0,0,1-.09,0,.11.11,0,0,1,0-.07,2,2,0,0,1-.08-.47A.24.24,0,0,1,99.39,167Z" transform="translate(-0.19 -7)"/><path class="cls-39" d="M98,169.61v0Z" transform="translate(-0.19 -7)"/><path class="cls-39" d="M98.08,170.23c0,.1,0,.2,0,.3C98.09,170.43,98.08,170.33,98.08,170.23Z" transform="translate(-0.19 -7)"/><path class="cls-39" d="M98.05,169.91c0,.05,0,.1,0,.15S98.06,170,98.05,169.91Z" transform="translate(-0.19 -7)"/><path class="cls-38" d="M99.36,167.83a.25.25,0,0,0,.09,0c.35.08.77-.13.78-.39s-.34-.47-.69-.47a.39.39,0,0,0-.15,0,.24.24,0,0,0-.14.26,2,2,0,0,0,.08.47A.11.11,0,0,0,99.36,167.83Z" transform="translate(-0.19 -7)"/><path class="cls-38" d="M99.85,170.27a.33.33,0,0,0-.14,0,1.11,1.11,0,0,0-.64.34,2,2,0,0,0,.67.29l.15-.32C99.93,170.47,100,170.33,99.85,170.27Z" transform="translate(-0.19 -7)"/><path class="cls-38" d="M103.4,170.7c0-.1.07-.2.1-.3C103.47,170.5,103.44,170.6,103.4,170.7Z" transform="translate(-0.19 -7)"/><path class="cls-38" d="M103.58,170.09c0,.06,0,.12,0,.18S103.57,170.15,103.58,170.09Z" transform="translate(-0.19 -7)"/><path class="cls-38" d="M103.47,169.56h-.36a.69.69,0,0,0-.45.17.62.62,0,0,0,0,.61A3.78,3.78,0,0,0,103.47,169.56Z" transform="translate(-0.19 -7)"/><path class="cls-38" d="M103.67,169.57h0a.09.09,0,0,0,0,.05Z" transform="translate(-0.19 -7)"/><path class="cls-38" d="M103.65,169.74a1.29,1.29,0,0,1,0,.19A1.29,1.29,0,0,0,103.65,169.74Z" transform="translate(-0.19 -7)"/><path class="cls-38" d="M101.52,174.25h0c.16-.31.35-.66.55-1h0C101.87,173.59,101.68,173.94,101.52,174.25Z" transform="translate(-0.19 -7)"/><path class="cls-38" d="M84.77,167a.89.89,0,0,0,.58,0,.58.58,0,0,0,.24-.74,1.15,1.15,0,0,0-.49-.51h0l-1.22.5h0a.94.94,0,0,0,0,.16A1.27,1.27,0,0,0,84.77,167Z" transform="translate(-0.19 -7)"/><path class="cls-38" d="M81.23,168.59h-.09l-.36,0a3.84,3.84,0,0,0,0,.68l.17-.07A.66.66,0,0,0,81.23,168.59Z" transform="translate(-0.19 -7)"/><path class="cls-38" d="M84.08,170.52l.29-.11h0A.33.33,0,0,0,84.08,170.52Z" transform="translate(-0.19 -7)"/><path class="cls-38" d="M82.55,173.24h0c.28.43.55.84.76,1.2h0C83.1,174.09,82.83,173.67,82.55,173.24Z" transform="translate(-0.19 -7)"/><path class="cls-47" d="M86.47,169.54a1.94,1.94,0,0,0,0,.24A1.94,1.94,0,0,1,86.47,169.54Z" transform="translate(-0.19 -7)"/><path class="cls-47" d="M83.82,175.5c.09.2.18.3.29.3C84,175.8,83.91,175.7,83.82,175.5Z" transform="translate(-0.19 -7)"/><path class="cls-47" d="M86.48,170.83c0-.11,0-.22,0-.34h0C86.47,170.61,86.48,170.72,86.48,170.83Z" transform="translate(-0.19 -7)"/><path class="cls-47" d="M86.48,169.4s0-.05,0-.08h0S86.48,169.37,86.48,169.4Z" transform="translate(-0.19 -7)"/><path class="cls-47" d="M86.44,170.15a.91.91,0,0,1,0-.17A.91.91,0,0,0,86.44,170.15Z" transform="translate(-0.19 -7)"/><path class="cls-38" d="M86.5,169.27v0h0v0Z" transform="translate(-0.19 -7)"/><path class="cls-47" d="M86.5,169.27v0h0v0Z" transform="translate(-0.19 -7)"/><path class="cls-38" d="M86.93,167.42c-.09.26-.16.52-.23.79.07-.27.14-.53.23-.79Z" transform="translate(-0.19 -7)"/><path class="cls-41" d="M86.93,167.42c-.09.26-.16.52-.23.79.07-.27.14-.53.23-.79Z" transform="translate(-0.19 -7)"/><path class="cls-47" d="M86.93,167.42c-.09.26-.16.52-.23.79.07-.27.14-.53.23-.79Z" transform="translate(-0.19 -7)"/><path class="cls-38" d="M86.5,169.27h0c0-.06,0-.12,0-.18S86.51,169.22,86.5,169.27Z" transform="translate(-0.19 -7)"/><path class="cls-41" d="M86.5,169.27h0c0-.06,0-.12,0-.18S86.51,169.22,86.5,169.27Z" transform="translate(-0.19 -7)"/><path class="cls-47" d="M86.5,169.27h0c0-.06,0-.12,0-.18S86.51,169.22,86.5,169.27Z" transform="translate(-0.19 -7)"/><path class="cls-38" d="M86.61,168.61a2.62,2.62,0,0,1,.09-.38A2.62,2.62,0,0,0,86.61,168.61Z" transform="translate(-0.19 -7)"/><path class="cls-41" d="M86.61,168.61a2.62,2.62,0,0,1,.09-.38A2.62,2.62,0,0,0,86.61,168.61Z" transform="translate(-0.19 -7)"/><path class="cls-47" d="M86.61,168.61a2.62,2.62,0,0,1,.09-.38A2.62,2.62,0,0,0,86.61,168.61Z" transform="translate(-0.19 -7)"/><path class="cls-38" d="M86.53,169c0-.12,0-.24.07-.35C86.58,168.77,86.55,168.89,86.53,169Z" transform="translate(-0.19 -7)"/><path class="cls-41" d="M86.53,169c0-.12,0-.24.07-.35C86.58,168.77,86.55,168.89,86.53,169Z" transform="translate(-0.19 -7)"/><path class="cls-47" d="M86.53,169c0-.12,0-.24.07-.35C86.58,168.77,86.55,168.89,86.53,169Z" transform="translate(-0.19 -7)"/><path class="cls-39" d="M86.5,169.27c0-.05,0-.11,0-.17a.28.28,0,0,0,0-.09c0-.12,0-.24.07-.35v0a2.62,2.62,0,0,1,.09-.38v0c.07-.27.14-.53.23-.79a23.78,23.78,0,0,1-1.68,2.44,3.7,3.7,0,0,1-.88.55.56.56,0,0,1,.5.31.48.48,0,0,1-.11.54.6.6,0,0,1-.59.12.56.56,0,0,0,0-.52c0-.09-.12-.17-.11-.26a.11.11,0,0,1,0-.08,4.07,4.07,0,0,1-3.18-.32,3.62,3.62,0,0,0,.27.74c0,.09.09.18.14.27.34.64.8,1.36,1.24,2l-.06-.1h.05a1.73,1.73,0,0,1,1,.24.61.61,0,0,1,.18.88.66.66,0,0,1-.45.19l.09.15a4,4,0,0,1,.29.61l.13.29c.09.2.18.3.29.3s.45-.28.89-.79a6.65,6.65,0,0,0,1.48-4.18c0-.11,0-.22,0-.34h0c0-.1,0-.22,0-.33a.91.91,0,0,1,0-.17v-.2a1.94,1.94,0,0,1,0-.24s0-.09,0-.14,0-.06,0-.09Z" transform="translate(-0.19 -7)"/><path class="cls-47" d="M86.5,169.27c0-.05,0-.11,0-.17a.28.28,0,0,0,0-.09c0-.12,0-.24.07-.35v0a2.62,2.62,0,0,1,.09-.38v0c.07-.27.14-.53.23-.79a23.78,23.78,0,0,1-1.68,2.44,3.7,3.7,0,0,1-.88.55.56.56,0,0,1,.5.31.48.48,0,0,1-.11.54.6.6,0,0,1-.59.12.56.56,0,0,0,0-.52c0-.09-.12-.17-.11-.26a.11.11,0,0,1,0-.08,4.07,4.07,0,0,1-3.18-.32,3.62,3.62,0,0,0,.27.74c0,.09.09.18.14.27.34.64.8,1.36,1.24,2l-.06-.1h.05a1.73,1.73,0,0,1,1,.24.61.61,0,0,1,.18.88.66.66,0,0,1-.45.19l.09.15a4,4,0,0,1,.29.61l.13.29c.09.2.18.3.29.3s.45-.28.89-.79a6.65,6.65,0,0,0,1.48-4.18c0-.11,0-.22,0-.34h0c0-.1,0-.22,0-.33a.91.91,0,0,1,0-.17v-.2a1.94,1.94,0,0,1,0-.24s0-.09,0-.14,0-.06,0-.09Z" transform="translate(-0.19 -7)"/><path class="cls-38" d="M84.05,170.6c0,.09.06.17.11.26a.56.56,0,0,1,0,.52.6.6,0,0,0,.59-.12.48.48,0,0,0,.11-.54.56.56,0,0,0-.5-.31l-.29.11A.11.11,0,0,0,84.05,170.6Z" transform="translate(-0.19 -7)"/><path class="cls-47" d="M84.05,170.6c0,.09.06.17.11.26a.56.56,0,0,1,0,.52.6.6,0,0,0,.59-.12.48.48,0,0,0,.11-.54.56.56,0,0,0-.5-.31l-.29.11A.11.11,0,0,0,84.05,170.6Z" transform="translate(-0.19 -7)"/><path class="cls-38" d="M83.31,174.45a.66.66,0,0,0,.45-.19.61.61,0,0,0-.18-.88,1.73,1.73,0,0,0-1-.24h-.05l.06.1C82.83,173.67,83.1,174.09,83.31,174.45Z" transform="translate(-0.19 -7)"/><path class="cls-47" d="M83.31,174.45a.66.66,0,0,0,.45-.19.61.61,0,0,0-.18-.88,1.73,1.73,0,0,0-1-.24h-.05l.06.1C82.83,173.67,83.1,174.09,83.31,174.45Z" transform="translate(-0.19 -7)"/><path class="cls-47" d="M100.8,175.7h0Z" transform="translate(-0.19 -7)"/><path class="cls-47" d="M101.05,175.4a.7.7,0,0,1-.13.23A.7.7,0,0,0,101.05,175.4Z" transform="translate(-0.19 -7)"/><path class="cls-47" d="M98.11,171.19a6.51,6.51,0,0,0,.66,2.22,6.51,6.51,0,0,1-.66-2.22Z" transform="translate(-0.19 -7)"/><path class="cls-47" d="M103.52,170.36h0Z" transform="translate(-0.19 -7)"/><path class="cls-47" d="M101.22,174.91a7,7,0,0,1,.3-.66h0A7,7,0,0,0,101.22,174.91Z" transform="translate(-0.19 -7)"/><polygon class="cls-41" points="97.92 164.18 97.92 164.19 97.92 164.19 97.92 164.19 97.92 164.18"/><polygon class="cls-47" points="97.92 164.18 97.92 164.19 97.92 164.19 97.92 164.19 97.92 164.18"/><path class="cls-38" d="M98,169.61a2.93,2.93,0,0,0-.05-.29h0A2.93,2.93,0,0,1,98,169.61Z" transform="translate(-0.19 -7)"/><path class="cls-41" d="M98,169.61a2.93,2.93,0,0,0-.05-.29h0A2.93,2.93,0,0,1,98,169.61Z" transform="translate(-0.19 -7)"/><path class="cls-47" d="M98,169.61a2.93,2.93,0,0,0-.05-.29h0A2.93,2.93,0,0,1,98,169.61Z" transform="translate(-0.19 -7)"/><path class="cls-38" d="M98.11,171.18h0c0-.21,0-.42,0-.64h0C98.08,170.76,98.09,171,98.11,171.18Z" transform="translate(-0.19 -7)"/><path class="cls-41" d="M98.11,171.18h0c0-.21,0-.42,0-.64h0C98.08,170.76,98.09,171,98.11,171.18Z" transform="translate(-0.19 -7)"/><path class="cls-47" d="M98.11,171.18h0c0-.21,0-.42,0-.64h0C98.08,170.76,98.09,171,98.11,171.18Z" transform="translate(-0.19 -7)"/><path class="cls-38" d="M98,169.68a1,1,0,0,1,0,.23A1,1,0,0,0,98,169.68Z" transform="translate(-0.19 -7)"/><path class="cls-41" d="M98,169.68a1,1,0,0,1,0,.23A1,1,0,0,0,98,169.68Z" transform="translate(-0.19 -7)"/><path class="cls-47" d="M98,169.68a1,1,0,0,1,0,.23A1,1,0,0,0,98,169.68Z" transform="translate(-0.19 -7)"/><path class="cls-38" d="M98.07,170.06c0,.06,0,.11,0,.17S98.07,170.12,98.07,170.06Z" transform="translate(-0.19 -7)"/><path class="cls-41" d="M98.07,170.06c0,.06,0,.11,0,.17S98.07,170.12,98.07,170.06Z" transform="translate(-0.19 -7)"/><path class="cls-47" d="M98.07,170.06c0,.06,0,.11,0,.17S98.07,170.12,98.07,170.06Z" transform="translate(-0.19 -7)"/><path class="cls-39" d="M103.5,170.4v0h0a.29.29,0,0,1,0-.09A.65.65,0,0,1,103.5,170.4Z" transform="translate(-0.19 -7)"/><path class="cls-47" d="M103.5,170.4v0h0a.29.29,0,0,1,0-.09A.65.65,0,0,1,103.5,170.4Z" transform="translate(-0.19 -7)"/><path class="cls-39" d="M103.69,169.28a3,3,0,0,1-.22.28h.2C103.68,169.48,103.68,169.38,103.69,169.28Z" transform="translate(-0.19 -7)"/><path class="cls-47" d="M103.69,169.28a3,3,0,0,1-.22.28h.2C103.68,169.48,103.68,169.38,103.69,169.28Z" transform="translate(-0.19 -7)"/><path class="cls-39" d="M101.34,174.16l-.78-.45a.79.79,0,0,1-.29-.25.41.41,0,0,1,.15-.49,1,1,0,0,1,.56-.15,1.65,1.65,0,0,1,1.09.42,25.07,25.07,0,0,0,1.33-2.54c-.08.18-.16.36-.26.56h-.24a.93.93,0,0,1-.12-.27c0-.21-.11-.42-.17-.62h0a3.61,3.61,0,0,1-2.71.6l-.16-.05a1.1,1.1,0,0,1-.71.64.25.25,0,0,1-.17,0,.19.19,0,0,1-.07-.14.94.94,0,0,1,.28-.77A3.38,3.38,0,0,1,98,169.32a2.93,2.93,0,0,1,.05.29v.07a1,1,0,0,1,0,.23c0,.05,0,.1,0,.15s0,.11,0,.17,0,.2,0,.3h0c0,.22,0,.43,0,.64h0a6.51,6.51,0,0,0,.66,2.22A6.23,6.23,0,0,0,99.84,175c.47.48.74.76.93.74h0a.25.25,0,0,0,.12-.07.7.7,0,0,0,.13-.23,1.5,1.5,0,0,0,.1-.3c0-.06,0-.12.07-.19a7,7,0,0,1,.3-.66Z" transform="translate(-0.19 -7)"/><path class="cls-47" d="M101.34,174.16l-.78-.45a.79.79,0,0,1-.29-.25.41.41,0,0,1,.15-.49,1,1,0,0,1,.56-.15,1.65,1.65,0,0,1,1.09.42,25.07,25.07,0,0,0,1.33-2.54c-.08.18-.16.36-.26.56h-.24a.93.93,0,0,1-.12-.27c0-.21-.11-.42-.17-.62h0a3.61,3.61,0,0,1-2.71.6l-.16-.05a1.1,1.1,0,0,1-.71.64.25.25,0,0,1-.17,0,.19.19,0,0,1-.07-.14.94.94,0,0,1,.28-.77A3.38,3.38,0,0,1,98,169.32a2.93,2.93,0,0,1,.05.29v.07a1,1,0,0,1,0,.23c0,.05,0,.1,0,.15s0,.11,0,.17,0,.2,0,.3h0c0,.22,0,.43,0,.64h0a6.51,6.51,0,0,0,.66,2.22A6.23,6.23,0,0,0,99.84,175c.47.48.74.76.93.74h0a.25.25,0,0,0,.12-.07.7.7,0,0,0,.13-.23,1.5,1.5,0,0,0,.1-.3c0-.06,0-.12.07-.19a7,7,0,0,1,.3-.66Z" transform="translate(-0.19 -7)"/><path class="cls-39" d="M103.66,169.62s0,.08,0,.12S103.66,169.66,103.66,169.62Z" transform="translate(-0.19 -7)"/><path class="cls-47" d="M103.66,169.62s0,.08,0,.12S103.66,169.66,103.66,169.62Z" transform="translate(-0.19 -7)"/><path class="cls-39" d="M103.61,169.93a.9.9,0,0,1,0,.16A.45.45,0,0,0,103.61,169.93Z" transform="translate(-0.19 -7)"/><path class="cls-47" d="M103.61,169.93a.9.9,0,0,1,0,.16A.45.45,0,0,0,103.61,169.93Z" transform="translate(-0.19 -7)"/><path class="cls-38" d="M98.79,171.37a.19.19,0,0,0,.07.14.25.25,0,0,0,.17,0,1.1,1.1,0,0,0,.71-.64,2,2,0,0,1-.67-.29A.94.94,0,0,0,98.79,171.37Z" transform="translate(-0.19 -7)"/><path class="cls-47" d="M98.79,171.37a.19.19,0,0,0,.07.14.25.25,0,0,0,.17,0,1.1,1.1,0,0,0,.71-.64,2,2,0,0,1-.67-.29A.94.94,0,0,0,98.79,171.37Z" transform="translate(-0.19 -7)"/><path class="cls-38" d="M103.54,170.27c0-.06,0-.12,0-.18a.9.9,0,0,0,0-.16,1.29,1.29,0,0,0,0-.19s0-.08,0-.12a.09.09,0,0,1,0-.05h-.2a3.78,3.78,0,0,1-.86.78h0c.06.2.12.41.17.62a.93.93,0,0,0,.12.27h.24c.1-.2.18-.38.26-.56s.07-.2.1-.3A.65.65,0,0,0,103.54,170.27Z" transform="translate(-0.19 -7)"/><path class="cls-47" d="M103.54,170.27c0-.06,0-.12,0-.18a.9.9,0,0,0,0-.16,1.29,1.29,0,0,0,0-.19s0-.08,0-.12a.09.09,0,0,1,0-.05h-.2a3.78,3.78,0,0,1-.86.78h0c.06.2.12.41.17.62a.93.93,0,0,0,.12.27h.24c.1-.2.18-.38.26-.56s.07-.2.1-.3A.65.65,0,0,0,103.54,170.27Z" transform="translate(-0.19 -7)"/><path class="cls-38" d="M102.07,173.24a1.65,1.65,0,0,0-1.09-.42,1,1,0,0,0-.56.15.41.41,0,0,0-.15.49.79.79,0,0,0,.29.25l.78.45.18.09h0C101.68,173.94,101.87,173.59,102.07,173.24Z" transform="translate(-0.19 -7)"/><path class="cls-47" d="M102.07,173.24a1.65,1.65,0,0,0-1.09-.42,1,1,0,0,0-.56.15.41.41,0,0,0-.15.49.79.79,0,0,0,.29.25l.78.45.18.09h0C101.68,173.94,101.87,173.59,102.07,173.24Z" transform="translate(-0.19 -7)"/><ellipse class="cls-16" cx="233.53" cy="199.74" rx="18.59" ry="4.9"/><path class="cls-48" d="M227,150.05a10.16,10.16,0,0,0-.48,2.64,5,5,0,0,1-.8,2.24,14.4,14.4,0,0,0,1,3.31,6.59,6.59,0,0,0,1.23,1.91c1.75-1.11,2.66-2.49,3-5.44.24-1.5.15-4.63,1.12-4.63.45,0,1.43,2,1.16,4.79a8.52,8.52,0,0,0,.27,3.79,8.53,8.53,0,0,0,1.79,1.8c.55-.56,1-1.18,1.51-1.65a3.11,3.11,0,0,0,.67-1q.15-.75.33-1.53c.11-.43.19-.84.26-1.22a10.17,10.17,0,0,1-.52-4.48c-1.9-1.11-4.81-2.06-5.82-1.87,0,0-4,.73-5.71,1.78l0,0A7.31,7.31,0,0,1,227,150.05Zm8.41,4.94c.9-.17,1.65.61,2.09.6,0,0-.57,1.39-1.45,1.35-1.25-.06-1.65-.22-2.24-.23A2.18,2.18,0,0,1,235.39,155Zm-7.15-.24a2.18,2.18,0,0,1,1.6,1.72c-.58,0-1,.17-2.23.23-.88,0-1.46-1.35-1.46-1.35C226.59,155.36,227.35,154.58,228.24,154.75Z" transform="translate(-0.19 -7)"/><path class="cls-48" d="M225.7,154.93a5,5,0,0,0,.8-2.24,10.16,10.16,0,0,1,.48-2.64,7.31,7.31,0,0,0-1,.44h0a2,2,0,0,0-.51,1c0,.62.05,1.24,0,1.83A9,9,0,0,0,225.7,154.93Z" transform="translate(-0.19 -7)"/><path class="cls-49" d="M225.7,154.93a5,5,0,0,0,.8-2.24,10.16,10.16,0,0,1,.48-2.64,7.31,7.31,0,0,0-1,.44h0a2,2,0,0,0-.51,1c0,.62.05,1.24,0,1.83A9,9,0,0,0,225.7,154.93Z" transform="translate(-0.19 -7)"/><path class="cls-49" d="M237.51,150.5v.06l.12.07Z" transform="translate(-0.19 -7)"/><path class="cls-49" d="M237.51,150.47v0h0Z" transform="translate(-0.19 -7)"/><path class="cls-48" d="M238,155c.5-2.9-.12-4-.4-4.41l-.12-.07A10.17,10.17,0,0,0,238,155Z" transform="translate(-0.19 -7)"/><path class="cls-49" d="M238,155c.5-2.9-.12-4-.4-4.41l-.12-.07A10.17,10.17,0,0,0,238,155Z" transform="translate(-0.19 -7)"/><path class="cls-48" d="M236.77,158.81c-.47.47-1,1.09-1.51,1.65a15.89,15.89,0,0,1,1.32,1.27c0,.12,0,.23,0,.35a15.62,15.62,0,0,0,.52-1.51,22.08,22.08,0,0,1,.36-2.78A3.11,3.11,0,0,1,236.77,158.81Z" transform="translate(-0.19 -7)"/><path class="cls-49" d="M236.77,158.81c-.47.47-1,1.09-1.51,1.65a15.89,15.89,0,0,1,1.32,1.27c0,.12,0,.23,0,.35a15.62,15.62,0,0,0,.52-1.51,22.08,22.08,0,0,1,.36-2.78A3.11,3.11,0,0,1,236.77,158.81Z" transform="translate(-0.19 -7)"/><path class="cls-48" d="M225.7,154.93l-.15.23c.06.35.14.71.23,1.1a23,23,0,0,1,.7,4.68,12.94,12.94,0,0,0,1.45-.79,6.59,6.59,0,0,1-1.23-1.91A14.4,14.4,0,0,1,225.7,154.93Z" transform="translate(-0.19 -7)"/><path class="cls-49" d="M225.7,154.93l-.15.23c.06.35.14.71.23,1.1a23,23,0,0,1,.7,4.68,12.94,12.94,0,0,0,1.45-.79,6.59,6.59,0,0,1-1.23-1.91A14.4,14.4,0,0,1,225.7,154.93Z" transform="translate(-0.19 -7)"/><path class="cls-48" d="M225.57,153.3c0-.59,0-1.21,0-1.83a8.31,8.31,0,0,0,0,3.69l.15-.23A9,9,0,0,1,225.57,153.3Z" transform="translate(-0.19 -7)"/><path class="cls-49" d="M225.57,153.3c0-.59,0-1.21,0-1.83a8.31,8.31,0,0,0,0,3.69l.15-.23A9,9,0,0,1,225.57,153.3Z" transform="translate(-0.19 -7)"/><path class="cls-49" d="M225.57,153.3c0-.59,0-1.21,0-1.83a8.31,8.31,0,0,0,0,3.69l.15-.23A9,9,0,0,1,225.57,153.3Z" transform="translate(-0.19 -7)"/><path class="cls-38" d="M235.26,160.46a8.53,8.53,0,0,1-1.79-1.8,8.52,8.52,0,0,1-.27-3.79c.27-2.8-.71-4.8-1.16-4.79-1,0-.88,3.13-1.12,4.63-.33,2.95-1.24,4.33-3,5.44a12.94,12.94,0,0,1-1.45.79,8.5,8.5,0,0,1-.24,2.39,5.18,5.18,0,0,0,3.2,3.66,9.69,9.69,0,0,0,4.67-.21,6.25,6.25,0,0,0,2.45-4.7c0-.12,0-.23,0-.35A15.89,15.89,0,0,0,235.26,160.46Zm-.86,4.82a2,2,0,0,1-1.7.86,2.17,2.17,0,0,1-1.38-.75,1.71,1.71,0,0,1-1.41.68l-.13,0a2,2,0,0,1-1.48-1.12,2.29,2.29,0,0,0-.76-1,1,1,0,0,1,1.09.66,1.33,1.33,0,0,0,1.12.77c.43,0,1.21-.57,1.47-.79-.56-.27-3.34-1.75-2.56-3.65.53-1.26,6-1.14,6,.34s-1.25,2.53-3.29,3.34a2.32,2.32,0,0,0,1.26.84,1.85,1.85,0,0,0,1.45-.53c.63-1,1.26-.44,1.26-.44C235.05,164.4,234.58,165,234.4,165.28Z" transform="translate(-0.19 -7)"/><path class="cls-27" d="M234.1,165a1.85,1.85,0,0,1-1.45.53,2.32,2.32,0,0,1-1.26-.84l-.07,0-.1,0c-.26.22-1,.83-1.47.79a1.33,1.33,0,0,1-1.12-.77,1,1,0,0,0-1.09-.66,2.29,2.29,0,0,1,.76,1,2,2,0,0,0,1.48,1.12l.13,0a1.71,1.71,0,0,0,1.41-.68,2.17,2.17,0,0,0,1.38.75,2,2,0,0,0,1.7-.86c.18-.3.65-.88,1-.77C235.36,164.51,234.73,164,234.1,165Z" transform="translate(-0.19 -7)"/><path class="cls-27" d="M231.39,164.64c2-.81,3.35-1.74,3.29-3.34s-5.49-1.6-6-.34c-.78,1.9,2,3.38,2.56,3.65l.1,0Z" transform="translate(-0.19 -7)"/><path class="cls-50" d="M237.48,155.59c-.44,0-1.19-.77-2.09-.6a2.18,2.18,0,0,0-1.6,1.72c.59,0,1,.17,2.24.23C236.91,157,237.48,155.59,237.48,155.59Zm-3.37,1a1.8,1.8,0,0,1,1.32-1.49h0a.64.64,0,0,1,.2,0h.17c.58.08,1.05.53,1.36.52,0,0-.45,1.15-1.2,1.15A18.45,18.45,0,0,1,234.11,156.62Z" transform="translate(-0.19 -7)"/><path class="cls-51" d="M235.7,155.11h0Z" transform="translate(-0.19 -7)"/><path class="cls-51" d="M237.17,155.64c-.31,0-.78-.44-1.36-.52a.9.9,0,0,1,.23.08.29.29,0,0,1,.15.09.76.76,0,0,1,.31.59.86.86,0,0,1-1.72,0,.8.8,0,0,1,.66-.75h0a1.8,1.8,0,0,0-1.32,1.49,18.45,18.45,0,0,0,1.86.17C236.72,156.79,237.17,155.64,237.17,155.64Z" transform="translate(-0.19 -7)"/><path class="cls-52" d="M234.78,155.88a.86.86,0,0,0,1.72,0,.76.76,0,0,0-.31-.59.29.29,0,0,1,.07.18.3.3,0,0,1-.2.27.32.32,0,0,1,0,.14.46.46,0,0,1-.91,0,.44.44,0,0,1,.45-.41h0a.3.3,0,0,1,.31-.29l.1,0a.9.9,0,0,0-.23-.08h-.17a.64.64,0,0,0-.2,0A.8.8,0,0,0,234.78,155.88Z" transform="translate(-0.19 -7)"/><path class="cls-53" d="M235.63,155.47a.42.42,0,1,0,0,.83.44.44,0,0,0,.45-.42.32.32,0,0,0,0-.14l-.12,0A.3.3,0,0,1,235.63,155.47Z" transform="translate(-0.19 -7)"/><path class="cls-54" d="M235.63,155.47h0a.3.3,0,0,0,.31.29l.12,0a.3.3,0,0,0,.2-.27.28.28,0,0,0-.22-.27l-.1,0A.3.3,0,0,0,235.63,155.47Z" transform="translate(-0.19 -7)"/><path class="cls-50" d="M227.61,156.7c1.24-.06,1.65-.22,2.23-.23a2.18,2.18,0,0,0-1.6-1.72c-.89-.17-1.65.61-2.09.6C226.15,155.35,226.73,156.74,227.61,156.7Zm.32-1.83H228a.69.69,0,0,1,.2,0h0a1.78,1.78,0,0,1,1.31,1.49,18.14,18.14,0,0,1-1.86.17c-.75,0-1.19-1.15-1.19-1.15.31,0,.77-.44,1.35-.52h.11Z" transform="translate(-0.19 -7)"/><path class="cls-51" d="M228.55,155.05a.75.75,0,0,1,.3.6.86.86,0,0,1-1.71,0,.8.8,0,0,1,.68-.77c-.58.08-1,.53-1.35.52,0,0,.44,1.15,1.19,1.15a18.14,18.14,0,0,0,1.86-.17,1.78,1.78,0,0,0-1.31-1.49h0a.62.62,0,0,1,.19.07A.28.28,0,0,1,228.55,155.05Z" transform="translate(-0.19 -7)"/><path class="cls-51" d="M227.93,154.87h0Z" transform="translate(-0.19 -7)"/><path class="cls-52" d="M227.82,154.88a.8.8,0,0,0-.68.77.86.86,0,0,0,1.71,0,.75.75,0,0,0-.3-.6.29.29,0,0,1,.07.18.3.3,0,0,1-.2.27.33.33,0,0,1,0,.15.46.46,0,0,1-.91,0,.44.44,0,0,1,.45-.42h0a.31.31,0,0,1,.32-.29l.09,0a.62.62,0,0,0-.19-.07.69.69,0,0,0-.2,0h-.18Z" transform="translate(-0.19 -7)"/><path class="cls-53" d="M228,155.23a.44.44,0,0,0-.45.42.46.46,0,0,0,.91,0,.33.33,0,0,0,0-.15l-.12,0A.3.3,0,0,1,228,155.23Z" transform="translate(-0.19 -7)"/><path class="cls-54" d="M228.39,155l-.09,0a.31.31,0,0,0-.32.29h0a.3.3,0,0,0,.31.29l.12,0a.3.3,0,0,0,.2-.27.29.29,0,0,0-.07-.18A.28.28,0,0,0,228.39,155Z" transform="translate(-0.19 -7)"/><path class="cls-48" d="M222.16,165.9l-.25-.14Z" transform="translate(-0.19 -7)"/><path class="cls-48" d="M222.7,166.08a1.14,1.14,0,0,1-.25-.06A1.14,1.14,0,0,0,222.7,166.08Z" transform="translate(-0.19 -7)"/><path class="cls-48" d="M222.44,166l-.25-.11Z" transform="translate(-0.19 -7)"/><path class="cls-48" d="M225.19,165.21a3.17,3.17,0,0,1-.34.28A3.17,3.17,0,0,0,225.19,165.21Z" transform="translate(-0.19 -7)"/><path class="cls-48" d="M223.31,166.09l-.27,0Z" transform="translate(-0.19 -7)"/><path class="cls-48" d="M225.52,164.85a3.17,3.17,0,0,1-.3.34A3.17,3.17,0,0,0,225.52,164.85Z" transform="translate(-0.19 -7)"/><path class="cls-48" d="M223,166.11l-.25,0Z" transform="translate(-0.19 -7)"/><path class="cls-48" d="M224.35,165.78l-.44.17Z" transform="translate(-0.19 -7)"/><path class="cls-48" d="M225.81,164.42a2.55,2.55,0,0,1-.26.38A2.55,2.55,0,0,0,225.81,164.42Z" transform="translate(-0.19 -7)"/><path class="cls-48" d="M223.83,166a4.37,4.37,0,0,1-.52.12A4.37,4.37,0,0,0,223.83,166Z" transform="translate(-0.19 -7)"/><path class="cls-48" d="M224.82,165.51a3.18,3.18,0,0,1-.4.23A3.18,3.18,0,0,0,224.82,165.51Z" transform="translate(-0.19 -7)"/><path class="cls-48" d="M226.48,160.94a23,23,0,0,0-.7-4.68c-.09-.39-.17-.75-.23-1.1a8.31,8.31,0,0,1,0-3.69,2,2,0,0,1,.51-1h0l0,0a2.21,2.21,0,0,0-2-.05c-.94.55-3.81,3.07-5.42,3.9-1.39.72.38,9.5,3.32,11.42a8,8,0,0,1-2.46-3.62,5.41,5.41,0,0,0,2.42.22c2.35-.3,3.48-2.19,4.35-4.1.43,2.44.45,4.68-.37,6.15a4.34,4.34,0,0,0,.42-1.06A8.5,8.5,0,0,0,226.48,160.94Z" transform="translate(-0.19 -7)"/><path class="cls-49" d="M222.75,166.09h0Z" transform="translate(-0.19 -7)"/><path class="cls-49" d="M222.19,165.91h0Z" transform="translate(-0.19 -7)"/><path class="cls-49" d="M224.85,165.49l0,0Z" transform="translate(-0.19 -7)"/><path class="cls-49" d="M222.45,166h0Z" transform="translate(-0.19 -7)"/><path class="cls-49" d="M224.42,165.74l-.07,0Z" transform="translate(-0.19 -7)"/><path class="cls-49" d="M223,166.11h0Z" transform="translate(-0.19 -7)"/><path class="cls-49" d="M223.91,166l-.08,0Z" transform="translate(-0.19 -7)"/><path class="cls-49" d="M221.91,165.76l0,0Z" transform="translate(-0.19 -7)"/><path class="cls-49" d="M225.82,164.39v0Z" transform="translate(-0.19 -7)"/><path class="cls-49" d="M225.55,164.8l0,0Z" transform="translate(-0.19 -7)"/><path class="cls-49" d="M225.22,165.19l0,0Z" transform="translate(-0.19 -7)"/><path class="cls-48" d="M226.19,158.24c-.87,1.91-2,3.8-4.35,4.1a5.41,5.41,0,0,1-2.42-.22,8,8,0,0,0,2.46,3.62l0,0,.25.14h0l.25.11h0a1.14,1.14,0,0,0,.25.06h.05l.25,0h0l.27,0a4.37,4.37,0,0,0,.52-.12l.08,0,.44-.17.07,0a3.18,3.18,0,0,0,.4-.23l0,0a3.17,3.17,0,0,0,.34-.28l0,0a3.17,3.17,0,0,0,.3-.34l0,0a2.55,2.55,0,0,0,.26-.38v0C226.64,162.92,226.62,160.68,226.19,158.24Z" transform="translate(-0.19 -7)"/><path class="cls-49" d="M226.19,158.24c-.87,1.91-2,3.8-4.35,4.1a5.41,5.41,0,0,1-2.42-.22,8,8,0,0,0,2.46,3.62l0,0,.25.14h0l.25.11h0a1.14,1.14,0,0,0,.25.06h.05l.25,0h0l.27,0a4.37,4.37,0,0,0,.52-.12l.08,0,.44-.17.07,0a3.18,3.18,0,0,0,.4-.23l0,0a3.17,3.17,0,0,0,.34-.28l0,0a3.17,3.17,0,0,0,.3-.34l0,0a2.55,2.55,0,0,0,.26-.38v0C226.64,162.92,226.62,160.68,226.19,158.24Z" transform="translate(-0.19 -7)"/><path class="cls-48" d="M239.13,165.74a3.18,3.18,0,0,1-.4-.23A3.18,3.18,0,0,0,239.13,165.74Z" transform="translate(-0.19 -7)"/><path class="cls-48" d="M237.36,158.24c.87,1.91,2,3.8,4.35,4.1a5.41,5.41,0,0,0,2.42-.22,8,8,0,0,1-2.46,3.62c2.94-1.92,4.71-10.7,3.32-11.42-1.61-.83-4.48-3.35-5.42-3.9a2.24,2.24,0,0,0-2,.07h0l.12.13c.28.36.9,1.51.4,4.41-.07.38-.15.79-.26,1.22s-.23,1-.33,1.53a22.08,22.08,0,0,0-.36,2.78,7.27,7.27,0,0,0,.65,3.82C236.91,162.92,236.94,160.68,237.36,158.24Z" transform="translate(-0.19 -7)"/><path class="cls-48" d="M238.7,165.49a3.17,3.17,0,0,1-.34-.28A3.17,3.17,0,0,0,238.7,165.49Z" transform="translate(-0.19 -7)"/><path class="cls-48" d="M239.64,166l-.44-.17Z" transform="translate(-0.19 -7)"/><path class="cls-48" d="M240.24,166.09a4.37,4.37,0,0,1-.52-.12A4.37,4.37,0,0,0,240.24,166.09Z" transform="translate(-0.19 -7)"/><path class="cls-48" d="M240.51,166.11l-.27,0Z" transform="translate(-0.19 -7)"/><path class="cls-48" d="M238,164.8a2.49,2.49,0,0,1-.25-.38A2.49,2.49,0,0,0,238,164.8Z" transform="translate(-0.19 -7)"/><path class="cls-48" d="M241.64,165.76a2,2,0,0,1-.25.14A2,2,0,0,0,241.64,165.76Z" transform="translate(-0.19 -7)"/><path class="cls-48" d="M241.36,165.91l-.25.11Z" transform="translate(-0.19 -7)"/><path class="cls-48" d="M238.33,165.19l-.3-.34Z" transform="translate(-0.19 -7)"/><path class="cls-48" d="M240.8,166.09l-.25,0Z" transform="translate(-0.19 -7)"/><path class="cls-48" d="M241.1,166a1.14,1.14,0,0,1-.25.06A1.14,1.14,0,0,0,241.1,166Z" transform="translate(-0.19 -7)"/><path class="cls-49" d="M239.2,165.78l-.07,0Z" transform="translate(-0.19 -7)"/><path class="cls-49" d="M239.72,166l-.08,0Z" transform="translate(-0.19 -7)"/><path class="cls-49" d="M240.8,166.09h0Z" transform="translate(-0.19 -7)"/><path class="cls-49" d="M238.73,165.51l0,0Z" transform="translate(-0.19 -7)"/><path class="cls-49" d="M240.55,166.11h0Z" transform="translate(-0.19 -7)"/><path class="cls-49" d="M238,164.85l0,0Z" transform="translate(-0.19 -7)"/><path class="cls-49" d="M241.11,166h0Z" transform="translate(-0.19 -7)"/><path class="cls-49" d="M241.67,165.74l0,0Z" transform="translate(-0.19 -7)"/><path class="cls-49" d="M241.39,165.9h0Z" transform="translate(-0.19 -7)"/><path class="cls-49" d="M238.36,165.21l0,0Z" transform="translate(-0.19 -7)"/><path class="cls-49" d="M237.75,164.42l0,0Z" transform="translate(-0.19 -7)"/><path class="cls-48" d="M241.1,166h0l.25-.11h0a2,2,0,0,0,.25-.14l0,0a8,8,0,0,0,2.46-3.62,5.41,5.41,0,0,1-2.42.22c-2.34-.3-3.48-2.19-4.35-4.1-.42,2.44-.45,4.68.37,6.15l0,0a2.49,2.49,0,0,0,.25.38l0,0,.3.34,0,0a3.17,3.17,0,0,0,.34.28l0,0a3.18,3.18,0,0,0,.4.23l.07,0,.44.17.08,0a4.37,4.37,0,0,0,.52.12l.27,0h0l.25,0h0A1.14,1.14,0,0,0,241.1,166Z" transform="translate(-0.19 -7)"/><path class="cls-49" d="M241.1,166h0l.25-.11h0a2,2,0,0,0,.25-.14l0,0a8,8,0,0,0,2.46-3.62,5.41,5.41,0,0,1-2.42.22c-2.34-.3-3.48-2.19-4.35-4.1-.42,2.44-.45,4.68.37,6.15l0,0a2.49,2.49,0,0,0,.25.38l0,0,.3.34,0,0a3.17,3.17,0,0,0,.34.28l0,0a3.18,3.18,0,0,0,.4.23l.07,0,.44.17.08,0a4.37,4.37,0,0,0,.52.12l.27,0h0l.25,0h0A1.14,1.14,0,0,0,241.1,166Z" transform="translate(-0.19 -7)"/><polyline class="cls-55" points="114.17 82.99 124.63 113.02 125.43 89.76"/><polyline class="cls-55" points="120.52 91.13 132.38 113.24 132.92 97.93"/><polyline class="cls-55" points="163.33 84.41 150.82 113.77 151.63 90.51"/><polyline class="cls-55" points="156.43 92.16 143.06 113.55 143.59 98.23"/><path class="cls-20" d="M149.88,105.41C160,96.57,174.81,82.33,175.2,70.94c.62-17.84-14.76-32.77-34.36-33.33s-36,13.44-36.61,31.29c-.4,11.38,13.42,26.45,22.88,35.85Z" transform="translate(-0.19 -7)"/><path class="cls-7" d="M144.47,105.25c5.45-9,13.48-23.41,13.87-34.8.62-17.84-7.21-32.54-17.5-32.84s-19.13,13.93-19.75,31.77c-.39,11.39,6.61,26.26,11.43,35.53Z" transform="translate(-0.19 -7)"/><path class="cls-56" d="M127.11,104.75l22.77.66-.12,3.4a2.38,2.38,0,0,1-2.55,2.18l-17.82-.51a2.36,2.36,0,0,1-2.4-2.32Z" transform="translate(-0.19 -7)"/><path class="cls-57" d="M149.72,128.58l-24.06-.69a2.74,2.74,0,0,1-2.78-2.7l.09-2.61a2.77,2.77,0,0,1,3-2.53l24.06.69a2.73,2.73,0,0,1,2.78,2.7l-.09,2.61A2.76,2.76,0,0,1,149.72,128.58Z" transform="translate(-0.19 -7)"/><path class="cls-58" d="M124.54,127.86l26.3.76-2.3,10.61a4.63,4.63,0,0,1-4.76,3.44l-13.17-.37a4.55,4.55,0,0,1-4.5-3.71Z" transform="translate(-0.19 -7)"/><path class="cls-59" d="M130.15,132.85a2.48,2.48,0,0,1-2.64,2.27,2.45,2.45,0,0,1-2.49-2.41c0-1.29,2.7-3.84,2.7-3.84S130.2,131.57,130.15,132.85Z" transform="translate(-0.19 -7)"/><path class="cls-59" d="M126.54,127.92c0,.61,1.15,1.88,1.15,1.88S129,128.59,129,128Z" transform="translate(-0.19 -7)"/><path class="cls-59" d="M140.09,133.14a2.48,2.48,0,0,1-2.65,2.26A2.44,2.44,0,0,1,135,133c0-1.29,2.7-3.83,2.7-3.83S140.13,131.85,140.09,133.14Z" transform="translate(-0.19 -7)"/><path class="cls-59" d="M136.48,128.2c0,.61,1.15,1.88,1.15,1.88s1.25-1.2,1.27-1.81Z" transform="translate(-0.19 -7)"/><path class="cls-59" d="M150,133.43a2.47,2.47,0,0,1-2.64,2.26,2.43,2.43,0,0,1-2.48-2.41c0-1.29,2.7-3.83,2.7-3.83S150.07,132.14,150,133.43Z" transform="translate(-0.19 -7)"/><path class="cls-59" d="M146.42,128.49c0,.61,1.14,1.88,1.14,1.88s1.26-1.2,1.28-1.81Z" transform="translate(-0.19 -7)"/><ellipse class="cls-16" cx="134.77" cy="150.79" rx="18.68" ry="4.93"/></g></g></svg>