<?xml version="1.0" encoding="utf-8"?>
<!-- Generator: Adobe Illustrator 22.0.0, SVG Export Plug-In . SVG Version: 6.00 Build 0)  -->
<svg version="1.1" xmlns="http://www.w3.org/2000/svg" xmlns:xlink="http://www.w3.org/1999/xlink" x="0px" y="0px"
	 viewBox="0 0 1902.1 836.7" style="enable-background:new 0 0 1902.1 836.7;" xml:space="preserve">
<style type="text/css">
	.st0{fill:#97DEBE;}
	.st1{fill:#8FC23A;}
	.st2{fill:#80B035;}
	.st3{fill:#537323;}
	.st4{fill:#FFF8D2;}
	.st5{fill:#A1E7F4;}
	.st6{fill:#FFFFFF;}
	.st7{fill:#F0F0ED;}
	.st8{fill:#E65F5B;}
	.st9{fill:#FFF2F4;}
	.st10{fill:#E69B4C;}
	.st11{fill:#E6AA6C;}
	.st12{fill:#5C2D29;}
	.st13{fill:#EDE0DE;}
	.st14{fill:#361A17;}
	.st15{opacity:0.1;fill:#361A17;}
	.st16{fill:#313E5E;}
	.st17{fill:#48631E;}
	.st18{fill:#344716;}
	.st19{fill:#FEFEFF;}
	.st20{fill:#E8595F;}
	.st21{fill:#FFFEFA;}
	.st22{fill:#392A2D;}
	.st23{fill:#FAE7D6;}
	.st24{fill:#B97457;}
	.st25{fill:#FCF0E5;}
	.st26{fill:#ECD5BD;}
	.st27{fill:#14192C;}
	.st28{fill:#96A6C7;}
	.st29{fill:#EDEEEF;}
	.st30{fill:#FEFAF7;}
	.st31{fill:#E4DACE;}
	.st32{fill:#3D3834;}
	.st33{fill:#554E46;}
	.st34{fill:#040701;}
	.st35{fill:#E8E8E8;}
	.st36{fill:#070C02;}
	.st37{fill:#C7B6AC;}
	.st38{fill:#E2D9D4;}
	.st39{fill:#2F2627;}
	.st40{fill:#D6CDCA;}
	.st41{opacity:0.55;fill:#E2D9D4;}
	.st42{fill:#080D0F;}
	.st43{fill:#1A0A14;}
	.st44{fill:#674043;}
	.st45{fill:#111B1D;}
	.st46{fill:#EBEBEB;}
	.st47{opacity:0.55;fill:#2F2627;}
	.st48{fill:#CA6B3E;}
	.st49{opacity:0.45;fill:#CA6B3E;}
	.st50{fill:#402436;}
	.st51{fill:#614A59;}
	.st52{fill:#814218;}
	.st53{fill:#0B0E19;}
	.st54{fill:#FBFBFB;}
	.st55{fill:none;stroke:#361A17;stroke-linecap:round;stroke-linejoin:round;stroke-miterlimit:10;}
	.st56{fill:#A64044;}
	.st57{fill:#252644;}
	.st58{fill:#EAA969;}
</style>
<g id="BACKGROUND">
	<rect x="0.3" y="-0.7" class="st0" width="1901.6" height="836.7"/>
</g>
<g id="OBJECT">
	<g>
		<polygon class="st1" points="1336.1,342 1337.7,674.4 1334.5,673.1 1317.3,666.3 1309.4,663.1 1284.1,653 1276.3,649.9 
			1175.4,609.6 1168.6,606.9 1163.3,604.8 1161.7,272.4 1302.1,328.4 1309.2,331.3 		"/>
		<polygon class="st2" points="1509.8,264.6 1511.4,597 1490.9,606.1 1483.8,609.3 1419.4,638 1411.2,641.6 1373.4,658.5 
			1366.2,661.7 1342.2,672.3 1337.7,674.4 1336.1,342 1365.7,328.8 1372.6,325.7 1435.3,297.8 1443,294.3 1462,285.8 1469.6,282.5 
			1493.7,271.7 1501.2,268.4 		"/>
		<polygon class="st1" points="1684.1,334.2 1685.7,666.6 1609.4,636.1 1602.2,633.2 1535.1,606.4 1527.4,603.4 1511.4,597 
			1509.8,264.6 1534.5,274.4 1541.6,277.3 		"/>
		<path class="st3" d="M1469.6,282.5c-1.1,25-3.9,50-11.2,74.3c-13.7,45.6-43.2,80-76.9,89.6c-15,4.3-30,3.9-44.9,1.5
			c-11.5-1.8-23-4.9-34.3-7.8c-20.9-5.5-42.4-11.2-63.5-9.1c-26.8,2.7-54,18.8-74.9,44.1c-0.4,0.5-0.8,1-1.2,1.5l-0.1-11.9
			c21.5-24.1,48.8-39.3,75.6-42c22.3-2.2,44.4,3.6,65.8,9.3c11,2.9,21.9,5.8,32.5,7.6c14.6,2.5,28.9,2.9,43.2-1.2
			c37.4-10.7,61.6-50.5,71.6-84.2c6.6-22.1,9.5-45.1,10.6-68.3L1469.6,282.5z"/>
		<path class="st3" d="M1684.7,448.9l0,9.2c-25-9.7-54-8-76.7,7.5c-10.8,7.4-20.6,17.5-30,27.3c-13.4,14-27.3,28.4-44.9,35.6
			c-7.3,3-14.6,4.6-22.1,5.2c-21.7,1.7-43.8-5.5-65.3-12.5c-5.5-1.8-11.2-3.6-16.6-5.3c-11.2-3.3-23.2-6-34.2-2.5
			c-7.3,2.3-14.4,7.2-21,14.8c-30.4,34.4-24.7,93.8-0.5,130.2l-7.2,3.2c-25-39.4-30.2-102.4,2.5-139.3c7.6-8.6,15.8-14.3,24.4-17
			c12.7-3.9,25.8-1.1,38,2.5c5.6,1.7,11.3,3.5,16.8,5.3c21,6.8,42.5,13.8,63.1,12.1c6.7-0.5,13.2-2,19.7-4.6
			c16.2-6.7,28.9-19.9,42.4-33.9c9.7-10.1,19.8-20.5,31.2-28.3C1628.5,442,1658.4,439.5,1684.7,448.9z"/>
		<path class="st2" d="M1684.2,354.5l0.1,11.4c-19.5,20.1-46.5,35.7-73.1,36.3c-11,0.2-21.9-2-32.1-7.6
			c-22.6-12.4-39.1-39.7-44-73.1c-2.3-15.7-2.1-31.7-0.6-47l7.1,2.9c-1.3,14-1.4,28.5,0.7,42.7c4.6,30.8,19.5,55.8,40,67
			c32.8,17.9,73.3-1.8,98.9-29.2C1682.3,356.7,1683.2,355.6,1684.2,354.5z"/>
		<path class="st4" d="M1317.3,666.3l-7.9-3.2c-9.2-57.6-21.8-125.6-26.7-139.1c-11.8-32.6-29.9-45.7-50.8-36.8
			c-27.8,11.8-51.2,40.9-68.8,71.6l-0.1-15c17.6-28,39.9-53.2,66.4-64.3c24.9-10.6,46.8,4.5,60.2,41.4
			C1295,535.8,1308.1,607.9,1317.3,666.3z"/>
		<path class="st2" d="M1284.1,653l-7.8-3.1c-6.5-59.6-17.1-128.2-42.5-127.6c-19,0.4-42,42.9-58.5,87.3l-6.7-2.7
			c17-45.9,41.7-92.4,65.2-93C1265.9,513.3,1277.2,587.2,1284.1,653z"/>
		<path class="st2" d="M1309.2,331.3c-3.8,6.7-8.4,12.9-13.5,18.7c-15.8,17.5-36.7,29.7-60.6,35.2c-12,2.8-24.2,3.8-36.1,4.8
			c-9.5,0.8-19.3,1.6-28.7,3.3c-2.6,0.5-5.2,1-8,1.7l0-8.5c2.4-0.6,4.7-1.1,7-1.5c9.8-1.8,19.7-2.6,29.3-3.4c11.6-1,23.7-2,35.2-4.7
			c22.5-5.3,42.2-16.7,56.9-33c4.3-4.8,8.2-10.1,11.5-15.6L1309.2,331.3z"/>
		<path class="st2" d="M1684.9,490.3l0,9c-0.5-0.2-1-0.5-1.5-0.7c-15.1-6.8-37-3.6-46,13.5c-2.1,4-3.5,8.6-4.9,13.5
			c-2.2,7.3-4.4,14.9-9.5,20.8c-7.4,8.7-19.1,12.1-35.8,10.1c-1.6-0.2-3.2-0.4-4.9-0.6c-9.5-1.2-19.3-2.5-27.7,1.4
			c-13.4,6.3-19.7,24.4-20,39.6c-0.1,3.2,0.1,6.3,0.5,9.5l-7.7-3.1c-0.2-2.1-0.2-4.3-0.2-6.5c0.3-18,8.1-39.6,24.7-47.3
			c10.1-4.7,20.9-3.3,31.4-2c1.6,0.2,3.2,0.4,4.8,0.6c14.2,1.6,23.9-0.8,29.6-7.6c3.9-4.6,5.8-10.9,7.8-17.6
			c1.5-5,3.1-10.3,5.6-15.1C1642,487.2,1666.7,482.8,1684.9,490.3z"/>
		<path class="st2" d="M1685.3,576.9l0,9.7c-6.1-4.1-12-6.9-18-8.7c-15.6-4.5-31.8-0.1-41.1,11.2c-3.9,4.7-6.7,10.5-8.6,15.1
			c-3.3,7.6-7.4,19.3-8.2,31.9l-7.2-2.9c1.2-13,5.4-24.8,8.8-32.6c2.2-5.1,5.3-11.7,9.9-17.2c11.2-13.5,30.2-18.8,48.4-13.6
			C1674.6,571.3,1679.9,573.6,1685.3,576.9z"/>
		<path class="st4" d="M1443,294.3c-1.2,15.6-3.2,31.2-6,46.6c-2.4,13.2-7.1,31.4-20.9,37.5c-2.6,1.1-5.4,1.7-8.3,1.8
			c-5.5,0.1-11.3-1.7-16.5-5.5c-5.9-4.3-11.1-10.8-15.8-20.1c-4.2-8.2-7.3-16.9-9.8-25.9l6.9-3.1c2.3,8.6,5.3,16.9,9.3,24.7
			c4.2,8.1,8.5,13.8,13.5,17.3c5.8,4.2,12.7,5.3,18.1,2.9c10.3-4.6,14.2-20,16.3-31.2c2.5-13.8,4.3-27.6,5.6-41.6L1443,294.3z"/>
		<path class="st5" d="M1684.4,394.4l0,8.4c-15.1,2-29.9,7.2-43.3,12.2c-2.4,0.9-4.9,1.9-7.3,2.8c-19.5,7.5-39.8,15.2-60.7,16.4
			c-1,0-1.9,0.1-2.9,0.1c-25.2,0.6-47.2-9.6-59.8-27.7c-0.5-0.8-1.1-1.5-1.6-2.3c-10.8-17-12.9-38.6-14.1-57.6
			c-1.6-24.8-1.9-49.9-1.1-74.9l7.5-3.3c-1,25.8-0.7,51.8,0.9,77.5c0.9,14.6,2.4,30.8,8.3,44.6c1.3,3.1,2.8,6,4.5,8.8
			c11.4,17.9,33,27.9,58,26.5c19.9-1.1,39.7-8.6,58.7-15.9c2.5-0.9,4.9-1.9,7.4-2.8C1652.9,401.7,1668.4,396.4,1684.4,394.4z"/>
		<path class="st5" d="M1684.6,422.3l0,8.3c-13.1-0.5-28.1,1.2-46.6,5.1c-29.8,6.3-52.7,20.4-74.8,34c-17,10.5-33.7,20.7-52.3,26.2
			c-25.7,7.6-55.2,6.2-94.8-15.8c-23.8-13.3-56.6-15.4-79.3,2.8c-3.4,2.7-6.5,5.9-9.4,9.5c-11,14-14.4,50.3-8.5,92.4
			c3.5,25.3,9.9,50.8,18.8,75.2c1.5,4.1,3,8.2,4.6,12.2l-4.6,2.1l-3.2-1.3c-31.3-80.2-32-161.4-12.6-186.1
			c4.4-5.6,9.4-10.2,14.8-13.9c24.8-16.8,58.2-14.1,82.7-0.5c38.6,21.5,66.6,22.6,91.4,14.8c17-5.4,32.5-14.9,48.9-25
			c22.6-13.9,46-28.3,77-34.9C1655.5,423.5,1671,421.9,1684.6,422.3z"/>
		<path class="st4" d="M1490.9,606.1l-7.1,3.2c-6.5-10.3-13.4-20.4-20.6-30c-9.8-13.1-24.8-30.3-42.1-28.2
			c-13.5,1.7-25.4,16.4-27.1,33.5c-1.5,15.5,4.6,32.4,16.3,45.1c2.7,3,5.8,5.8,9.2,8.4l-8.2,3.6c-2.2-1.9-4.2-3.9-6.1-6
			c-13.3-14.5-20.2-33.9-18.5-51.9c2-20.9,16.8-38.9,33.7-41c20.9-2.6,37.7,16.5,48.5,31C1476.5,584.2,1483.9,595,1490.9,606.1z"/>
		<polygon class="st6" points="1161.7,272.4 1161.8,309.1 1336.2,378.7 1336.1,342 		"/>
		<polygon class="st6" points="1163.1,568 1163.3,604.8 1337.7,674.4 1337.5,637.6 		"/>
		<polygon class="st6" points="1194.2,285.4 1161.7,272.4 1163.3,604.8 1195.8,617.8 		"/>
		<polygon class="st7" points="1336.1,342 1336.2,378.7 1509.9,301.3 1509.7,264.6 		"/>
		<polygon class="st7" points="1337.5,637.6 1337.7,674.4 1511.4,597 1511.2,560.2 		"/>
		<polygon class="st6" points="1509.7,264.6 1509.9,301.3 1684.3,370.9 1684.1,334.2 		"/>
		<polygon class="st6" points="1511.2,560.2 1511.4,597 1685.7,666.6 1685.6,629.8 		"/>
		<polygon class="st6" points="1684.1,334.2 1651.6,321.2 1653.2,653.6 1685.7,666.6 		"/>
	</g>
	<g>
		<path class="st8" d="M1652.1,790.9l33.7-236.3c0,0-26.3-25.9-30.4-88.3l-27.7-67.9c0,0,19.1-11.4,34.7,13.7
			c15.6,25.1,22.3,40.7,22.3,40.7l-0.2-76.4l45.4,35.8l48.1,121.5l-32.4,266.4L1652.1,790.9z"/>
		<polygon class="st9" points="1684.5,376.3 1729.1,411.5 1778,533.7 1745.6,800.1 1728.9,801.1 1771.3,535 1721.6,412.7 
			1684.5,382.8 		"/>
		<polygon class="st10" points="1765.1,765.2 1768.2,713.6 1654.5,695.8 1651.6,754.5 		"/>
		<polygon class="st9" points="1768.2,713.6 1759.3,712.1 1755.7,765.2 1765.1,765.2 		"/>
		<polygon class="st11" points="1769.9,835.9 1776.5,753.9 1645.6,725.8 1637.9,835.9 		"/>
		<polygon class="st9" points="1776.5,753.9 1769.9,835.9 1760.3,835.9 1765.5,751.5 		"/>
	</g>
	<g>
		<path class="st8" d="M1217,792.2L1163,558.7c0,0,32.4-29.5,33-92.2l23.9-68.1c0,0-19.6-11.5-33.8,13.7
			c-14.2,25.2-23.5,49.4-23.5,49.4l-0.4-85.2l-42.5,35.3l-42.1,122.6l46.8,267.3L1217,792.2z"/>
		<polygon class="st9" points="1162.2,376.4 1119.6,411.7 1077.5,534.2 1124.3,801.5 1140.9,802.4 1084.3,535.5 1127.1,412.8 
			1162.2,386.6 		"/>
		<polygon class="st10" points="1102.9,766.4 1097,714.7 1206.4,700.5 1214.5,752.7 		"/>
		<polygon class="st9" points="1097,714.7 1105.8,713.2 1112.3,766.4 1102.9,766.4 		"/>
		<polygon class="st11" points="1101.7,835.9 1091,755.1 1219.9,726.8 1233.4,835.9 		"/>
		<polygon class="st9" points="1091,755.1 1101.7,835.9 1110.6,835.9 1101.8,752.7 		"/>
		<g>
			<polygon class="st12" points="1189.5,648.3 1113.1,643.7 1108.2,684.2 1196,688.6 			"/>
			
				<ellipse transform="matrix(0.9725 -0.233 0.233 0.9725 -124.8525 276.9117)" class="st13" cx="1109.8" cy="667" rx="29.4" ry="34.9"/>
			
				<ellipse transform="matrix(0.9725 -0.233 0.233 0.9725 -124.8438 276.8845)" class="st14" cx="1109.8" cy="667" rx="22.2" ry="26.3"/>
		</g>
	</g>
	<ellipse class="st15" cx="1493.9" cy="445.1" rx="27.3" ry="7.9"/>
	<g>
		<g>
			<path class="st16" d="M284.6,234.5c-0.8-15.2-1.8-33.5-1.6-47.1h-0.5c-3.7,12.8-8.3,26.4-13.8,41.5l-19.3,53h-10.7l-17.7-52
				c-5.2-15.4-9.6-29.5-12.6-42.4h-0.3c-0.3,13.6-1.1,31.9-2.1,48.3l-2.9,46.8h-13.4l7.6-109.2h18l18.6,52.8
				c4.5,13.4,8.3,25.4,11,36.8h0.5c2.8-11,6.6-23,11.5-36.8l19.4-52.8h18l6.8,109.2h-13.8L284.6,234.5z"/>
			<path class="st16" d="M379.4,231.3h-42.4v39.4h47.3v11.8h-61.4V173.3h59v11.8h-44.9v34.5h42.4V231.3z"/>
			<path class="st16" d="M459.1,231.3h-42.4v39.4h47.3v11.8h-61.4V173.3h59v11.8h-44.9v34.5h42.4V231.3z"/>
			<path class="st16" d="M505.6,185.3h-33.2v-12h80.8v12h-33.4v97.2h-14.3V185.3z"/>
			<path class="st16" d="M579.4,173.3V219h52.8v-45.7h14.3v109.2h-14.3v-51.2h-52.8v51.2h-14.1V173.3H579.4z"/>
			<path class="st16" d="M688.6,248.1l-11.3,34.3h-14.6l37.1-109.2h17l37.3,109.2H739l-11.7-34.3H688.6z M724.4,237.1l-10.7-31.4
				c-2.4-7.1-4-13.6-5.7-19.9h-0.3c-1.6,6.5-3.4,13.1-5.5,19.8l-10.7,31.6H724.4z"/>
			<path class="st16" d="M785.5,282.5l-35.6-109.2h15.2l17,53.8c4.7,14.7,8.7,28,11.7,40.8h0.3c3.1-12.6,7.6-26.4,12.5-40.7
				l18.5-53.9h15.1l-39,109.2H785.5z"/>
		</g>
	</g>
	<polygon class="st17" points="1598.5,532.9 1580.8,532.9 1589.6,511.6 1598.5,490.3 1607.3,511.6 1616.2,532.9 	"/>
	<polygon class="st18" points="1606.1,364.3 1588.4,364.3 1597.2,343 1606.1,321.7 1614.9,343 1623.8,364.3 	"/>
	<polygon class="st17" points="1365.7,392.2 1348,392.2 1356.8,370.9 1365.7,349.6 1374.5,370.9 1383.3,392.2 	"/>
	<polygon class="st17" points="1226.4,548.3 1208.7,548.3 1217.6,527 1226.4,505.7 1235.2,527 1244.1,548.3 	"/>
	<polygon class="st18" points="1275.5,455.5 1257.8,455.5 1266.7,434.2 1275.5,412.9 1284.4,434.2 1293.2,455.5 	"/>
	<path class="st19" d="M1490,89.6c1.1,0,2.1,0.3,3,0.7c-0.3-1.2-0.4-2.5-0.4-3.8c0-9.3,7.5-16.8,16.8-16.8c9.3,0,16.8,7.5,16.8,16.8
		c0,0.3,0,0.6,0,0.8c1.4-0.9,3-1.4,4.7-1.4c4.8,0,8.7,3.9,8.7,8.7c0,4.8-3.9,8.7-8.7,8.7H1490c-3.8,0-6.8-3.1-6.8-6.8
		C1483.1,92.6,1486.2,89.6,1490,89.6z"/>
	<path class="st19" d="M1219.3,141.7c1.9,0,3.8,0.5,5.4,1.3c-0.5-2.2-0.8-4.5-0.8-6.9c0-16.7,13.5-30.2,30.2-30.2
		c16.7,0,30.2,13.5,30.2,30.2c0,0.5,0,1,0,1.5c2.4-1.6,5.3-2.5,8.4-2.5c8.6,0,15.6,7,15.6,15.6c0,8.6-7,15.6-15.6,15.6h-73.4
		c-6.8,0-12.3-5.5-12.3-12.3C1207,147.3,1212.5,141.7,1219.3,141.7z"/>
	<path class="st19" d="M1617.5,205.3c-1.6,0-3.1,0.4-4.5,1c0.4-1.8,0.7-3.7,0.7-5.7c0-13.8-11.2-25-25-25c-13.8,0-25,11.2-25,25
		c0,0.4,0,0.8,0,1.2c-2-1.3-4.4-2-6.9-2c-7.1,0-12.9,5.8-12.9,12.9c0,7.1,5.8,12.9,12.9,12.9h60.8c5.6,0,10.2-4.6,10.2-10.2
		S1623.1,205.3,1617.5,205.3z"/>
	<ellipse class="st15" cx="1249" cy="403.3" rx="20.7" ry="7.3"/>
	<ellipse class="st15" cx="1287.7" cy="574" rx="35.1" ry="10.2"/>
	<g>
		<path class="st20" d="M1525.4,357.7c0.6,11.8-12.4,36.6-21.2,52c-3.7,6.4-12.7,6.9-17,0.8c-10.3-14.5-25.6-37.9-26.1-49.7
			c-0.9-17.8,12.8-32.9,30.6-33.7C1509.4,326.2,1524.5,339.9,1525.4,357.7z"/>
		
			<ellipse transform="matrix(0.2944 -0.9557 0.9557 0.2944 710.2829 1680.5283)" class="st12" cx="1493.2" cy="359.3" rx="21.6" ry="21.6"/>
		
			<ellipse transform="matrix(0.6718 -0.7407 0.7407 0.6718 223.9037 1223.894)" class="st21" cx="1493.2" cy="359.3" rx="17.1" ry="17.1"/>
	</g>
	<path class="st22" d="M1504.9,349.9c1.2,2.6,0.7,5.4-1.7,7.7c-2.4,2.2-7.3-6.1-9-6.4c0,0,5.7-5.3,6.5-6.8"/>
	<path class="st23" d="M1500.6,346.8c0.7-0.8,2.3,1.2,3.3,2.3c1,1.1,0.5,2.3-1.3,3.2c-1.8,0.9-5.7-2.5-7.1-2.7
		C1495.5,349.6,1500,347.4,1500.6,346.8"/>
	<path class="st24" d="M1500.8,349.4c-0.4,0.7-0.7,1.4-1.2,2c-0.8,1-1.7,1.8-2.7,2.5c1.2,1.3,2.6,3,3.9,3.7c0.9-2.3,1.7-4.7,1-7.1
		C1501.7,350.1,1501.4,348.3,1500.8,349.4"/>
	<path class="st22" d="M1479.8,349.9c-1.2,2.6-0.7,5.4,1.7,7.7c2.4,2.2,7.3-6.1,9-6.4c0,0-5.7-5.3-6.5-6.8"/>
	<path class="st23" d="M1484.2,347c-0.8-1.5-2.4,2.4-3.4,4.5c-1,2.1-0.5,4.4,1.4,6.2c1.9,1.8,5.9-4.9,7.3-5.2
		C1489.5,352.4,1484.8,348.2,1484.2,347"/>
	<path class="st24" d="M1483.8,349.4c0.4,0.7,0.7,1.4,1.2,2c0.8,1,1.7,1.8,2.7,2.5c-1.2,1.3-2.6,3-3.9,3.7c-0.9-2.3-1.7-4.7-1-7.1
		C1483,350.1,1483.3,348.3,1483.8,349.4"/>
	<path class="st22" d="M1481.1,366.4c3.9-1.6,6.8-3.2,11.4-2.3c3.4,0.6,7.2,2,10.2,3.9c1.3-1.7,2.3-3.3,2.3-4.4
		c-0.1-3.1-5.3-14.5-12.6-13.4c0,0-2.9-0.9-4.5,0.8c-1.6,1.6-8.4,8.6-7.6,13C1480.4,364.9,1480.7,365.7,1481.1,366.4z"/>
	<path class="st25" d="M1495.4,372.6c2.1-1.2,5.5-2.1,7.4-6c-0.4-0.6-0.7-1.1-0.9-1.9c-0.4-1.9-0.5-4.4-1.4-4.9
		c-0.9-0.5-4.2-5-4.6-5.2c-0.3-0.2-1.2-0.5-1.8,0.2c-0.6,0.7-1.3,1.1-2,1c-0.7-0.1-0.7,0-2-1.2c-1.3-1.2-4.8,2.9-6.3,4.5
		c-1.1,1.2-0.1,3.2-1.8,5.2c-0.7,0.8-1,1.4-1.1,2c1.4,3.2,4.2,3.8,6.5,6"/>
	<g>
		<path class="st22" d="M1491.9,358.8c0.1-1-0.2-2.7,0-3.6c-0.2-0.4-0.4-0.3-0.9-0.7c-0.1-0.1-0.1-0.1-0.2-0.1
			c0.3,1,0.7,1.6,0.7,2.7c0,4,0.3,3.7,0.5,3.5C1492.1,360.3,1491.9,359.2,1491.9,358.8z"/>
		<path class="st22" d="M1494.5,354.5c-0.5,0.4-0.7,0.3-0.9,0.7c0.1,0.9-0.1,2.6,0,3.6c0,0.4-0.2,1.5,0.1,1.8
			c0.1,0.2,0.5,0.4,0.5-3.5c0-1.1,0.4-1.7,0.7-2.7C1494.7,354.4,1494.6,354.5,1494.5,354.5z"/>
	</g>
	<path class="st26" d="M1496.1,372.6c2.2-1.2,5.8-2.1,7.7-6c-0.2-0.3-0.5-0.7-0.7-1.1c-0.7,0.4-1.5,0.6-2.2,0.8
		c-2.4,0.6-3.4,1.1-4.4,3.4c-0.4,0.9-1.1,2-2.2,2.2c-2.1,0.5-4.8,0-5.7-2.3c-1-2.5-1.1-3.6-3.8-4.8c-0.8-0.3-1.5-0.7-2.1-1.1
		c-0.1,0.2-0.2,0.3-0.4,0.5c-0.7,0.8-1,1.4-1.2,2c1.4,3.2,4.3,3.8,6.8,6"/>
	<g>
		<path class="st27" d="M1494.7,361c0,0,0.1-2.7,1.5-2.7c1.4-0.1,2.1,0.8,2.8,0.7c0,0-0.1,0.2-0.1,0.2c-0.1,0.2-0.3,0.4-0.4,0.5
			c-0.5,0.5-1.1,1-1.8,0.9C1495.2,360.3,1495,361.1,1494.7,361z"/>
		<path class="st28" d="M1497.6,359.2c0.1,0.6-0.3,1.1-0.9,1.2c-0.6,0.1-1.1-0.3-1.2-0.9c-0.1-0.6,0.3-1.1,0.9-1.2
			C1497,358.3,1497.6,358.7,1497.6,359.2z"/>
		<path class="st27" d="M1497.1,359.3c0,0.3-0.2,0.5-0.4,0.6c-0.3,0-0.5-0.2-0.6-0.4c0-0.3,0.2-0.5,0.4-0.6
			C1496.8,358.8,1497.1,359,1497.1,359.3z"/>
		<path class="st29" d="M1497.3,358.7c0,0.2-0.1,0.3-0.3,0.4c-0.2,0-0.3-0.1-0.4-0.3c0-0.2,0.1-0.3,0.3-0.4
			C1497.1,358.4,1497.2,358.6,1497.3,358.7z"/>
	</g>
	<g>
		<path class="st27" d="M1490.6,361.1c0,0-0.1-2.7-1.5-2.8c-1.4-0.1-2.1,0.8-2.8,0.6c0,0,0.1,0.2,0.1,0.2c0.1,0.2,0.3,0.4,0.4,0.5
			c0.5,0.5,1.1,1,1.8,0.9C1490.1,360.3,1490.3,361.2,1490.6,361.1z"/>
		<path class="st28" d="M1490,359.6c-0.1,0.6-0.6,1-1.2,0.9s-1-0.6-0.9-1.2c0.1-0.6,0.6-1,1.2-0.9S1490,359,1490,359.6z"/>
		<path class="st27" d="M1489.4,359.5c0,0.3-0.3,0.5-0.6,0.4c-0.3,0-0.5-0.3-0.4-0.6c0-0.3,0.3-0.5,0.6-0.4
			C1489.3,358.9,1489.5,359.2,1489.4,359.5z"/>
		<path class="st29" d="M1489.7,359c0,0.2-0.2,0.3-0.4,0.3c-0.2,0-0.3-0.2-0.3-0.4c0-0.2,0.2-0.3,0.4-0.3
			C1489.6,358.6,1489.8,358.8,1489.7,359z"/>
	</g>
	<path class="st30" d="M1493.9,361.2c-0.6-0.5-1.5-0.5-2.1,0c-1.4,1.2-3.6,3.2-3.8,4.6c-0.3,1.9,0.7,4.2,4.6,2.8
		c0,0,3.7,1.6,4.7-1.2C1498.2,365.1,1495.7,362.7,1493.9,361.2z"/>
	<path class="st27" d="M1492.5,368.3C1492.5,368.3,1492.5,368.3,1492.5,368.3C1492.5,368.3,1492.5,368.3,1492.5,368.3
		C1492.5,368.3,1492.5,368.3,1492.5,368.3C1492.5,368.3,1492.5,368.3,1492.5,368.3c-0.5,0.2-3,1.6-4.1-0.9c0,0,0,2,2.2,2.1
		c1.4,0.1,1.8-0.2,1.9-0.5c0.1,0.3,0.5,0.5,1.9,0.5c2.2-0.1,2.2-2.1,2.2-2.1C1495.5,369.9,1492.9,368.5,1492.5,368.3z"/>
	<path class="st27" d="M1492.4,368.6c0,0-2.5-1.1-2.3-2.7c0.2-1.6,2.1-1.4,2.6-1.4c0.4,0,2.6,0.3,2.3,1.7S1493.2,368.3,1492.4,368.6
		z"/>
	<g>
		<path class="st20" d="M1275.8,341.3c0.5,9.8-10.3,30.5-17.6,43.3c-3,5.3-10.6,5.7-14.2,0.7c-8.5-12.1-21.3-31.6-21.8-41.4
			c-0.7-14.8,10.7-27.4,25.5-28.1C1262.5,315.1,1275,326.5,1275.8,341.3z"/>
		
			<ellipse transform="matrix(0.2944 -0.9557 0.9557 0.2944 553.8901 1435.3289)" class="st12" cx="1249" cy="342.6" rx="18" ry="18"/>
		
			<ellipse transform="matrix(0.6718 -0.7407 0.7407 0.6718 156.1149 1037.5061)" class="st21" cx="1249" cy="342.6" rx="14.3" ry="14.3"/>
	</g>
	<g>
		<path class="st20" d="M1648.2,442.3c0.9,18.2-19.1,56.6-32.7,80.4c-5.7,9.9-19.7,10.6-26.3,1.3c-15.9-22.4-39.5-58.6-40.4-76.8
			c-1.3-27.5,19.8-50.8,47.3-52.1C1623.5,393.6,1646.8,414.8,1648.2,442.3z"/>
		
			<ellipse transform="matrix(0.2944 -0.9557 0.9557 0.2944 704.3046 1839.0521)" class="st12" cx="1597.6" cy="442.6" rx="37.2" ry="37.2"/>
		
			<ellipse transform="matrix(0.9988 -4.867862e-02 4.867862e-02 0.9988 -19.656 78.2905)" class="st21" cx="1597.5" cy="442.7" rx="31.8" ry="31.8"/>
	</g>
	<g>
		<path class="st20" d="M1327.1,476.7c0.7,15.3-16.1,47.6-27.5,67.6c-4.8,8.3-16.5,8.9-22.1,1.1c-13.3-18.8-33.2-49.3-34-64.6
			c-1.1-23.1,16.7-42.7,39.8-43.8C1306.3,435.8,1325.9,453.6,1327.1,476.7z"/>
		
			<ellipse transform="matrix(0.2944 -0.9557 0.9557 0.2944 453.2715 1562.464)" class="st12" cx="1284.7" cy="474.3" rx="33.2" ry="33.2"/>
		
			<ellipse transform="matrix(0.6718 -0.7407 0.7407 0.6718 70.9422 1106.951)" class="st21" cx="1284.7" cy="473.4" rx="26.4" ry="26.4"/>
	</g>
	<g>
		<path class="st31" d="M1255.4,350c-0.1,0.1-0.2,0.2-0.3,0.2C1255.2,350.2,1255.3,350.1,1255.4,350z"/>
		<path class="st31" d="M1255.1,350.3c-0.1,0.1-0.2,0.1-0.3,0.2C1254.8,350.4,1254.9,350.3,1255.1,350.3z"/>
		<path class="st31" d="M1256.1,349.5c-0.1,0.1-0.1,0.1-0.2,0.2C1256,349.6,1256,349.6,1256.1,349.5z"/>
		<path class="st31" d="M1254.6,350.6c-0.1,0.1-0.2,0.1-0.3,0.2C1254.4,350.7,1254.5,350.6,1254.6,350.6z"/>
		<path class="st31" d="M1255.8,349.8c-0.1,0.1-0.2,0.1-0.2,0.2C1255.6,349.9,1255.7,349.8,1255.8,349.8z"/>
		<path class="st31" d="M1252,351.8c-0.1,0-0.2,0.1-0.3,0.1C1251.8,351.8,1251.9,351.8,1252,351.8z"/>
		<path class="st31" d="M1260.3,341.7c-1.1-0.9-3.4-2.5-4.2-4.2c-0.8-1.7-1.8-3.7-1.2-3.3c0,0,0.1,0,0.3,0c-2.4-1.4-3-0.1-5-0.8
			c0,0-1.9-0.1-3.8,0.3c0,0,0,0,0,0c0.5,0.5-2.7,1.9-4.6,3.9c-1.8,1.8-1,5.6-2.2,5.5c0.1,0.5,0.2,1.1,0.4,1.6c1.3,3.8,5.2,6.4,8,7.2
			c-1.3-0.4-2.9-1.2-4.3-2.3c-1.4-2.1-1.4-4.3-0.6-5.4c0-0.1,0.1-0.1,0.2-0.2c-0.9-0.6-1.7-2.7-0.6-3.5c1.1-0.8,2.6-2.2,3.3-2.9
			c0.3-0.3,0.7-0.3,0.9,0c1,1,0.7,2.3,0.2,3.3c0.6-0.4,1.3-0.6,1.9-0.8c1.1-0.3,2.7,0.2,3.9,0.8c-0.5-0.9-0.9-2.2,0.1-3.3
			c0.2-0.3,0.7-0.3,0.9,0c0.7,0.7,2.3,2.1,3.4,2.8c1.1,0.8,0.4,3-0.6,3.5c0.4,0.5,0.6,1.1,0.8,1.6c0.5,1.4,0,3-1.2,4
			c1.1-0.9,2-1.8,2.3-2.2c0.6-0.6,2-2.8,2.1-5.3C1260.5,341.8,1260.4,341.7,1260.3,341.7z"/>
		<path class="st31" d="M1250.1,352.1c-0.1,0-0.2,0-0.3,0C1249.9,352.2,1250,352.1,1250.1,352.1z"/>
		<path class="st31" d="M1254.2,350.8c-0.1,0-0.2,0.1-0.3,0.1C1254,350.9,1254.1,350.8,1254.2,350.8z"/>
		<path class="st31" d="M1251,352c-0.1,0-0.2,0-0.4,0.1C1250.8,352.1,1250.9,352,1251,352z"/>
		<path class="st31" d="M1249.6,352.2c-0.2,0-0.3,0-0.5,0C1249.3,352.1,1249.5,352.2,1249.6,352.2z"/>
		<path class="st31" d="M1248.6,352c-0.2,0-0.4-0.1-0.6-0.1C1248.2,352,1248.4,352,1248.6,352z"/>
		<path class="st31" d="M1251.6,351.9c-0.1,0-0.3,0.1-0.4,0.1C1251.3,352,1251.4,351.9,1251.6,351.9z"/>
		<path class="st31" d="M1249.2,352.1c-0.2,0-0.4,0-0.6-0.1C1248.8,352.1,1249,352.1,1249.2,352.1z"/>
		<path class="st31" d="M1250.5,352.1c-0.1,0-0.2,0-0.3,0C1250.3,352.1,1250.4,352.1,1250.5,352.1z"/>
		<path class="st31" d="M1253.4,351.2c-0.1,0.1-0.3,0.1-0.4,0.2C1253.2,351.3,1253.3,351.3,1253.4,351.2z"/>
		<path class="st31" d="M1252.5,351.6c-0.1,0-0.2,0.1-0.3,0.1C1252.3,351.7,1252.4,351.7,1252.5,351.6z"/>
		<path class="st31" d="M1252.9,351.5c-0.1,0-0.2,0.1-0.3,0.1C1252.7,351.5,1252.8,351.5,1252.9,351.5z"/>
		<path class="st31" d="M1253.8,351c-0.1,0.1-0.2,0.1-0.3,0.2C1253.6,351.1,1253.7,351.1,1253.8,351z"/>
		<path class="st32" d="M1241.7,337.5c1.9-2,5.1-3.4,4.6-3.9c0,0,0,0,0,0c0,0-1.4-0.6-3.2-0.2c-1.8,0.4-4.4,0.2-5.1,0.2
			c-0.7-0.1-2.2,1.1-2.5,3.4c-0.3,2.4,1.8,4.9,3.6,5.9c0.2,0.1,0.3,0.1,0.4,0.1C1240.8,343.1,1240,339.3,1241.7,337.5z"/>
		<path class="st32" d="M1261.7,334.1c-0.6-0.4-1.4,0.1-3,0c-1.2,0-2.9-0.1-3.5-0.1c-0.2,0-0.3,0-0.3,0c-0.6-0.4,0.4,1.7,1.2,3.3
			c0.8,1.7,3.1,3.4,4.2,4.2c0.1,0.1,0.2,0.2,0.3,0.3c0.8,1,0.8,2.4,2.6-1.6C1265,336.2,1262.3,334.5,1261.7,334.1z"/>
		<path class="st32" d="M1253.6,341.3c-0.1-0.2-0.2-0.5-0.2-0.7c0-0.8,0.6-1.5,1.4-1.5c0.8,0,1.5,0.6,1.5,1.4s-0.6,1.5-1.4,1.5
			c-0.1,0-0.1,0-0.2,0c0.9,0.6,1.5,1.3,2,2c1-0.6,1.7-2.8,0.6-3.5c-1.1-0.7-2.6-2.1-3.4-2.8c-0.3-0.2-0.7-0.2-0.9,0
			c-1,1.1-0.6,2.4-0.1,3.3C1253.1,341,1253.3,341.1,1253.6,341.3C1253.6,341.2,1253.6,341.2,1253.6,341.3z"/>
		<path class="st33" d="M1256.3,340.5c0-0.8-0.7-1.4-1.5-1.4c-0.8,0-1.4,0.7-1.4,1.5c0,0.3,0.1,0.5,0.2,0.7c0.4,0.2,0.8,0.4,1.1,0.7
			c0.1,0,0.1,0,0.2,0C1255.6,341.9,1256.3,341.3,1256.3,340.5z M1254,340.5c0-0.4,0.3-0.8,0.7-0.8c0,0,0,0,0,0c0,0,0,0,0,0
			c0-0.3,0.2-0.5,0.5-0.5c0.3,0,0.5,0.2,0.5,0.5c0,0.2-0.1,0.4-0.3,0.5c0,0.1,0.1,0.2,0.1,0.3c0,0.4-0.3,0.8-0.7,0.8
			C1254.4,341.3,1254.1,340.9,1254,340.5z"/>
		<path class="st34" d="M1255.6,340.5c0-0.1,0-0.2-0.1-0.3c-0.1,0-0.1,0-0.2,0c-0.3,0-0.5-0.2-0.5-0.5c0,0,0,0,0,0
			c-0.4,0-0.8,0.4-0.7,0.8c0,0.4,0.4,0.8,0.8,0.7C1255.2,341.2,1255.6,340.9,1255.6,340.5z"/>
		<path class="st35" d="M1255.3,340.2c0.1,0,0.1,0,0.2,0c0.2-0.1,0.3-0.3,0.3-0.5c0-0.3-0.2-0.5-0.5-0.5c-0.3,0-0.5,0.2-0.5,0.5
			c0,0,0,0,0,0C1254.8,340,1255.1,340.2,1255.3,340.2z"/>
		<path class="st32" d="M1245.4,342.1c-0.1,0-0.2,0-0.3,0c-0.8,0-1.5-0.6-1.5-1.4c0-0.8,0.6-1.5,1.4-1.5c0.8,0,1.5,0.6,1.5,1.4
			c0,0.3-0.1,0.5-0.2,0.8c0.3-0.2,0.5-0.3,0.8-0.5c0.5-0.9,0.8-2.2-0.2-3.3c-0.3-0.3-0.7-0.2-0.9,0c-0.7,0.7-2.2,2.2-3.3,2.9
			c-1.1,0.8-0.3,2.9,0.6,3.5C1243.7,343.5,1244.5,342.7,1245.4,342.1z"/>
		<path class="st33" d="M1245.1,339.2c-0.8,0-1.4,0.7-1.4,1.5c0,0.8,0.7,1.4,1.5,1.4c0.1,0,0.2,0,0.3,0c0.3-0.2,0.6-0.5,1-0.7
			c0.1-0.2,0.2-0.5,0.2-0.8C1246.5,339.8,1245.9,339.2,1245.1,339.2z M1245.8,340.6c0,0.4-0.3,0.8-0.7,0.8c-0.4,0-0.8-0.3-0.8-0.7
			c0-0.4,0.3-0.8,0.7-0.8c0,0,0,0,0,0c0,0,0,0,0,0c0-0.3,0.2-0.5,0.5-0.5c0.3,0,0.5,0.2,0.5,0.5c0,0.2-0.1,0.4-0.3,0.5
			C1245.8,340.4,1245.8,340.5,1245.8,340.6z"/>
		<path class="st34" d="M1245.1,339.9C1245.1,339.9,1245.1,339.9,1245.1,339.9c-0.4,0-0.8,0.4-0.8,0.8c0,0.4,0.4,0.8,0.8,0.7
			c0.4,0,0.8-0.4,0.7-0.8c0-0.1,0-0.2-0.1-0.3c-0.1,0-0.1,0-0.2,0C1245.3,340.4,1245.1,340.2,1245.1,339.9z"/>
		<path class="st35" d="M1246.1,339.9c0-0.3-0.2-0.5-0.5-0.5c-0.3,0-0.5,0.2-0.5,0.5c0,0,0,0,0,0c0,0.3,0.2,0.5,0.5,0.5
			c0.1,0,0.1,0,0.2,0C1246,340.3,1246.1,340.1,1246.1,339.9z"/>
		<path class="st32" d="M1257.4,345.4c-0.2-0.5-0.4-1-0.8-1.6c-0.5-0.7-1.1-1.3-2-2c-0.3-0.2-0.7-0.5-1.1-0.7c0,0,0,0,0,0
			c-0.2-0.1-0.5-0.2-0.7-0.4c-1.2-0.5-2.7-1-3.9-0.8c-0.6,0.1-1.2,0.4-1.9,0.8c-0.3,0.1-0.5,0.3-0.8,0.5c-0.3,0.2-0.6,0.5-1,0.7
			c-0.9,0.7-1.6,1.4-2.1,2c-0.1,0.1-0.1,0.1-0.2,0.2c-0.9,1.1-0.9,3.2,0.6,5.4c1.4,1.1,3,1.9,4.3,2.3c0,0,0,0,0,0
			c0.2,0.1,0.4,0.1,0.6,0.1c0,0,0,0,0,0c0.2,0,0.4,0.1,0.6,0.1c0.2,0,0.3,0,0.5,0c0,0,0.1,0,0.1,0c0.1,0,0.2,0,0.3,0
			c0.1,0,0.1,0,0.2,0c0.1,0,0.2,0,0.3,0c0.1,0,0.1,0,0.2,0c0.1,0,0.2,0,0.4-0.1c0,0,0.1,0,0.1,0c0.1,0,0.3-0.1,0.4-0.1
			c0,0,0.1,0,0.1,0c0.1,0,0.2-0.1,0.3-0.1c0.1,0,0.1,0,0.2-0.1c0.1,0,0.2-0.1,0.3-0.1c0.1,0,0.1,0,0.2-0.1c0.1,0,0.2-0.1,0.3-0.1
			c0,0,0.1,0,0.1-0.1c0.1-0.1,0.3-0.1,0.4-0.2c0,0,0,0,0.1,0c0.1-0.1,0.2-0.1,0.3-0.2c0,0,0.1,0,0.1-0.1c0.1,0,0.2-0.1,0.3-0.1
			c0,0,0.1-0.1,0.1-0.1c0.1-0.1,0.2-0.1,0.3-0.2c0,0,0.1-0.1,0.1-0.1c0.1-0.1,0.2-0.1,0.3-0.2c0,0,0,0,0,0c0.1-0.1,0.2-0.2,0.3-0.2
			c0,0,0.1,0,0.1-0.1c0.1-0.1,0.2-0.1,0.2-0.2c0,0,0.1-0.1,0.1-0.1c0.1-0.1,0.1-0.1,0.2-0.2c0,0,0,0,0.1-0.1c0,0,0,0,0,0
			C1257.4,348.5,1257.9,346.9,1257.4,345.4z M1251,341.8c0.3,0,0.6,0.4,0.6,0.9c0,0.5-0.3,0.9-0.6,0.9c-0.3,0-0.6-0.4-0.6-0.9
			C1250.4,342.2,1250.7,341.8,1251,341.8z M1248.6,341.8c0.3,0,0.6,0.4,0.6,0.9c0,0.5-0.3,0.9-0.6,0.9c-0.3,0-0.6-0.4-0.6-0.9
			C1248,342.3,1248.2,341.8,1248.6,341.8z M1248.3,348c-1.2,0.3-2.9,0.6-4.6,0.2c0,0,2,0.1,3.6-0.9c1.6-1,2.6-2.7,2.4-5.9
			c0,0,0.1-0.4,0.3,0c0,0-0.3,4.6,1.8,5.8c2.2,1.2,3.9,0.9,3.9,0.9s-1.2,1-4.5-0.1C1250.4,347.8,1249.3,347.8,1248.3,348z"/>
		<path class="st36" d="M1248.6,343.7c0.3,0,0.6-0.4,0.6-0.9c0-0.5-0.3-0.9-0.6-0.9c-0.3,0-0.6,0.4-0.6,0.9
			C1248,343.3,1248.3,343.7,1248.6,343.7z"/>
		<path class="st36" d="M1251,343.6c0.3,0,0.6-0.4,0.6-0.9c0-0.5-0.3-0.9-0.6-0.9c-0.3,0-0.6,0.4-0.6,0.9
			C1250.4,343.2,1250.7,343.6,1251,343.6z"/>
		<path class="st36" d="M1255.8,348.2c0,0-1.8,0.3-3.9-0.9c-2.2-1.2-1.8-5.8-1.8-5.8c-0.3-0.4-0.3,0-0.3,0c0.2,3.2-0.8,4.9-2.4,5.9
			c-1.6,1-3.6,0.9-3.6,0.9c1.7,0.4,3.5,0.1,4.6-0.2c1-0.3,2.1-0.2,3,0.1C1254.6,349.1,1255.8,348.2,1255.8,348.2z"/>
	</g>
	<g>
		<path class="st37" d="M1275.8,487.3c0-0.2,0-0.3,0-0.5c0-0.1,0-0.2,0-0.3c0-0.2,0-0.3-0.1-0.5c0-0.1,0-0.1,0-0.2c0,0,0-0.1,0-0.1
			c0,0,0,0,0,0c0.1,0.7,0.2,1.5,0.2,2.4c0-0.2,0-0.4,0-0.6C1275.9,487.4,1275.9,487.4,1275.8,487.3z"/>
		<path class="st37" d="M1283.5,488.6c-1,1.3-6.2,3.4-7.4,0.6c0,0,0-0.1,0-0.1c0,0,0,0,0,0c0-0.1,0-0.1-0.1-0.2
			c0.6,2.3,3.3,3.2,5.7,2.6c0.5-0.1,1.8-0.2,2.1-0.1c1.3,0.3,2.7,0.5,4.1,0.1c0.6-0.1,1.7-0.7,2.5-1.6
			C1288.5,491.4,1284.4,489.7,1283.5,488.6z"/>
		<path class="st37" d="M1276,488.7c0-0.1,0-0.1,0-0.2C1276,488.6,1276,488.7,1276,488.7z"/>
		<path class="st38" d="M1275.1,483.2c0,0,0-0.1,0-0.1C1275,483.1,1275.1,483.2,1275.1,483.2z"/>
		<path class="st38" d="M1275.6,485.2c0-0.1,0-0.1,0-0.2C1275.6,485.1,1275.6,485.2,1275.6,485.2z"/>
		<path class="st38" d="M1274.9,482.6c0-0.1,0-0.1-0.1-0.2C1274.8,482.5,1274.8,482.5,1274.9,482.6z"/>
		<path class="st38" d="M1274.4,481.3c0-0.1-0.1-0.1-0.1-0.2C1274.3,481.2,1274.3,481.3,1274.4,481.3z"/>
		<path class="st38" d="M1274.6,482c0-0.1,0-0.1-0.1-0.2C1274.6,481.8,1274.6,481.9,1274.6,482z"/>
		<path class="st38" d="M1275.3,483.9c0,0,0-0.1,0-0.1C1275.2,483.8,1275.3,483.8,1275.3,483.9z"/>
		<path class="st38" d="M1275.4,484.5c0,0,0-0.1,0-0.1C1275.4,484.4,1275.4,484.5,1275.4,484.5z"/>
		<path class="st38" d="M1297,473.9c-0.7-1.9-1.7-3.8-2.9-5.6c-0.1,0-0.2-0.1-0.2-0.1c-0.2-0.2-0.3-0.4-0.3-0.7
			c-0.2-0.3-0.4-0.6-0.6-0.9c-0.1,0-0.1,0-0.2,0c0-0.1,0.1-0.1,0.1-0.2c-1.8-2.7-2.6-5.7-3.2-8.7c-1.7-0.6-3.2-0.8-4-0.9
			c0,0-7.2,0.4-10.7,2.2c0,0,0,0,0,0c0,0,0,0,0,0c0.6-0.3,1.3-0.6,2-0.8c-0.5,3.8-2.6,7.4-4.1,11c-0.6,1.5-1.1,3.1-1.1,4.8
			c0,0.8,0.1,1.7,0.2,2.6c-0.9-1.9-1.1-4.5-0.9-7.1c0,0,0,0.1,0,0.1c-0.2,2.6-0.1,5.2,0.9,7.1c0,0.1,0.1,0.2,0.1,0.2
			c1.6-3.5,5.8-5.7,6.7-0.8c0.3,1.3,0.5,2.5,0.9,3.6c2.3-1.4,5.8-1.1,7.6,0.4c1.1-2.5,1.5-5.5,4.5-6.3c2.3-0.6,3.7,1.3,4.3,2.9
			c0.2-0.5,0.4-1.1,0.6-1.7C1296.8,474.5,1297.1,474.4,1297,473.9z M1278.2,457.9c0.9-0.2,1.9-0.4,2.8-0.6c0,0.1,0,0.1,0,0.2
			c0.1,1.1-1.2,2-2.2,1.6c-0.2-0.1-0.4-0.2-0.5-0.3c-0.1-0.2-0.2-0.4-0.2-0.7C1278.2,458.1,1278.2,458,1278.2,457.9z M1275.4,465.1
			c0.2-0.5,0.7-0.8,1.2-0.6c0.2,0.1,0.3,0.2,0.4,0.3c0.5,0.5,1.1,1.2,0.8,1.9c-0.1,0.3-0.3,0.5-0.5,0.7c-0.5,0.5-1.2,0.8-1.9,0.7
			c0.1-0.5,0-1,0-1.5C1275.3,466,1275.2,465.5,1275.4,465.1z M1278.5,473.5c-2.1,0.1-3.7-3-3.7-3s1.4-2.3,3.3-2.3
			c2.9-0.1,3.6,2.9,3.6,2.9S1280.6,473.5,1278.5,473.5z M1284.1,461.6c0.2-0.2,0.5-0.3,0.7-0.4c0.4-0.1,0.8-0.2,1.2-0.4
			c0,0.6,0.7,0.8,1.2,1.2c0.5,0.4,0.6,1.1,0.4,1.7s-0.9,0.9-1.5,0.9c-0.1,0-0.2,0-0.2-0.1c-0.1-0.1-0.1-0.2-0.2-0.3
			c-0.3-0.8-0.9-1.5-1.7-1.9C1283.8,462.1,1283.9,461.8,1284.1,461.6z M1287.1,477.4c0,0.1-0.1,0.1-0.2,0.2
			c-0.2,0.1-0.4-0.1-0.5-0.2c-0.4-0.4-0.7-0.7-1.1-1.1c-0.3-0.3-0.6-0.6-0.4-1c0.1-0.3,0.5-0.4,0.8-0.4c0.3,0,0.6,0,0.9-0.1
			c0.4-0.1,0.8-0.4,1.1-0.2c0.1,0.1,0.2,0.3,0.2,0.5C1287.8,476,1287.6,476.8,1287.1,477.4z M1291,473.5c-2.1,0.1-3.3-2.1-3.3-2.1
			s0.6-3.1,3.4-3.2c1.9,0,3.4,2.1,3.4,2.1S1293.1,473.4,1291,473.5z"/>
		<path class="st38" d="M1297.2,474.2c-0.1,0.3-0.1,0.5-0.2,0.8C1297,474.7,1297.1,474.4,1297.2,474.2z"/>
		<path class="st38" d="M1296.2,477.1c-1.5,2.7-3.1,4.5-3.8,5.2C1293.1,481.6,1294.9,479.9,1296.2,477.1z"/>
		<path class="st38" d="M1274.1,480.7c0-0.1-0.1-0.1-0.1-0.2C1274,480.5,1274,480.6,1274.1,480.7z"/>
		<path class="st38" d="M1275.8,486.5c0,0.1,0,0.2,0,0.3C1275.8,486.7,1275.8,486.6,1275.8,486.5z"/>
		<path class="st38" d="M1275.7,485.8c0,0.1,0,0.1,0,0.2C1275.7,485.9,1275.7,485.8,1275.7,485.8z"/>
		<path class="st38" d="M1275.8,487.3c0,0.1,0,0.1,0,0.2C1275.9,487.4,1275.9,487.4,1275.8,487.3z"/>
		<path class="st39" d="M1285.7,464.2c0,0.1,0.1,0.2,0.2,0.3c0.1,0.1,0.2,0.1,0.2,0.1c0.6,0.1,1.2-0.3,1.5-0.9s0.1-1.3-0.4-1.7
			c-0.4-0.4-1.1-0.6-1.2-1.2c-0.4,0.1-0.8,0.2-1.2,0.4c-0.3,0.1-0.5,0.2-0.7,0.4c-0.2,0.2-0.3,0.5-0.1,0.7
			C1284.7,462.7,1285.3,463.4,1285.7,464.2z"/>
		<path class="st39" d="M1293,466.6c0,0-0.1-0.1-0.1-0.1c0,0,0,0,0,0c0,0.1-0.1,0.1-0.1,0.2C1292.9,466.6,1292.9,466.6,1293,466.6z"
			/>
		<path class="st39" d="M1293.9,468.2c0.1,0.1,0.1,0.1,0.2,0.1c-0.2-0.3-0.4-0.6-0.5-0.8C1293.6,467.8,1293.7,468,1293.9,468.2z"/>
		<path class="st39" d="M1275.4,468c0.7,0.2,1.4-0.2,1.9-0.7c0.2-0.2,0.4-0.4,0.5-0.7c0.2-0.7-0.3-1.4-0.8-1.9
			c-0.1-0.1-0.3-0.3-0.4-0.3c-0.5-0.2-1,0.2-1.2,0.6c-0.2,0.5-0.1,1,0,1.5C1275.4,467,1275.5,467.5,1275.4,468z"/>
		<path class="st39" d="M1278.9,459.1c1,0.4,2.2-0.5,2.2-1.6c0-0.1,0-0.1,0-0.2c-0.9,0.1-1.9,0.3-2.8,0.6c0,0.1,0,0.2,0,0.2
			c0,0.2,0.1,0.5,0.2,0.7C1278.5,459,1278.7,459.1,1278.9,459.1z"/>
		<path class="st39" d="M1286.6,474.8c-0.3,0.1-0.6,0-0.9,0.1c-0.3,0-0.7,0.1-0.8,0.4c-0.1,0.4,0.2,0.7,0.4,1
			c0.4,0.4,0.7,0.7,1.1,1.1c0.1,0.1,0.3,0.3,0.5,0.2c0.1,0,0.1-0.1,0.2-0.2c0.5-0.7,0.7-1.5,0.7-2.3c0-0.2,0-0.4-0.2-0.5
			C1287.4,474.4,1287,474.7,1286.6,474.8z"/>
		<path class="st40" d="M1275.9,488.1c0-0.1,0-0.2,0-0.4c0,0,0.1,0,0.1,0c0.7,3.1,5.1,1.8,6.9,0.5c-0.3-0.1-1.3-0.5-2-1
			c-1.3-1.1-4.2-4.8-1.6-7c0.2-0.2,0.4-0.3,0.6-0.4c-0.4-1.2-0.7-2.3-0.9-3.6c-1-4.9-5.2-2.7-6.7,0.8c0,0,0,0,0,0
			c0.1,0.2,0.2,0.3,0.3,0.5c0.5-0.4,1.1-0.8,1.6-0.5c0.6,0.2,0.8,0.9,0.8,1.5c-0.1,0.6-0.4,1.1-0.7,1.6c-0.1,0.1-0.2,0.3-0.3,0.4
			c0,0,0,0.1,0.1,0.1c0,0.1,0.1,0.1,0.1,0.2c0.1,0.2,0.1,0.3,0.2,0.5c0,0.1,0.1,0.1,0.1,0.2c0.1,0.2,0.1,0.3,0.2,0.5
			c0,0.1,0,0.1,0.1,0.2c0.1,0.2,0.1,0.3,0.2,0.5c0,0.1,0,0.1,0.1,0.2c0.1,0.2,0.1,0.3,0.2,0.5c0,0,0,0.1,0,0.1
			c0.1,0.2,0.1,0.3,0.2,0.5c0,0,0,0.1,0,0.1c0,0.2,0.1,0.3,0.1,0.5c0,0,0,0.1,0,0.1c0,0.2,0.1,0.4,0.1,0.5c0,0.1,0,0.1,0,0.2
			c0,0.1,0.1,0.3,0.1,0.4c0,0,0,0.1,0,0.1c0,0.1,0,0.1,0,0.2c0,0.2,0,0.3,0.1,0.5c0,0.1,0,0.2,0,0.3c0,0.2,0,0.3,0,0.5
			c0,0.1,0,0.1,0,0.2C1275.9,487.7,1275.9,487.9,1275.9,488.1c0,0.2,0,0.3,0,0.5c0,0.1,0,0.1,0,0.2c0,0.1,0,0.1,0,0.2
			c0,0.1,0,0.1,0.1,0.2C1276,488.8,1275.9,488.5,1275.9,488.1z"/>
		<path class="st40" d="M1276.1,489.2C1276.1,489.2,1276.1,489.2,1276.1,489.2C1276.1,489.2,1276.1,489.2,1276.1,489.2z"/>
		<path class="st40" d="M1292,473.8c-3.1,0.8-3.5,3.8-4.5,6.3c0.7,0.6,1.1,1.3,1.1,2.2c-0.2,2.9-2.9,5.1-4.6,5.7
			c1.7,1.3,6.4,2.8,7.1-0.5c0,0,0.1,0,0.1,0c0,0.1,0,0.2,0,0.4c0,0,0,0.1,0,0.1c0.6-2.1,0.3-4.8,1.3-5.8c0.7-0.7,2.3-2.6,3.8-5.2
			c0.1-0.1,0.1-0.2,0.2-0.3c0,0,0,0,0,0C1295.7,475.1,1294.3,473.2,1292,473.8z M1293.3,478.4c-0.2,0.9-1.1,1.6-2,1.4
			c-0.5-0.1-0.9-0.3-1.2-0.5c-0.4-0.3-0.8-0.5-1.3-0.8c-0.2-0.1-0.4-0.2-0.4-0.4c0-0.1,0.1-0.2,0.1-0.3c0.5-0.7,1.4-1.1,2.3-1
			c0.9,0.1,1.7,0.5,2.3,1.1c0.1,0.1,0.1,0.1,0.2,0.2C1293.4,478.2,1293.4,478.3,1293.3,478.4z"/>
		<path class="st38" d="M1272.1,464.9c-0.2,0.6-0.4,1.3-0.5,1.9c0,0,0,0,0,0c-0.1,0.3-0.1,0.6-0.2,0.9c0,0,0,0.1,0,0.1
			c-0.1,0.3-0.1,0.6-0.1,0.9c0,0.1,0,0.2,0,0.2c0,0.1,0,0.3-0.1,0.4c-0.2,2.6-0.1,5.2,0.9,7.1c-0.1-0.9-0.3-1.8-0.2-2.6
			c0.1-1.6,0.5-3.2,1.1-4.8c1.5-3.6,3.6-7.1,4.1-11c-0.7,0.2-1.4,0.5-2,0.8C1274,460,1272.9,462.3,1272.1,464.9L1272.1,464.9z"/>
		<path class="st41" d="M1272.1,464.9c-0.2,0.6-0.4,1.3-0.5,1.9c0,0,0,0,0,0c-0.1,0.3-0.1,0.6-0.2,0.9c0,0,0,0.1,0,0.1
			c-0.1,0.3-0.1,0.6-0.1,0.9c0,0.1,0,0.2,0,0.2c0,0.1,0,0.3-0.1,0.4c-0.2,2.6-0.1,5.2,0.9,7.1c-0.1-0.9-0.3-1.8-0.2-2.6
			c0.1-1.6,0.5-3.2,1.1-4.8c1.5-3.6,3.6-7.1,4.1-11c-0.7,0.2-1.4,0.5-2,0.8C1274,460,1272.9,462.3,1272.1,464.9L1272.1,464.9z"/>
		<path class="st41" d="M1296.9,475C1297,475,1297,475,1296.9,475C1297,475,1297,475,1296.9,475C1296.9,475,1296.9,475,1296.9,475z"
			/>
		<path class="st41" d="M1297.2,474.2C1297.2,474.2,1297.2,474.2,1297.2,474.2C1297.2,474.2,1297.2,474.2,1297.2,474.2
			C1297.2,474.2,1297.2,474.2,1297.2,474.2z"/>
		<path class="st41" d="M1292.6,458.8c-1-0.5-2-0.8-2.9-1.1c0,0,0,0.1,0,0.1c0.9,0.3,1.8,0.7,2.7,1.2
			C1292.4,458.9,1292.5,458.8,1292.6,458.8z"/>
		<path class="st38" d="M1293,466.6c0.2,0.3,0.4,0.6,0.6,0.9c0-0.1,0-0.2,0-0.2C1293.4,467,1293.2,466.7,1293,466.6z"/>
		<path class="st41" d="M1293,466.6c0.2,0.3,0.4,0.6,0.6,0.9c0-0.1,0-0.2,0-0.2C1293.4,467,1293.2,466.7,1293,466.6z"/>
		<path class="st38" d="M1297.1,472.6C1297.1,472.6,1297.1,472.5,1297.1,472.6c0-0.3,0-0.5,0-0.8c0-0.1,0-0.3,0-0.4
			c0-0.1,0-0.2,0-0.4c0-0.2,0-0.4-0.1-0.6c0-0.1,0-0.1,0-0.2c0-0.2-0.1-0.5-0.1-0.7c0,0,0,0,0,0c-0.7-4.1-2.8-8.7-4.5-10.2
			c0,0,0-0.2,0.1-0.4c-0.9-0.5-1.8-0.9-2.7-1.2c0.6,3.1,1.3,6,3.2,8.7c0.3-0.5,0.6-0.9,1.1-1.3c0.3-0.2,0.6-0.4,1-0.3
			c0.5,0.1,0.8,0.6,0.8,1.1c0,0.5-0.2,1-0.4,1.4c-0.2,0.3-0.3,0.6-0.6,0.8c-0.2,0.1-0.5,0.2-0.7,0.1c1.1,1.8,2.2,3.7,2.9,5.6
			c0.2,0.5-0.1,0.6,0,1.1c0,0,0,0,0-0.1c0.1-0.3,0.1-0.5,0.2-0.8c0,0,0,0,0,0C1297.1,473.6,1297.1,473.1,1297.1,472.6z"/>
		<path class="st41" d="M1297.1,472.6C1297.1,472.6,1297.1,472.5,1297.1,472.6c0-0.3,0-0.5,0-0.8c0-0.1,0-0.3,0-0.4
			c0-0.1,0-0.2,0-0.4c0-0.2,0-0.4-0.1-0.6c0-0.1,0-0.1,0-0.2c0-0.2-0.1-0.5-0.1-0.7c0,0,0,0,0,0c-0.7-4.1-2.8-8.7-4.5-10.2
			c0,0,0-0.2,0.1-0.4c-0.9-0.5-1.8-0.9-2.7-1.2c0.6,3.1,1.3,6,3.2,8.7c0.3-0.5,0.6-0.9,1.1-1.3c0.3-0.2,0.6-0.4,1-0.3
			c0.5,0.1,0.8,0.6,0.8,1.1c0,0.5-0.2,1-0.4,1.4c-0.2,0.3-0.3,0.6-0.6,0.8c-0.2,0.1-0.5,0.2-0.7,0.1c1.1,1.8,2.2,3.7,2.9,5.6
			c0.2,0.5-0.1,0.6,0,1.1c0,0,0,0,0-0.1c0.1-0.3,0.1-0.5,0.2-0.8c0,0,0,0,0,0C1297.1,473.6,1297.1,473.1,1297.1,472.6z"/>
		<path class="st39" d="M1293,466.6c0.3,0,0.5,0.3,0.5,0.6c0,0.1,0,0.2,0,0.2c0.2,0.3,0.4,0.6,0.5,0.8c0.2,0.1,0.5,0,0.7-0.1
			c0.3-0.2,0.5-0.5,0.6-0.8c0.2-0.4,0.4-0.9,0.4-1.4c0-0.5-0.4-1-0.8-1.1c-0.3-0.1-0.7,0.1-1,0.3c-0.5,0.3-0.8,0.8-1.1,1.3
			c0,0,0,0,0,0C1292.9,466.6,1292.9,466.6,1293,466.6z"/>
		<path class="st41" d="M1293,466.6c0.3,0,0.5,0.3,0.5,0.6c0,0.1,0,0.2,0,0.2c0.2,0.3,0.4,0.6,0.5,0.8c0.2,0.1,0.5,0,0.7-0.1
			c0.3-0.2,0.5-0.5,0.6-0.8c0.2-0.4,0.4-0.9,0.4-1.4c0-0.5-0.4-1-0.8-1.1c-0.3-0.1-0.7,0.1-1,0.3c-0.5,0.3-0.8,0.8-1.1,1.3
			c0,0,0,0,0,0C1292.9,466.6,1292.9,466.6,1293,466.6z"/>
		<path class="st39" d="M1293.2,477.9c-0.6-0.6-1.4-1.1-2.3-1.1c-0.9-0.1-1.8,0.3-2.3,1c-0.1,0.1-0.1,0.2-0.1,0.3
			c0,0.2,0.2,0.3,0.4,0.4c0.4,0.3,0.8,0.5,1.3,0.8c0.4,0.2,0.8,0.5,1.2,0.5c0.9,0.1,1.9-0.5,2-1.4c0-0.1,0-0.2,0-0.3
			C1293.3,478,1293.2,478,1293.2,477.9z"/>
		<path class="st39" d="M1274.2,480c0.3-0.5,0.6-1,0.7-1.6c0.1-0.6-0.2-1.3-0.8-1.5c-0.6-0.2-1.2,0.1-1.6,0.5c0,0,0,0,0,0
			c0.6,1.1,1.1,2,1.5,2.9c0,0,0,0,0,0C1274,480.2,1274.1,480.1,1274.2,480z"/>
		<path class="st42" d="M1291.2,487.6C1291.2,487.6,1291.1,487.6,1291.2,487.6c-0.8,3.2-5.5,1.8-7.2,0.4c-0.4,0.2-0.7,0.2-1,0.2
			c0,0-0.1,0-0.1,0c-1.8,1.3-6.2,2.6-6.9-0.5c0,0-0.1,0-0.1,0c0,0.1,0,0.2,0,0.4c0,0.4,0.1,0.7,0.2,1c0,0,0,0,0,0c0,0,0,0.1,0,0.1
			c1.2,2.8,6.4,0.7,7.4-0.6c0.9,1.1,5,2.8,6.8,1.4c0.5-0.4,0.8-1,0.8-1.9c0,0,0-0.1,0-0.1C1291.2,487.8,1291.2,487.7,1291.2,487.6z"
			/>
		<path class="st43" d="M1291.1,468.2c-2.9,0.1-3.4,3.2-3.4,3.2s1.3,2.2,3.3,2.1c2.1-0.1,3.5-3.2,3.5-3.2S1293,468.1,1291.1,468.2z
			 M1291,473.1c-1.3,0-2.4-1-2.4-2.3c0-1.3,1-2.4,2.3-2.4c0.6,0,1.1,0.2,1.5,0.5c0.1,0.1,0.2,0.2,0.3,0.3c0.4,0.4,0.6,0.9,0.6,1.5
			C1293.3,472,1292.3,473.1,1291,473.1z"/>
		<path class="st44" d="M1292.8,469.8c0,0.4-0.2,0.7-0.5,0.9c0,0,0,0.1,0,0.1c0,0.8-0.6,1.4-1.3,1.4c-0.8,0-1.4-0.6-1.4-1.3
			c0-0.8,0.6-1.4,1.3-1.4c0,0,0.1,0,0.1,0c0.1-0.3,0.5-0.6,0.9-0.6c0.2,0,0.4,0,0.5,0.1c-0.4-0.3-0.9-0.5-1.5-0.5
			c-1.3,0-2.3,1.1-2.3,2.4c0,1.3,1.1,2.3,2.4,2.3c1.3,0,2.3-1.1,2.3-2.4c0-0.6-0.2-1.1-0.6-1.5
			C1292.8,469.4,1292.8,469.6,1292.8,469.8z"/>
		<path class="st45" d="M1290.9,469.9c0-0.1,0-0.3,0.1-0.4c0,0-0.1,0-0.1,0c-0.8,0-1.4,0.7-1.3,1.4c0,0.8,0.7,1.4,1.4,1.3
			c0.8,0,1.4-0.7,1.3-1.4c0,0,0-0.1,0-0.1c-0.1,0.1-0.3,0.1-0.4,0.1C1291.4,470.8,1290.9,470.4,1290.9,469.9z"/>
		<path class="st46" d="M1291,469.4c-0.1,0.1-0.1,0.3-0.1,0.4c0,0.5,0.5,0.9,1,0.9c0.1,0,0.3,0,0.4-0.1c0.3-0.2,0.5-0.5,0.5-0.9
			c0-0.2-0.1-0.4-0.2-0.5c-0.1-0.1-0.2-0.2-0.3-0.3c-0.2-0.1-0.3-0.2-0.5-0.1C1291.5,468.9,1291.1,469.1,1291,469.4z"/>
		<path class="st43" d="M1278.1,468.2c-1.9,0.1-3.3,2.3-3.3,2.3s1.6,3,3.7,3s3.2-2.3,3.2-2.3S1280.9,468.1,1278.1,468.2z
			 M1278.6,473.2c-1.3,0-2.4-1-2.4-2.3c0-1.3,1-2.4,2.3-2.4c0.6,0,1.1,0.2,1.5,0.5c0.1,0.1,0.2,0.2,0.3,0.3c0.4,0.4,0.6,0.9,0.6,1.5
			C1280.8,472.1,1279.8,473.1,1278.6,473.2z"/>
		<path class="st44" d="M1280.4,469.8c0,0.4-0.2,0.7-0.5,0.9c0,0,0,0.1,0,0.1c0,0.8-0.6,1.4-1.3,1.4c-0.8,0-1.4-0.6-1.4-1.3
			c0-0.8,0.6-1.4,1.3-1.4c0,0,0.1,0,0.1,0c0.1-0.3,0.5-0.6,0.9-0.6c0.2,0,0.4,0,0.5,0.1c-0.4-0.3-0.9-0.5-1.5-0.5
			c-1.3,0-2.3,1.1-2.3,2.4c0,1.3,1.1,2.3,2.4,2.3c1.3,0,2.3-1.1,2.3-2.4c0-0.6-0.2-1.1-0.6-1.5
			C1280.3,469.5,1280.4,469.6,1280.4,469.8z"/>
		<path class="st45" d="M1278.5,469.9c0-0.1,0-0.3,0.1-0.4c0,0-0.1,0-0.1,0c-0.8,0-1.4,0.7-1.3,1.4c0,0.8,0.7,1.4,1.4,1.3
			c0.8,0,1.4-0.7,1.3-1.4c0,0,0-0.1,0-0.1c-0.1,0.1-0.3,0.1-0.4,0.1C1278.9,470.8,1278.5,470.4,1278.5,469.9z"/>
		<path class="st46" d="M1278.5,469.5c-0.1,0.1-0.1,0.3-0.1,0.4c0,0.5,0.5,0.9,1,0.9c0.1,0,0.3,0,0.4-0.1c0.3-0.2,0.5-0.5,0.5-0.9
			c0-0.2-0.1-0.4-0.2-0.5c-0.1-0.1-0.2-0.2-0.3-0.3c-0.2-0.1-0.3-0.2-0.5-0.1C1279,468.9,1278.7,469.1,1278.5,469.5z"/>
		<path class="st42" d="M1280.9,487.2c0.6,0.5,1.6,0.9,2,1c0.1,0,0.1,0,0.1,0c0.2,0,0.6-0.1,1-0.2c1.7-0.7,4.4-2.9,4.6-5.7
			c0-0.9-0.4-1.6-1.1-2.2c-1.8-1.4-5.3-1.8-7.6-0.4c-0.2,0.1-0.4,0.3-0.6,0.4C1276.7,482.3,1279.6,486.1,1280.9,487.2z"/>
		<path class="st39" d="M1271.1,469.8c0,0.1,0,0.2,0,0.4C1271.1,470,1271.1,469.9,1271.1,469.8z"/>
		<path class="st39" d="M1271,472.4c0-0.3,0-0.5,0-0.8C1271,471.9,1271,472.2,1271,472.4z"/>
		<path class="st39" d="M1265.7,472.5c0.1-0.2,0.4-0.3,0.6-0.3c0,0,0,0,0.1,0c0.7-0.3,1.4-0.8,2-1.4c1.3-1.3,2.4-4.1,3.8-6
			c0.8-2.6,1.9-4.9,2.9-5.9c0,0,0,0,0,0c0,0,0,0,0,0c0,0,0.3-1.6-3.8,0.1c-1.2,0.5-2.3,1-3.3,1.5c0.5,0.3,0.9,0.7,1.1,1.2
			c0.3,0.7,0.1,1.5-0.5,1.8c-0.4,0.2-0.9,0.2-1.3,0.1c-0.8-0.2-1.6-0.7-1.9-1.5c-0.1-0.1-0.1-0.3-0.1-0.4c-1.4,0.6-2.8,1.2-4.2,1.7
			c-3.2,1-3.4,6.6-1.9,10.1c-0.3-0.6-0.4-1.2-0.6-1.8C1260.8,473,1263.4,473.4,1265.7,472.5z M1258.3,467.9c0.3,0,0.5-0.1,0.8-0.1
			c0.1,0,0.1,0,0.2,0c0.1,0.6-0.1,1.3-0.7,1.6c-0.1,0.1-0.3,0.1-0.4,0.2C1258.2,469,1258.2,468.4,1258.3,467.9z"/>
		<path class="st39" d="M1265.8,485.5c0.4,0,1-0.7,2-1.9c1.6-2.1,3.4-6.2,3.3-10.3c0.1,4.1-1.7,8.2-3.3,10.3
			C1266.8,484.8,1266.2,485.5,1265.8,485.5z"/>
		<path class="st39" d="M1271,470.7c0,0.2,0,0.3,0,0.5C1271,471,1271,470.9,1271,470.7z"/>
		<path class="st39" d="M1259.5,474.2c0.8,1.6,1.8,3.4,2.8,5c0,0,0,0,0,0C1261.3,477.6,1260.2,475.8,1259.5,474.2z"/>
		<path class="st39" d="M1264,482.2c0.1,0.1,0.1,0.3,0.2,0.4C1264.1,482.5,1264,482.3,1264,482.2L1264,482.2z"/>
		<path class="st39" d="M1271.6,466.9C1271.6,466.9,1271.6,466.8,1271.6,466.9C1271.6,466.8,1271.6,466.9,1271.6,466.9z"/>
		<path class="st39" d="M1271.4,467.9c0,0,0-0.1,0-0.1C1271.4,467.8,1271.4,467.9,1271.4,467.9z"/>
		<path class="st39" d="M1271.2,469c0-0.1,0-0.2,0-0.2C1271.2,468.9,1271.2,468.9,1271.2,469z"/>
		<path class="st39" d="M1306.1,479.2L1306.1,479.2c1.1-2.1,2.2-4.4,3-6.3C1308.3,474.9,1307.1,477.1,1306.1,479.2z"/>
		<path class="st39" d="M1303.2,485.3c0.1,0,0.2-0.1,0.3-0.2C1303.4,485.2,1303.3,485.3,1303.2,485.3z"/>
		<path class="st39" d="M1309,472.9c0.1-0.3,0.2-0.5,0.3-0.8c0,0,0,0,0,0.1C1309.2,472.5,1309.1,472.7,1309,472.9z"/>
		<path class="st39" d="M1301.1,483.5c-0.8-0.9-1.7-2.3-2.4-3.8C1299.4,481.2,1300.2,482.6,1301.1,483.5c1.1,1.2,1.7,1.9,2.1,1.8
			C1302.7,485.3,1302.1,484.7,1301.1,483.5z"/>
		<path class="st39" d="M1292.4,459c-0.1,0.2-0.1,0.4-0.1,0.4c1.7,1.4,3.8,6.1,4.5,10.2c0.6,1.3,1.4,2.4,2.5,3.2
			c0.4-0.4,0.9-0.7,1.4-0.8c0.1,0,0.2,0,0.3,0c0.2,0.1,0.2,0.5,0.1,0.7c-0.1,0.3-0.2,0.5-0.3,0.8c0.1,0,0.2,0.1,0.4,0.1
			c2.2,0.5,4.4-0.2,6.1-1.5c-0.1-0.5-0.2-1.1,0.1-1.5c0.2-0.3,0.6-0.4,1-0.4c0.3,0,0.5,0,0.8,0c0.2-0.2,0.3-0.4,0.5-0.7
			c0,0.2,0,0.5-0.1,0.7c0,0,0,0,0,0c0,0,0,0.1,0,0.1c0,0.1,0,0.2,0,0.3c0,0.2,0,0.3-0.1,0.5c0,0.1,0,0.3-0.1,0.4
			c0,0.2-0.1,0.3-0.1,0.5c0,0.1,0,0.1,0,0.2c1-3.6,0.3-8.3-2.7-9.1c-3.2-0.9-6.3-2.2-10.5-3.8c-2.2-0.8-3.1-0.7-3.5-0.5
			C1292.5,458.8,1292.4,458.9,1292.4,459z M1300,463.9c0.1,0,0.2,0,0.3,0c0.8,0,1.6,0.5,1.6,1.2c0,0.6-1,1.2-1.7,1
			c-0.1,0-0.2-0.1-0.2-0.1c0,0-0.1-0.1-0.1-0.2c-0.1-0.4-0.1-0.8-0.2-1.2C1299.7,464.3,1299.8,464,1300,463.9z"/>
		<path class="st39" d="M1297,470.3c0,0.1,0,0.1,0,0.2C1297,470.4,1297,470.3,1297,470.3z"/>
		<path class="st39" d="M1297.1,471.8c0,0.3,0,0.5,0,0.7C1297.1,472.3,1297.1,472,1297.1,471.8z"/>
		<path class="st39" d="M1297,471c0,0.1,0,0.2,0,0.4C1297.1,471.3,1297.1,471.1,1297,471z"/>
		<path class="st38" d="M1300,465.9c0,0.1,0.1,0.1,0.2,0.1c0.8,0.2,1.7-0.3,1.7-1c0-0.6-0.8-1.1-1.6-1.2c-0.1,0-0.2,0-0.3,0
			c-0.3,0.1-0.3,0.4-0.3,0.6c0,0.4,0.1,0.8,0.2,1.2C1299.9,465.8,1299.9,465.8,1300,465.9z"/>
		<path class="st38" d="M1301.1,471.9c-0.1-0.1-0.2,0-0.3,0c-0.6,0.1-1.1,0.4-1.4,0.8c0.4,0.3,0.9,0.6,1.5,0.7
			c0.1-0.3,0.2-0.5,0.3-0.8C1301.3,472.4,1301.3,472,1301.1,471.9z"/>
		<path class="st38" d="M1309,472.9c0.1-0.2,0.2-0.5,0.2-0.7C1309.2,472.5,1309.1,472.7,1309,472.9z"/>
		<path class="st38" d="M1309.5,471.4c0,0.2-0.1,0.3-0.1,0.5C1309.4,471.7,1309.4,471.6,1309.5,471.4z"/>
		<path class="st38" d="M1309.2,470.1c-0.3,0-0.5,0-0.8,0c-0.4,0-0.8,0.1-1,0.4c-0.3,0.4-0.2,1-0.1,1.5
			C1308,471.5,1308.7,470.9,1309.2,470.1z"/>
		<path class="st38" d="M1309.6,470.2C1309.6,470.2,1309.6,470.2,1309.6,470.2c0,0,0,0.1,0,0.1
			C1309.6,470.3,1309.6,470.2,1309.6,470.2z"/>
		<path class="st38" d="M1309.6,470.6c0,0.2,0,0.3-0.1,0.5C1309.5,470.9,1309.6,470.8,1309.6,470.6z"/>
		<path class="st38" d="M1304.8,481.7C1304.8,481.7,1304.8,481.7,1304.8,481.7c0.4-0.8,0.8-1.6,1.2-2.5c0,0,0,0,0,0l0,0
			C1305.6,480.1,1305.2,480.9,1304.8,481.7z"/>
		<path class="st38" d="M1267.2,463.7c0.4,0.1,0.9,0.2,1.3-0.1c0.6-0.3,0.8-1.2,0.5-1.8c-0.2-0.5-0.6-0.9-1.1-1.2c0,0,0,0,0,0
			c-1,0.4-1.9,0.8-2.7,1.2c0,0,0,0,0,0c0,0.1,0,0.3,0.1,0.4C1265.7,463,1266.4,463.5,1267.2,463.7z"/>
		<path class="st38" d="M1259.3,467.8c-0.1,0-0.1,0-0.2,0c-0.3,0-0.5,0.1-0.8,0.1c-0.1,0.5-0.1,1.1,0,1.7c0.1-0.1,0.3-0.1,0.4-0.2
			C1259.2,469,1259.4,468.3,1259.3,467.8z"/>
		<path class="st38" d="M1265.7,472.5c0.2-0.1,0.4-0.2,0.6-0.3c0,0,0,0-0.1,0C1266.1,472.2,1265.8,472.3,1265.7,472.5z"/>
		<path class="st38" d="M1262.3,479.2C1262.3,479.2,1262.3,479.2,1262.3,479.2c0.6,1.1,1.2,2.1,1.7,3c0,0,0,0,0,0l0,0
			C1263.5,481.3,1262.9,480.3,1262.3,479.2z"/>
		<path class="st47" d="M1271.1,470.1c0,0.2,0,0.4,0,0.6C1271,470.5,1271,470.3,1271.1,470.1z"/>
		<path class="st47" d="M1265.1,484.8c0.2,0.5,0.4,0.7,0.7,0.7C1265.5,485.5,1265.3,485.3,1265.1,484.8z"/>
		<path class="st47" d="M1271.1,473.3c0-0.3,0-0.6,0-0.8c0,0,0,0,0,0c0,0,0,0,0,0C1271.1,472.7,1271.1,473,1271.1,473.3z"/>
		<path class="st47" d="M1271.1,469.8c0-0.1,0-0.1,0-0.2c0,0,0,0,0,0C1271.1,469.6,1271.1,469.7,1271.1,469.8z"/>
		<path class="st47" d="M1271,471.6c0-0.1,0-0.3,0-0.4C1271,471.3,1271,471.5,1271,471.6z"/>
		<path class="st38" d="M1271.1,469.4C1271.1,469.5,1271.1,469.5,1271.1,469.4c0,0.1,0,0.1,0,0.1
			C1271.1,469.5,1271.1,469.5,1271.1,469.4C1271.1,469.5,1271.1,469.4,1271.1,469.4z"/>
		<path class="st47" d="M1271.1,469.4C1271.1,469.5,1271.1,469.5,1271.1,469.4c0,0.1,0,0.1,0,0.1
			C1271.1,469.5,1271.1,469.5,1271.1,469.4C1271.1,469.5,1271.1,469.4,1271.1,469.4z"/>
		<path class="st38" d="M1272.1,464.9c-0.2,0.6-0.4,1.3-0.5,1.9C1271.7,466.2,1271.9,465.5,1272.1,464.9L1272.1,464.9z"/>
		<path class="st41" d="M1272.1,464.9c-0.2,0.6-0.4,1.3-0.5,1.9C1271.7,466.2,1271.9,465.5,1272.1,464.9L1272.1,464.9z"/>
		<path class="st47" d="M1272.1,464.9c-0.2,0.6-0.4,1.3-0.5,1.9C1271.7,466.2,1271.9,465.5,1272.1,464.9L1272.1,464.9z"/>
		<path class="st38" d="M1271.1,469.4C1271.1,469.4,1271.1,469.5,1271.1,469.4c0-0.1,0-0.3,0.1-0.4
			C1271.2,469.2,1271.1,469.3,1271.1,469.4z"/>
		<path class="st41" d="M1271.1,469.4C1271.1,469.4,1271.1,469.5,1271.1,469.4c0-0.1,0-0.3,0.1-0.4
			C1271.2,469.2,1271.1,469.3,1271.1,469.4z"/>
		<path class="st47" d="M1271.1,469.4C1271.1,469.4,1271.1,469.5,1271.1,469.4c0-0.1,0-0.3,0.1-0.4
			C1271.2,469.2,1271.1,469.3,1271.1,469.4z"/>
		<path class="st38" d="M1271.4,467.8c0.1-0.3,0.1-0.6,0.2-0.9C1271.5,467.2,1271.4,467.5,1271.4,467.8z"/>
		<path class="st41" d="M1271.4,467.8c0.1-0.3,0.1-0.6,0.2-0.9C1271.5,467.2,1271.4,467.5,1271.4,467.8z"/>
		<path class="st47" d="M1271.4,467.8c0.1-0.3,0.1-0.6,0.2-0.9C1271.5,467.2,1271.4,467.5,1271.4,467.8z"/>
		<path class="st38" d="M1271.2,468.8c0-0.3,0.1-0.6,0.1-0.9C1271.3,468.2,1271.2,468.5,1271.2,468.8z"/>
		<path class="st41" d="M1271.2,468.8c0-0.3,0.1-0.6,0.1-0.9C1271.3,468.2,1271.2,468.5,1271.2,468.8z"/>
		<path class="st47" d="M1271.2,468.8c0-0.3,0.1-0.6,0.1-0.9C1271.3,468.2,1271.2,468.5,1271.2,468.8z"/>
		<path class="st39" d="M1271.1,469.4c0-0.1,0-0.3,0.1-0.4c0-0.1,0-0.2,0-0.2c0-0.3,0.1-0.6,0.1-0.9c0,0,0-0.1,0-0.1
			c0.1-0.3,0.1-0.6,0.2-0.9c0,0,0,0,0,0c0.1-0.7,0.3-1.3,0.5-1.9c-1.4,1.9-2.4,4.7-3.8,6c-0.6,0.6-1.3,1-2,1.4
			c0.5,0,0.9,0.3,1.1,0.8c0.2,0.4,0.1,1-0.3,1.3c-0.3,0.3-0.9,0.5-1.3,0.3c0.2-0.4,0.2-0.9,0-1.3c-0.1-0.2-0.3-0.4-0.2-0.6
			c0-0.1,0-0.1,0.1-0.2c-2.3,0.8-4.9,0.5-7.1-0.8c0.2,0.6,0.3,1.3,0.6,1.8c0.1,0.2,0.2,0.4,0.3,0.7c0.8,1.6,1.8,3.3,2.8,5
			c0-0.1-0.1-0.2-0.1-0.2c0,0,0.1,0,0.1,0c0.8,0,1.7,0.1,2.3,0.6c0.6,0.5,0.9,1.5,0.4,2.2c-0.3,0.3-0.6,0.4-1,0.5
			c0.1,0.1,0.1,0.3,0.2,0.4c0.3,0.6,0.5,1.1,0.7,1.5c0.1,0.3,0.2,0.5,0.3,0.7c0.2,0.5,0.4,0.7,0.7,0.7c0.4,0,1-0.7,2-1.9
			c1.6-2.1,3.4-6.2,3.3-10.3c0-0.3,0-0.6,0-0.8c0,0,0,0,0,0c0-0.3,0-0.5,0-0.8c0-0.1,0-0.3,0-0.4c0-0.2,0-0.3,0-0.5
			c0-0.2,0-0.4,0-0.6c0-0.1,0-0.2,0-0.4C1271.1,469.7,1271.1,469.6,1271.1,469.4C1271.1,469.5,1271.1,469.5,1271.1,469.4z"/>
		<path class="st47" d="M1271.1,469.4c0-0.1,0-0.3,0.1-0.4c0-0.1,0-0.2,0-0.2c0-0.3,0.1-0.6,0.1-0.9c0,0,0-0.1,0-0.1
			c0.1-0.3,0.1-0.6,0.2-0.9c0,0,0,0,0,0c0.1-0.7,0.3-1.3,0.5-1.9c-1.4,1.9-2.4,4.7-3.8,6c-0.6,0.6-1.3,1-2,1.4
			c0.5,0,0.9,0.3,1.1,0.8c0.2,0.4,0.1,1-0.3,1.3c-0.3,0.3-0.9,0.5-1.3,0.3c0.2-0.4,0.2-0.9,0-1.3c-0.1-0.2-0.3-0.4-0.2-0.6
			c0-0.1,0-0.1,0.1-0.2c-2.3,0.8-4.9,0.5-7.1-0.8c0.2,0.6,0.3,1.3,0.6,1.8c0.1,0.2,0.2,0.4,0.3,0.7c0.8,1.6,1.8,3.3,2.8,5
			c0-0.1-0.1-0.2-0.1-0.2c0,0,0.1,0,0.1,0c0.8,0,1.7,0.1,2.3,0.6c0.6,0.5,0.9,1.5,0.4,2.2c-0.3,0.3-0.6,0.4-1,0.5
			c0.1,0.1,0.1,0.3,0.2,0.4c0.3,0.6,0.5,1.1,0.7,1.5c0.1,0.3,0.2,0.5,0.3,0.7c0.2,0.5,0.4,0.7,0.7,0.7c0.4,0,1-0.7,2-1.9
			c1.6-2.1,3.4-6.2,3.3-10.3c0-0.3,0-0.6,0-0.8c0,0,0,0,0,0c0-0.3,0-0.5,0-0.8c0-0.1,0-0.3,0-0.4c0-0.2,0-0.3,0-0.5
			c0-0.2,0-0.4,0-0.6c0-0.1,0-0.2,0-0.4C1271.1,469.7,1271.1,469.6,1271.1,469.4C1271.1,469.5,1271.1,469.5,1271.1,469.4z"/>
		<path class="st38" d="M1265.6,472.7c0,0.2,0.1,0.4,0.2,0.6c0.2,0.4,0.2,0.9,0,1.3c0.4,0.2,1,0.1,1.3-0.3c0.3-0.3,0.4-0.9,0.3-1.3
			c-0.2-0.4-0.7-0.7-1.1-0.8c-0.2,0.1-0.4,0.2-0.6,0.3C1265.7,472.6,1265.6,472.6,1265.6,472.7z"/>
		<path class="st47" d="M1265.6,472.7c0,0.2,0.1,0.4,0.2,0.6c0.2,0.4,0.2,0.9,0,1.3c0.4,0.2,1,0.1,1.3-0.3c0.3-0.3,0.4-0.9,0.3-1.3
			c-0.2-0.4-0.7-0.7-1.1-0.8c-0.2,0.1-0.4,0.2-0.6,0.3C1265.7,472.6,1265.6,472.6,1265.6,472.7z"/>
		<path class="st38" d="M1264,482.2c0.4,0,0.8-0.2,1-0.5c0.5-0.6,0.2-1.7-0.4-2.2c-0.6-0.5-1.5-0.6-2.3-0.6c0,0-0.1,0-0.1,0
			c0,0.1,0.1,0.2,0.1,0.2C1262.9,480.3,1263.5,481.3,1264,482.2z"/>
		<path class="st47" d="M1264,482.2c0.4,0,0.8-0.2,1-0.5c0.5-0.6,0.2-1.7-0.4-2.2c-0.6-0.5-1.5-0.6-2.3-0.6c0,0-0.1,0-0.1,0
			c0,0.1,0.1,0.2,0.1,0.2C1262.9,480.3,1263.5,481.3,1264,482.2z"/>
		<path class="st47" d="M1303.2,485.3C1303.2,485.3,1303.2,485.3,1303.2,485.3C1303.2,485.3,1303.2,485.3,1303.2,485.3z"/>
		<path class="st47" d="M1303.8,484.5c-0.1,0.3-0.2,0.4-0.3,0.6C1303.6,485,1303.7,484.8,1303.8,484.5z"/>
		<path class="st47" d="M1297.2,474.2c0.2,2,0.7,3.9,1.5,5.5C1297.9,478,1297.3,476.1,1297.2,474.2
			C1297.2,474.2,1297.2,474.2,1297.2,474.2z"/>
		<path class="st47" d="M1309.3,472.1C1309.3,472.1,1309.3,472.1,1309.3,472.1C1309.3,472.1,1309.3,472.1,1309.3,472.1z"/>
		<path class="st47" d="M1304.1,483.3c0.2-0.5,0.4-1,0.7-1.6l0,0C1304.5,482.3,1304.3,482.9,1304.1,483.3z"/>
		<polygon class="st41" points="1297.2,474.2 1297.2,474.2 1297.2,474.2 1297.2,474.2 		"/>
		<polygon class="st47" points="1297.2,474.2 1297.2,474.2 1297.2,474.2 1297.2,474.2 		"/>
		<path class="st38" d="M1297,470.3c0-0.2-0.1-0.5-0.1-0.7c0,0,0,0,0,0C1296.9,469.8,1296.9,470,1297,470.3z"/>
		<path class="st41" d="M1297,470.3c0-0.2-0.1-0.5-0.1-0.7c0,0,0,0,0,0C1296.9,469.8,1296.9,470,1297,470.3z"/>
		<path class="st47" d="M1297,470.3c0-0.2-0.1-0.5-0.1-0.7c0,0,0,0,0,0C1296.9,469.8,1296.9,470,1297,470.3z"/>
		<path class="st38" d="M1297.2,474.2C1297.2,474.2,1297.2,474.2,1297.2,474.2c0-0.5-0.1-1.1-0.1-1.6c0,0,0,0,0,0c0,0,0,0,0,0
			C1297.1,473.1,1297.1,473.6,1297.2,474.2z"/>
		<path class="st41" d="M1297.2,474.2C1297.2,474.2,1297.2,474.2,1297.2,474.2c0-0.5-0.1-1.1-0.1-1.6c0,0,0,0,0,0c0,0,0,0,0,0
			C1297.1,473.1,1297.1,473.6,1297.2,474.2z"/>
		<path class="st47" d="M1297.2,474.2C1297.2,474.2,1297.2,474.2,1297.2,474.2c0-0.5-0.1-1.1-0.1-1.6c0,0,0,0,0,0c0,0,0,0,0,0
			C1297.1,473.1,1297.1,473.6,1297.2,474.2z"/>
		<path class="st38" d="M1297,470.4c0,0.2,0,0.4,0.1,0.6C1297,470.8,1297,470.6,1297,470.4z"/>
		<path class="st41" d="M1297,470.4c0,0.2,0,0.4,0.1,0.6C1297,470.8,1297,470.6,1297,470.4z"/>
		<path class="st47" d="M1297,470.4c0,0.2,0,0.4,0.1,0.6C1297,470.8,1297,470.6,1297,470.4z"/>
		<path class="st38" d="M1297.1,471.4c0,0.1,0,0.3,0,0.4C1297.1,471.7,1297.1,471.5,1297.1,471.4z"/>
		<path class="st41" d="M1297.1,471.4c0,0.1,0,0.3,0,0.4C1297.1,471.7,1297.1,471.5,1297.1,471.4z"/>
		<path class="st47" d="M1297.1,471.4c0,0.1,0,0.3,0,0.4C1297.1,471.7,1297.1,471.5,1297.1,471.4z"/>
		<path class="st39" d="M1309.3,472.2C1309.3,472.2,1309.3,472.2,1309.3,472.2C1309.3,472.1,1309.3,472.1,1309.3,472.2
			c0-0.2,0.1-0.2,0.1-0.3C1309.3,472,1309.3,472.1,1309.3,472.2z"/>
		<path class="st47" d="M1309.3,472.2C1309.3,472.2,1309.3,472.2,1309.3,472.2C1309.3,472.1,1309.3,472.1,1309.3,472.2
			c0-0.2,0.1-0.2,0.1-0.3C1309.3,472,1309.3,472.1,1309.3,472.2z"/>
		<path class="st39" d="M1309.7,469.5c-0.1,0.2-0.3,0.5-0.5,0.7c0.1,0,0.3,0,0.4,0C1309.7,469.9,1309.7,469.7,1309.7,469.5z"/>
		<path class="st47" d="M1309.7,469.5c-0.1,0.2-0.3,0.5-0.5,0.7c0.1,0,0.3,0,0.4,0C1309.7,469.9,1309.7,469.7,1309.7,469.5z"/>
		<path class="st39" d="M1304.4,481.5c-0.6-0.4-1.2-0.7-1.7-1.1c-0.3-0.2-0.5-0.3-0.7-0.6c-0.2-0.4,0-0.9,0.3-1.2
			c0.3-0.3,0.8-0.4,1.3-0.4c0.9,0,1.8,0.4,2.5,1c1.1-2.1,2.2-4.4,3-6.3c-0.2,0.4-0.4,0.9-0.6,1.4c-0.2,0-0.3,0-0.5,0c0,0,0,0,0,0
			c-0.1-0.2-0.2-0.4-0.3-0.7c-0.1-0.5-0.3-1-0.4-1.5c0,0,0,0,0,0c-1.7,1.3-3.9,1.9-6.1,1.5c-0.1,0-0.2-0.1-0.4-0.1
			c-0.3,0.7-0.8,1.4-1.6,1.6c-0.1,0-0.3,0-0.4,0c-0.1-0.1-0.1-0.2-0.2-0.4c-0.1-0.7,0.2-1.4,0.6-1.9c-1.1-0.8-1.8-1.9-2.5-3.2
			c0,0.2,0.1,0.5,0.1,0.7c0,0.1,0,0.1,0,0.2c0,0.2,0,0.4,0.1,0.6c0,0.1,0,0.2,0,0.4c0,0.1,0,0.3,0,0.4c0,0.3,0,0.5,0,0.7
			c0,0,0,0,0,0c0,0.5,0,1.1,0.1,1.6c0,0,0,0,0,0c0.2,2,0.7,3.9,1.5,5.5c0.7,1.6,1.6,2.9,2.4,3.8c1.1,1.2,1.7,1.9,2.1,1.8
			c0,0,0,0,0.1,0c0.1,0,0.2-0.1,0.3-0.2c0.1-0.1,0.2-0.3,0.3-0.6c0.1-0.2,0.2-0.4,0.2-0.7c0-0.1,0.1-0.3,0.1-0.5
			c0.2-0.5,0.4-1,0.7-1.6C1304.7,481.6,1304.5,481.6,1304.4,481.5z"/>
		<path class="st47" d="M1304.4,481.5c-0.6-0.4-1.2-0.7-1.7-1.1c-0.3-0.2-0.5-0.3-0.7-0.6c-0.2-0.4,0-0.9,0.3-1.2
			c0.3-0.3,0.8-0.4,1.3-0.4c0.9,0,1.8,0.4,2.5,1c1.1-2.1,2.2-4.4,3-6.3c-0.2,0.4-0.4,0.9-0.6,1.4c-0.2,0-0.3,0-0.5,0c0,0,0,0,0,0
			c-0.1-0.2-0.2-0.4-0.3-0.7c-0.1-0.5-0.3-1-0.4-1.5c0,0,0,0,0,0c-1.7,1.3-3.9,1.9-6.1,1.5c-0.1,0-0.2-0.1-0.4-0.1
			c-0.3,0.7-0.8,1.4-1.6,1.6c-0.1,0-0.3,0-0.4,0c-0.1-0.1-0.1-0.2-0.2-0.4c-0.1-0.7,0.2-1.4,0.6-1.9c-1.1-0.8-1.8-1.9-2.5-3.2
			c0,0.2,0.1,0.5,0.1,0.7c0,0.1,0,0.1,0,0.2c0,0.2,0,0.4,0.1,0.6c0,0.1,0,0.2,0,0.4c0,0.1,0,0.3,0,0.4c0,0.3,0,0.5,0,0.7
			c0,0,0,0,0,0c0,0.5,0,1.1,0.1,1.6c0,0,0,0,0,0c0.2,2,0.7,3.9,1.5,5.5c0.7,1.6,1.6,2.9,2.4,3.8c1.1,1.2,1.7,1.9,2.1,1.8
			c0,0,0,0,0.1,0c0.1,0,0.2-0.1,0.3-0.2c0.1-0.1,0.2-0.3,0.3-0.6c0.1-0.2,0.2-0.4,0.2-0.7c0-0.1,0.1-0.3,0.1-0.5
			c0.2-0.5,0.4-1,0.7-1.6C1304.7,481.6,1304.5,481.6,1304.4,481.5z"/>
		<path class="st39" d="M1309.6,470.3c0,0.1,0,0.2,0,0.3C1309.6,470.5,1309.6,470.4,1309.6,470.3z"/>
		<path class="st47" d="M1309.6,470.3c0,0.1,0,0.2,0,0.3C1309.6,470.5,1309.6,470.4,1309.6,470.3z"/>
		<path class="st39" d="M1309.5,471.1c0,0.1,0,0.3-0.1,0.4C1309.5,471.3,1309.5,471.2,1309.5,471.1z"/>
		<path class="st47" d="M1309.5,471.1c0,0.1,0,0.3-0.1,0.4C1309.5,471.3,1309.5,471.2,1309.5,471.1z"/>
		<path class="st38" d="M1298.7,474.6c0,0.1,0.1,0.3,0.2,0.4c0.1,0.1,0.2,0.1,0.4,0c0.8-0.2,1.2-0.8,1.6-1.6
			c-0.6-0.2-1.1-0.4-1.5-0.7C1298.9,473.2,1298.6,473.9,1298.7,474.6z"/>
		<path class="st47" d="M1298.7,474.6c0,0.1,0.1,0.3,0.2,0.4c0.1,0.1,0.2,0.1,0.4,0c0.8-0.2,1.2-0.8,1.6-1.6
			c-0.6-0.2-1.1-0.4-1.5-0.7C1298.9,473.2,1298.6,473.9,1298.7,474.6z"/>
		<path class="st38" d="M1309.3,471.9c0-0.1,0.1-0.3,0.1-0.5c0-0.1,0-0.3,0.1-0.4c0-0.2,0-0.3,0.1-0.5c0-0.1,0-0.2,0-0.3
			c0,0,0-0.1,0-0.1c-0.1,0-0.3,0-0.4,0c-0.6,0.7-1.2,1.4-1.9,1.9c0,0,0,0,0,0c0.1,0.5,0.3,1,0.4,1.5c0.1,0.2,0.1,0.5,0.3,0.7
			c0,0,0,0,0,0c0.2,0,0.3,0,0.5,0c0.2-0.5,0.4-0.9,0.6-1.4c0.1-0.2,0.2-0.5,0.2-0.7C1309.3,472.1,1309.3,472,1309.3,471.9z"/>
		<path class="st47" d="M1309.3,471.9c0-0.1,0.1-0.3,0.1-0.5c0-0.1,0-0.3,0.1-0.4c0-0.2,0-0.3,0.1-0.5c0-0.1,0-0.2,0-0.3
			c0,0,0-0.1,0-0.1c-0.1,0-0.3,0-0.4,0c-0.6,0.7-1.2,1.4-1.9,1.9c0,0,0,0,0,0c0.1,0.5,0.3,1,0.4,1.5c0.1,0.2,0.1,0.5,0.3,0.7
			c0,0,0,0,0,0c0.2,0,0.3,0,0.5,0c0.2-0.5,0.4-0.9,0.6-1.4c0.1-0.2,0.2-0.5,0.2-0.7C1309.3,472.1,1309.3,472,1309.3,471.9z"/>
		<path class="st38" d="M1306.1,479.2c-0.7-0.6-1.5-1-2.5-1c-0.4,0-0.9,0.1-1.3,0.4c-0.3,0.3-0.5,0.8-0.3,1.2
			c0.1,0.3,0.4,0.5,0.7,0.6c0.6,0.4,1.2,0.7,1.7,1.1c0.1,0.1,0.3,0.2,0.4,0.2l0,0C1305.2,480.9,1305.6,480.1,1306.1,479.2z"/>
		<path class="st47" d="M1306.1,479.2c-0.7-0.6-1.5-1-2.5-1c-0.4,0-0.9,0.1-1.3,0.4c-0.3,0.3-0.5,0.8-0.3,1.2
			c0.1,0.3,0.4,0.5,0.7,0.6c0.6,0.4,1.2,0.7,1.7,1.1c0.1,0.1,0.3,0.2,0.4,0.2l0,0C1305.2,480.9,1305.6,480.1,1306.1,479.2z"/>
	</g>
	<ellipse class="st15" cx="1601.4" cy="561.8" rx="41.7" ry="12.1"/>
	<g>
		<path class="st48" d="M1586.3,422.1c-0.6,2-0.9,4.1-1.1,6.5c-0.2,2-0.8,3.8-1.8,5.5c0.4,2.8,1.2,5.6,2.2,8.2
			c0.7,1.7,1.6,3.3,2.8,4.7c3.9-2.7,6-6.1,6.7-13.4c0.5-3.7,0.3-11.4,2.5-11.4c1,0,3.2,4.9,2.6,11.8c-0.1,1.1-0.7,5.8,0.6,9.3
			c0.4,1,2.1,2.6,4,4.4c1.2-1.4,2.3-2.9,3.4-4.1c0.7-0.8,1.2-1.6,1.5-2.5c0.2-1.2,0.5-2.5,0.7-3.8c0.2-1.1,0.4-2.1,0.6-3
			c-1.2-2.9-1.4-7.1-1.2-11c-4.3-2.7-10.8-5.1-13.1-4.6c0,0-9,1.8-12.8,4.4c0,0,0.1,0,0.1,0C1584.7,422.8,1585.5,422.4,1586.3,422.1
			z M1605.1,434.2c2-0.4,3.7,1.5,4.7,1.5c0,0-1.3,3.4-3.3,3.3c-2.8-0.2-3.7-0.5-5-0.6C1601.6,438.5,1602.1,434.9,1605.1,434.2z
			 M1589.1,433.6c3,0.6,3.6,4.2,3.6,4.2c-1.3,0-2.2,0.4-5,0.6c-2,0.1-3.3-3.3-3.3-3.3C1585.4,435.2,1587.1,433.2,1589.1,433.6z"/>
		<path class="st48" d="M1583.4,434.1c1-1.7,1.6-3.5,1.8-5.5c0.2-2.4,0.4-4.5,1.1-6.5c-0.8,0.3-1.5,0.7-2.2,1.1c0,0,0.1,0,0.1,0
			s-0.7,0.6-1.2,2.4c0,1.5,0.1,3.1,0.1,4.5C1583.1,431.4,1583.2,432.8,1583.4,434.1z"/>
		<path class="st49" d="M1583.4,434.1c1-1.7,1.6-3.5,1.8-5.5c0.2-2.4,0.4-4.5,1.1-6.5c-0.8,0.3-1.5,0.7-2.2,1.1c0,0,0.1,0,0.1,0
			s-0.7,0.6-1.2,2.4c0,1.5,0.1,3.1,0.1,4.5C1583.1,431.4,1583.2,432.8,1583.4,434.1z"/>
		<path class="st49" d="M1609.9,423.2c0,0,0,0.1,0,0.1c0.1,0.1,0.2,0.1,0.3,0.2C1610,423.3,1609.9,423.2,1609.9,423.2z"/>
		<path class="st49" d="M1609.9,423.1C1609.9,423.1,1609.9,423.2,1609.9,423.1C1609.9,423.2,1609.9,423.2,1609.9,423.1
			C1609.9,423.1,1609.9,423.1,1609.9,423.1z"/>
		<path class="st48" d="M1611.1,434.4c1.1-7.1-0.3-10-0.9-10.9c-0.1-0.1-0.2-0.1-0.3-0.2C1609.7,427.3,1609.8,431.5,1611.1,434.4z"
			/>
		<path class="st49" d="M1611.1,434.4c1.1-7.1-0.3-10-0.9-10.9c-0.1-0.1-0.2-0.1-0.3-0.2C1609.7,427.3,1609.8,431.5,1611.1,434.4z"
			/>
		<path class="st48" d="M1608.2,443.6c-1.1,1.2-2.2,2.7-3.4,4.1c1,1,2.1,2,3,3.1c0,0.3,0,0.6-0.1,0.9c0.4-1.1,0.8-2.4,1.2-3.7
			c0.1-2.2,0.4-4.5,0.8-6.8C1609.4,442,1608.9,442.9,1608.2,443.6z"/>
		<path class="st49" d="M1608.2,443.6c-1.1,1.2-2.2,2.7-3.4,4.1c1,1,2.1,2,3,3.1c0,0.3,0,0.6-0.1,0.9c0.4-1.1,0.8-2.4,1.2-3.7
			c0.1-2.2,0.4-4.5,0.8-6.8C1609.4,442,1608.9,442.9,1608.2,443.6z"/>
		<path class="st48" d="M1583.4,434.1c-0.1,0.2-0.2,0.4-0.3,0.6c0.1,0.8,0.3,1.7,0.5,2.7c0.9,4,1.5,8,1.6,11.5
			c1.2-0.6,2.3-1.3,3.3-1.9c-1.1-1.4-2.1-3-2.8-4.7C1584.6,439.7,1583.8,436.9,1583.4,434.1z"/>
		<path class="st49" d="M1583.4,434.1c-0.1,0.2-0.2,0.4-0.3,0.6c0.1,0.8,0.3,1.7,0.5,2.7c0.9,4,1.5,8,1.6,11.5
			c1.2-0.6,2.3-1.3,3.3-1.9c-1.1-1.4-2.1-3-2.8-4.7C1584.6,439.7,1583.8,436.9,1583.4,434.1z"/>
		<path class="st48" d="M1583.1,430.1c0-1.4-0.1-3-0.1-4.5c-0.4,1.7-0.7,4.6,0,9.1c0.1-0.2,0.2-0.4,0.3-0.6
			C1583.2,432.8,1583.1,431.4,1583.1,430.1z"/>
		<path class="st49" d="M1583.1,430.1c0-1.4-0.1-3-0.1-4.5c-0.4,1.7-0.7,4.6,0,9.1c0.1-0.2,0.2-0.4,0.3-0.6
			C1583.2,432.8,1583.1,431.4,1583.1,430.1z"/>
		<path class="st49" d="M1583.1,430.1c0-1.4-0.1-3-0.1-4.5c-0.4,1.7-0.7,4.6,0,9.1c0.1-0.2,0.2-0.4,0.3-0.6
			C1583.2,432.8,1583.1,431.4,1583.1,430.1z"/>
		<path class="st38" d="M1604.9,447.7c-1.9-1.8-3.7-3.4-4-4.4c-1.3-3.5-0.7-8.2-0.6-9.3c0.6-6.9-1.6-11.8-2.6-11.8
			c-2.2,0-2,7.7-2.5,11.4c-0.7,7.3-2.8,10.7-6.7,13.4c-1,0.7-2,1.3-3.3,1.9c0,2.2-0.1,4.2-0.5,5.9c1.2,4.2,3.7,7.9,7.2,9
			c1.6,0.5,7.8,0.9,10.5-0.5c1.7-0.9,5-5.4,5.5-11.6c0-0.3,0-0.6,0.1-0.9C1606.9,449.8,1605.9,448.7,1604.9,447.7z M1602.9,459.6
			c-1.2,1.5-2.5,2.3-3.8,2.1c-1.5-0.1-2.6-1.2-3.1-1.9c-1.1,1.4-2.3,1.7-3.2,1.7c-0.1,0-0.2,0-0.3,0c-1.6-0.2-2.8-1.6-3.3-2.8
			c-0.7-1.7-1.7-2.4-1.7-2.4c0,0,1.6-0.3,2.4,1.6c0.4,1,1.2,1.7,2.5,1.9c1,0.1,2.7-1.4,3.3-1.9c-1.3-0.7-7.5-4.3-5.7-9
			c1.2-3.1,13.4-2.8,13.5,0.8c0.1,3.9-2.8,6.2-7.4,8.2c0.4,0.6,1.6,2,2.8,2.1c1.1,0.1,2.8-0.5,3.3-1.3c1.4-2.4,2.8-1.1,2.8-1.1
			C1604.4,457.4,1603.3,458.9,1602.9,459.6z"/>
		<path class="st27" d="M1602.3,458.8c-0.5,0.8-2.2,1.4-3.3,1.3c-1.2-0.1-2.4-1.5-2.8-2.1c0,0-0.1,0-0.1,0.1c0,0-0.1,0-0.2-0.1
			c-0.6,0.5-2.3,2-3.3,1.9c-1.3-0.2-2.1-0.9-2.5-1.9c-0.8-2-2.4-1.6-2.4-1.6c0,0,1,0.6,1.7,2.4c0.5,1.2,1.8,2.5,3.3,2.8
			c0.1,0,0.2,0,0.3,0c0.9,0.1,2.1-0.2,3.2-1.7c0.5,0.6,1.6,1.7,3.1,1.9c1.3,0.2,2.6-0.6,3.8-2.1c0.4-0.7,1.5-2.2,2.1-1.9
			C1605.1,457.7,1603.7,456.4,1602.3,458.8z"/>
		<path class="st27" d="M1596.2,458c4.6-2,7.5-4.3,7.4-8.2c-0.1-3.7-12.3-4-13.5-0.8c-1.8,4.7,4.5,8.3,5.7,9
			c0.1,0.1,0.2,0.1,0.2,0.1C1596.1,458.1,1596.1,458,1596.2,458z"/>
		<path class="st50" d="M1609.8,435.7c-1,0-2.7-1.9-4.7-1.5c-3,0.6-3.6,4.2-3.6,4.2c1.3,0,2.2,0.4,5,0.6
			C1608.5,439.1,1609.8,435.7,1609.8,435.7z M1602.3,438.3c0,0,0.4-3.2,3-3.7c0,0,0,0,0,0c0.1,0,0.3-0.1,0.5-0.1c0,0,0.1,0,0.1,0
			c0,0,0.1,0,0.1,0c0,0,0.1,0,0.1,0c1.3,0.2,2.3,1.3,3,1.3c0,0-1,2.8-2.7,2.8C1604.4,438.7,1603.1,438.3,1602.3,438.3z"/>
		<path class="st51" d="M1605.8,434.5c0,0,0.1,0,0.1,0C1605.9,434.5,1605.9,434.5,1605.8,434.5z"/>
		<path class="st51" d="M1609.1,435.9c-0.7,0-1.7-1.1-3-1.3c0.2,0,0.3,0.1,0.5,0.2c0.1,0,0.3,0.1,0.3,0.2c0.4,0.4,0.7,0.9,0.7,1.5
			c0,1.1-0.9,1.9-1.9,1.9c-1.1,0-1.9-0.9-1.9-1.9c0-0.9,0.6-1.7,1.5-1.9c0,0,0,0,0,0c-2.6,0.5-3,3.7-3,3.7c0.8,0,2.1,0.4,4.2,0.4
			C1608.1,438.7,1609.1,435.9,1609.1,435.9z"/>
		<path class="st52" d="M1603.8,436.5c0,1.1,0.9,1.9,1.9,1.9c1.1,0,1.9-0.9,1.9-1.9c0-0.6-0.3-1.1-0.7-1.5c0.1,0.1,0.2,0.3,0.2,0.4
			c0,0.3-0.2,0.6-0.4,0.7c0,0.1,0.1,0.2,0.1,0.4c0,0.6-0.5,1-1,1c-0.6,0-1-0.5-1-1c0-0.6,0.4-1,1-1c0,0,0,0,0,0
			c0-0.4,0.3-0.7,0.7-0.7c0.1,0,0.1,0,0.2,0c-0.2-0.1-0.3-0.2-0.5-0.2c0,0-0.1,0-0.1,0c0,0-0.1,0-0.1,0c0,0-0.1,0-0.1,0
			c-0.2,0-0.3,0-0.5,0.1C1604.4,434.8,1603.8,435.5,1603.8,436.5z"/>
		<path class="st53" d="M1605.7,435.4c-0.6,0-1,0.5-1,1c0,0.6,0.5,1,1,1c0.6,0,1-0.5,1-1c0-0.1,0-0.3-0.1-0.4
			c-0.1,0-0.2,0.1-0.3,0.1C1606,436.1,1605.7,435.8,1605.7,435.4z"/>
		<path class="st54" d="M1605.7,435.4C1605.7,435.4,1605.7,435.4,1605.7,435.4c0,0.4,0.3,0.7,0.7,0.7c0.1,0,0.2,0,0.3-0.1
			c0.3-0.1,0.4-0.4,0.4-0.7c0-0.2-0.1-0.3-0.2-0.4c-0.1-0.1-0.2-0.2-0.3-0.2c-0.1,0-0.1,0-0.2,0C1606,434.7,1605.7,435,1605.7,435.4
			z"/>
		<path class="st50" d="M1587.7,438.4c2.8-0.2,3.7-0.5,5-0.6c0,0-0.6-3.6-3.6-4.2c-2-0.4-3.7,1.5-4.7,1.5
			C1584.4,435.1,1585.7,438.6,1587.7,438.4z M1588.4,433.9c0,0,0.1,0,0.1,0c0.2,0,0.3,0,0.5,0.1c0,0,0,0,0,0c2.6,0.5,3,3.7,3,3.7
			c-0.8,0-2.1,0.4-4.2,0.4c-1.7,0-2.7-2.8-2.7-2.8c0.7,0,1.7-1.1,3-1.3c0,0,0.1,0,0.1,0C1588.3,434,1588.4,434,1588.4,433.9z"/>
		<path class="st51" d="M1589.8,434.4c0.4,0.4,0.7,0.9,0.7,1.5c0,1.1-0.9,1.9-1.9,1.9c-1.1,0-1.9-0.9-1.9-1.9c0-0.9,0.7-1.7,1.5-1.9
			c-1.3,0.2-2.3,1.3-3,1.3c0,0,1,2.8,2.7,2.8c2,0,3.4-0.4,4.2-0.4c0,0-0.4-3.2-3-3.7c0,0,0,0,0,0c0.2,0,0.3,0.1,0.4,0.2
			C1589.6,434.2,1589.7,434.3,1589.8,434.4z"/>
		<path class="st51" d="M1588.4,433.9c0,0-0.1,0-0.1,0C1588.3,434,1588.4,434,1588.4,433.9z"/>
		<path class="st52" d="M1588.2,434c-0.9,0.2-1.5,1-1.5,1.9c0,1.1,0.9,1.9,1.9,1.9c1.1,0,1.9-0.9,1.9-1.9c0-0.6-0.3-1.1-0.7-1.5
			c0.1,0.1,0.2,0.3,0.2,0.4c0,0.3-0.2,0.6-0.4,0.7c0,0.1,0.1,0.2,0.1,0.4c0,0.6-0.5,1-1,1s-1-0.5-1-1c0-0.6,0.4-1,1-1c0,0,0,0,0,0
			c0-0.4,0.3-0.7,0.7-0.7c0.1,0,0.1,0,0.2,0c-0.1-0.1-0.3-0.1-0.4-0.2c-0.1,0-0.3-0.1-0.5-0.1c0,0-0.1,0-0.1,0c0,0-0.1,0-0.1,0
			C1588.3,434,1588.2,434,1588.2,434z"/>
		<path class="st53" d="M1588.5,434.8c-0.6,0-1,0.5-1,1c0,0.6,0.5,1,1,1s1-0.5,1-1c0-0.1,0-0.3-0.1-0.4c-0.1,0-0.2,0.1-0.3,0.1
			C1588.8,435.5,1588.5,435.2,1588.5,434.8z"/>
		<path class="st54" d="M1589.4,434.2c-0.1,0-0.1,0-0.2,0c-0.4,0-0.7,0.3-0.7,0.7c0,0,0,0,0,0c0,0.4,0.3,0.7,0.7,0.7
			c0.1,0,0.2,0,0.3-0.1c0.3-0.1,0.4-0.4,0.4-0.7c0-0.2-0.1-0.3-0.2-0.4C1589.7,434.3,1589.6,434.2,1589.4,434.2z"/>
		<path class="st48" d="M1575.5,461.1c-0.2-0.1-0.4-0.2-0.6-0.3C1575.1,460.9,1575.3,461,1575.5,461.1z"/>
		<path class="st48" d="M1576.7,461.6c-0.2,0-0.4-0.1-0.6-0.2C1576.3,461.5,1576.5,461.5,1576.7,461.6z"/>
		<path class="st48" d="M1576.1,461.4c-0.2-0.1-0.4-0.2-0.6-0.3C1575.7,461.3,1575.9,461.4,1576.1,461.4z"/>
		<path class="st48" d="M1582.3,459.4c-0.2,0.2-0.5,0.5-0.8,0.7C1581.8,459.9,1582,459.7,1582.3,459.4z"/>
		<path class="st48" d="M1578,461.6c-0.2,0-0.4,0-0.6,0.1C1577.6,461.6,1577.8,461.6,1578,461.6z"/>
		<path class="st48" d="M1583,458.5c-0.2,0.3-0.4,0.6-0.7,0.8C1582.6,459.1,1582.8,458.8,1583,458.5z"/>
		<path class="st48" d="M1577.3,461.7c-0.2,0-0.4,0-0.6-0.1C1577,461.6,1577.2,461.6,1577.3,461.7z"/>
		<path class="st48" d="M1580.4,460.8c-0.3,0.2-0.6,0.3-1,0.4C1579.7,461.1,1580.1,461,1580.4,460.8z"/>
		<path class="st48" d="M1583.6,457.5c-0.2,0.3-0.4,0.6-0.6,0.9C1583.3,458.1,1583.5,457.8,1583.6,457.5z"/>
		<path class="st48" d="M1579.2,461.3c-0.4,0.1-0.8,0.2-1.2,0.3C1578.4,461.5,1578.8,461.4,1579.2,461.3z"/>
		<path class="st48" d="M1581.4,460.2c-0.3,0.2-0.6,0.4-0.9,0.6C1580.8,460.6,1581.1,460.4,1581.4,460.2z"/>
		<path class="st48" d="M1585.2,448.9c-0.1-3.5-0.7-7.5-1.6-11.5c-0.2-1-0.4-1.9-0.5-2.7c-0.7-4.5-0.5-7.4,0-9.1
			c0.5-1.8,1.2-2.4,1.2-2.4s0,0-0.1,0c0,0-0.1,0-0.1,0c-0.6-0.3-2.7-1.3-4.5-0.1c-2.1,1.4-8.5,7.6-12.1,9.6
			c-3.1,1.8,0.9,23.4,7.5,28.2c-2.2-1.6-4.1-5-5.5-8.9c1.6,0.6,3.4,0.8,5.4,0.5c5.3-0.7,7.8-5.4,9.8-10.1c0.9,6,1,11.5-0.8,15.2
			c0.4-0.8,0.7-1.7,0.9-2.6C1585,453.1,1585.2,451.1,1585.2,448.9z"/>
		<path class="st49" d="M1576.8,461.6c0,0-0.1,0-0.1,0C1576.7,461.6,1576.7,461.6,1576.8,461.6z"/>
		<path class="st49" d="M1575.5,461.2C1575.5,461.2,1575.5,461.1,1575.5,461.2C1575.5,461.1,1575.5,461.2,1575.5,461.2z"/>
		<path class="st49" d="M1581.5,460.1C1581.5,460.1,1581.4,460.2,1581.5,460.1C1581.4,460.2,1581.5,460.1,1581.5,460.1z"/>
		<path class="st49" d="M1576.1,461.4C1576.1,461.4,1576.1,461.4,1576.1,461.4C1576.1,461.4,1576.1,461.4,1576.1,461.4z"/>
		<path class="st49" d="M1580.5,460.7c-0.1,0-0.1,0.1-0.2,0.1C1580.4,460.8,1580.5,460.8,1580.5,460.7z"/>
		<path class="st49" d="M1577.4,461.7c0,0-0.1,0-0.1,0C1577.4,461.7,1577.4,461.7,1577.4,461.7z"/>
		<path class="st49" d="M1579.4,461.2c-0.1,0-0.1,0-0.2,0.1C1579.3,461.3,1579.3,461.3,1579.4,461.2z"/>
		<path class="st49" d="M1574.9,460.8C1574.9,460.8,1574.9,460.8,1574.9,460.8C1574.9,460.8,1574.9,460.8,1574.9,460.8z"/>
		<path class="st49" d="M1583.7,457.4C1583.7,457.4,1583.7,457.5,1583.7,457.4C1583.7,457.5,1583.7,457.4,1583.7,457.4z"/>
		<path class="st49" d="M1583.1,458.4c0,0-0.1,0.1-0.1,0.1C1583,458.5,1583,458.5,1583.1,458.4z"/>
		<path class="st49" d="M1582.3,459.4C1582.3,459.4,1582.3,459.4,1582.3,459.4C1582.3,459.4,1582.3,459.4,1582.3,459.4z"/>
		<path class="st48" d="M1584.5,442.3c-1.9,4.7-4.5,9.4-9.8,10.1c-2.1,0.3-3.8,0-5.4-0.5c1.4,3.9,3.3,7.4,5.5,8.9c0,0,0,0,0.1,0
			c0.2,0.1,0.4,0.2,0.6,0.3c0,0,0,0,0.1,0c0.2,0.1,0.4,0.2,0.6,0.3c0,0,0,0,0,0c0.2,0.1,0.4,0.1,0.6,0.2c0,0,0.1,0,0.1,0
			c0.2,0,0.4,0,0.6,0.1c0,0,0.1,0,0.1,0c0.2,0,0.4,0,0.6-0.1c0.4-0.1,0.8-0.2,1.2-0.3c0.1,0,0.1,0,0.2-0.1c0.3-0.1,0.7-0.3,1-0.4
			c0.1,0,0.1-0.1,0.2-0.1c0.3-0.2,0.6-0.4,0.9-0.6c0,0,0,0,0.1-0.1c0.3-0.2,0.5-0.4,0.8-0.7c0,0,0,0,0.1-0.1
			c0.2-0.3,0.5-0.5,0.7-0.8c0,0,0.1-0.1,0.1-0.1c0.2-0.3,0.4-0.6,0.6-0.9c0,0,0-0.1,0-0.1C1585.5,453.8,1585.5,448.3,1584.5,442.3z"
			/>
		<path class="st49" d="M1584.5,442.3c-1.9,4.7-4.5,9.4-9.8,10.1c-2.1,0.3-3.8,0-5.4-0.5c1.4,3.9,3.3,7.4,5.5,8.9c0,0,0,0,0.1,0
			c0.2,0.1,0.4,0.2,0.6,0.3c0,0,0,0,0.1,0c0.2,0.1,0.4,0.2,0.6,0.3c0,0,0,0,0,0c0.2,0.1,0.4,0.1,0.6,0.2c0,0,0.1,0,0.1,0
			c0.2,0,0.4,0,0.6,0.1c0,0,0.1,0,0.1,0c0.2,0,0.4,0,0.6-0.1c0.4-0.1,0.8-0.2,1.2-0.3c0.1,0,0.1,0,0.2-0.1c0.3-0.1,0.7-0.3,1-0.4
			c0.1,0,0.1-0.1,0.2-0.1c0.3-0.2,0.6-0.4,0.9-0.6c0,0,0,0,0.1-0.1c0.3-0.2,0.5-0.4,0.8-0.7c0,0,0,0,0.1-0.1
			c0.2-0.3,0.5-0.5,0.7-0.8c0,0,0.1-0.1,0.1-0.1c0.2-0.3,0.4-0.6,0.6-0.9c0,0,0-0.1,0-0.1C1585.5,453.8,1585.5,448.3,1584.5,442.3z"
			/>
		<path class="st48" d="M1613.5,460.7c-0.3-0.2-0.6-0.4-0.9-0.6C1612.9,460.4,1613.2,460.6,1613.5,460.7z"/>
		<path class="st48" d="M1609.6,442.3c1.9,4.7,4.5,9.4,9.8,10.1c2.1,0.3,3.8,0,5.4-0.5c-1.4,3.9-3.3,7.4-5.5,8.9
			c6.6-4.7,10.6-26.4,7.5-28.2c-3.6-2-10-8.2-12.1-9.6c-1.9-1.2-4.2-0.1-4.6,0.2c0,0-0.1,0-0.1,0c0,0,0,0,0,0s0,0,0,0
			c0,0,0.1,0.1,0.3,0.3c0.6,0.9,2,3.7,0.9,10.9c-0.1,0.9-0.3,1.9-0.6,3c-0.3,1.3-0.5,2.5-0.7,3.8c-0.4,2.4-0.7,4.7-0.8,6.8
			c-0.2,3.7,0.2,7,1.4,9.4C1608.6,453.8,1608.6,448.3,1609.6,442.3z"/>
		<path class="st48" d="M1612.6,460.1c-0.3-0.2-0.5-0.4-0.8-0.7C1612,459.7,1612.3,459.9,1612.6,460.1z"/>
		<path class="st48" d="M1614.7,461.2c-0.3-0.1-0.7-0.3-1-0.4C1614,461,1614.3,461.1,1614.7,461.2z"/>
		<path class="st48" d="M1616,461.6c-0.4-0.1-0.8-0.2-1.2-0.3C1615.2,461.4,1615.6,461.5,1616,461.6z"/>
		<path class="st48" d="M1616.6,461.7c-0.2,0-0.4,0-0.6-0.1C1616.2,461.6,1616.4,461.6,1616.6,461.7z"/>
		<path class="st48" d="M1611,458.4c-0.2-0.3-0.4-0.6-0.6-0.9C1610.6,457.8,1610.8,458.1,1611,458.4z"/>
		<path class="st48" d="M1619.2,460.8c-0.2,0.1-0.4,0.2-0.6,0.3C1618.8,461,1619,460.9,1619.2,460.8z"/>
		<path class="st48" d="M1618.5,461.2c-0.2,0.1-0.4,0.2-0.6,0.3C1618.2,461.4,1618.3,461.3,1618.5,461.2z"/>
		<path class="st48" d="M1611.7,459.4c-0.2-0.3-0.5-0.5-0.7-0.8C1611.3,458.8,1611.5,459.1,1611.7,459.4z"/>
		<path class="st48" d="M1617.3,461.6c-0.2,0-0.4,0-0.6,0.1C1616.9,461.6,1617.1,461.6,1617.3,461.6z"/>
		<path class="st48" d="M1618,461.4c-0.2,0.1-0.4,0.1-0.6,0.2C1617.6,461.5,1617.8,461.5,1618,461.4z"/>
		<path class="st49" d="M1613.7,460.8c-0.1,0-0.1-0.1-0.2-0.1C1613.6,460.8,1613.6,460.8,1613.7,460.8z"/>
		<path class="st49" d="M1614.9,461.3c-0.1,0-0.1,0-0.2-0.1C1614.7,461.3,1614.8,461.3,1614.9,461.3z"/>
		<path class="st49" d="M1617.3,461.6c0,0,0.1,0,0.1,0C1617.4,461.6,1617.3,461.6,1617.3,461.6z"/>
		<path class="st49" d="M1612.6,460.2C1612.6,460.2,1612.6,460.1,1612.6,460.2C1612.6,460.1,1612.6,460.2,1612.6,460.2z"/>
		<path class="st49" d="M1616.7,461.7c0,0-0.1,0-0.1,0C1616.7,461.7,1616.7,461.7,1616.7,461.7z"/>
		<path class="st49" d="M1611.1,458.5c0,0-0.1-0.1-0.1-0.1C1611,458.5,1611,458.5,1611.1,458.5z"/>
		<path class="st49" d="M1618,461.4C1618,461.4,1618,461.4,1618,461.4C1618,461.4,1618,461.4,1618,461.4z"/>
		<path class="st49" d="M1619.2,460.7C1619.2,460.8,1619.2,460.8,1619.2,460.7C1619.2,460.8,1619.2,460.8,1619.2,460.7z"/>
		<path class="st49" d="M1618.6,461.1C1618.6,461.1,1618.6,461.2,1618.6,461.1C1618.6,461.2,1618.6,461.1,1618.6,461.1z"/>
		<path class="st49" d="M1611.8,459.4C1611.8,459.4,1611.8,459.4,1611.8,459.4C1611.8,459.4,1611.8,459.4,1611.8,459.4z"/>
		<path class="st49" d="M1610.4,457.5C1610.4,457.5,1610.4,457.4,1610.4,457.5C1610.4,457.4,1610.4,457.5,1610.4,457.5z"/>
		<path class="st48" d="M1618,461.4C1618,461.4,1618,461.4,1618,461.4c0.2-0.1,0.4-0.2,0.6-0.3c0,0,0,0,0.1,0
			c0.2-0.1,0.4-0.2,0.6-0.3c0,0,0,0,0.1,0c2.2-1.6,4.1-5,5.5-8.9c-1.6,0.6-3.4,0.8-5.4,0.5c-5.3-0.7-7.8-5.4-9.8-10.1
			c-0.9,6-1,11.5,0.8,15.2c0,0,0,0.1,0,0.1c0.2,0.3,0.4,0.6,0.6,0.9c0,0,0.1,0.1,0.1,0.1c0.2,0.3,0.4,0.6,0.7,0.8c0,0,0,0,0.1,0.1
			c0.2,0.2,0.5,0.5,0.8,0.7c0,0,0,0,0.1,0.1c0.3,0.2,0.6,0.4,0.9,0.6c0.1,0,0.1,0.1,0.2,0.1c0.3,0.2,0.6,0.3,1,0.4
			c0.1,0,0.1,0,0.2,0.1c0.4,0.1,0.8,0.2,1.2,0.3c0.2,0,0.4,0,0.6,0.1c0,0,0.1,0,0.1,0c0.2,0,0.4,0,0.6-0.1c0,0,0.1,0,0.1,0
			C1617.6,461.5,1617.8,461.5,1618,461.4z"/>
		<path class="st49" d="M1618,461.4C1618,461.4,1618,461.4,1618,461.4c0.2-0.1,0.4-0.2,0.6-0.3c0,0,0,0,0.1,0
			c0.2-0.1,0.4-0.2,0.6-0.3c0,0,0,0,0.1,0c2.2-1.6,4.1-5,5.5-8.9c-1.6,0.6-3.4,0.8-5.4,0.5c-5.3-0.7-7.8-5.4-9.8-10.1
			c-0.9,6-1,11.5,0.8,15.2c0,0,0,0.1,0,0.1c0.2,0.3,0.4,0.6,0.6,0.9c0,0,0.1,0.1,0.1,0.1c0.2,0.3,0.4,0.6,0.7,0.8c0,0,0,0,0.1,0.1
			c0.2,0.2,0.5,0.5,0.8,0.7c0,0,0,0,0.1,0.1c0.3,0.2,0.6,0.4,0.9,0.6c0.1,0,0.1,0.1,0.2,0.1c0.3,0.2,0.6,0.3,1,0.4
			c0.1,0,0.1,0,0.2,0.1c0.4,0.1,0.8,0.2,1.2,0.3c0.2,0,0.4,0,0.6,0.1c0,0,0.1,0,0.1,0c0.2,0,0.4,0,0.6-0.1c0,0,0.1,0,0.1,0
			C1617.6,461.5,1617.8,461.5,1618,461.4z"/>
	</g>
	<g>
		<path d="M365.7,327.1l-6.1-15.8h-0.1c0.1,1.3,0.2,2.7,0.2,4.5v11.4h-1.9v-17.8h3.1l5.7,14.7h0.1l5.7-14.7h3.1v17.8h-2.1v-11.5
			c0-1.3,0.1-2.8,0.2-4.3h-0.1l-6.1,15.8H365.7z"/>
		<path d="M390.3,327.1h-9.9v-17.8h9.9v1.8h-7.9v5.7h7.4v1.8h-7.4v6.6h7.9V327.1z"/>
		<path d="M404.2,327.1h-9.9v-17.8h9.9v1.8h-7.9v5.7h7.4v1.8h-7.4v6.6h7.9V327.1z"/>
		<path d="M413.7,327.1h-2.1v-16h-5.7v-1.8h13.4v1.8h-5.7V327.1z"/>
		<path d="M442.4,327.1h-2.4l-9.8-15h-0.1c0.1,1.8,0.2,3.4,0.2,4.8v10.1h-1.9v-17.8h2.3l9.7,14.9h0.1c0-0.2-0.1-0.9-0.1-2.1
			c-0.1-1.2-0.1-2-0.1-2.6v-10.2h1.9V327.1z"/>
		<path d="M457.3,327.1h-9.9v-17.8h9.9v1.8h-7.9v5.7h7.4v1.8h-7.4v6.6h7.9V327.1z"/>
		<path d="M476.8,327.1h-2.1l-3.6-12c-0.2-0.5-0.4-1.2-0.6-2c-0.2-0.8-0.3-1.3-0.3-1.5c-0.2,1.1-0.5,2.3-0.9,3.5l-3.5,11.9h-2.1
			l-4.7-17.8h2.2l2.8,11c0.4,1.5,0.7,2.9,0.9,4.2c0.2-1.5,0.5-2.9,1-4.4l3.2-10.9h2.2l3.4,10.9c0.4,1.3,0.7,2.7,1,4.3
			c0.2-1.2,0.4-2.6,0.9-4.2l2.8-11h2.2L476.8,327.1z"/>
		<path d="M502.1,327.1l-2.2-5.7h-7.2l-2.2,5.7h-2.1l7.1-17.9h1.7l7,17.9H502.1z M499.2,319.5l-2.1-5.5c-0.3-0.7-0.5-1.6-0.8-2.6
			c-0.2,0.8-0.4,1.6-0.8,2.6l-2.1,5.5H499.2z"/>
		<path d="M520.6,327.1h-2.4l-9.8-15h-0.1c0.1,1.8,0.2,3.4,0.2,4.8v10.1h-1.9v-17.8h2.3l9.7,14.9h0.1c0-0.2-0.1-0.9-0.1-2.1
			c-0.1-1.2-0.1-2-0.1-2.6v-10.2h1.9V327.1z"/>
		<path d="M539.8,318c0,2.9-0.8,5.2-2.4,6.8c-1.6,1.6-3.9,2.3-6.9,2.3h-4.9v-17.8h5.5c2.8,0,4.9,0.8,6.5,2.3
			C539,313.1,539.8,315.2,539.8,318z M537.6,318c0-2.3-0.6-4.1-1.8-5.3c-1.2-1.2-2.9-1.8-5.2-1.8h-3v14.3h2.5c2.5,0,4.3-0.6,5.6-1.8
			C537,322.2,537.6,320.4,537.6,318z"/>
		<path d="M550.3,327.1v-17.8h2.1v17.8H550.3z"/>
		<path d="M571.2,327.1h-2.4l-9.8-15H559c0.1,1.8,0.2,3.4,0.2,4.8v10.1h-1.9v-17.8h2.3l9.7,14.9h0.1c0-0.2-0.1-0.9-0.1-2.1
			c-0.1-1.2-0.1-2-0.1-2.6v-10.2h1.9V327.1z"/>
		<path d="M581.6,327.1h-2.1v-16h-5.7v-1.8h13.4v1.8h-5.7V327.1z"/>
		<path d="M592,319.6v7.4h-2.1v-17.8h4.9c2.2,0,3.8,0.4,4.9,1.3c1,0.8,1.6,2.1,1.6,3.8c0,2.4-1.2,4-3.6,4.8l4.8,8H600l-4.3-7.4H592z
			 M592,317.9h2.8c1.5,0,2.5-0.3,3.2-0.9c0.7-0.6,1-1.5,1-2.6c0-1.2-0.3-2-1-2.6c-0.7-0.5-1.8-0.8-3.4-0.8H592V317.9z"/>
		<path d="M615.3,327.1h-9.9v-17.8h9.9v1.8h-7.9v5.7h7.4v1.8h-7.4v6.6h7.9V327.1z"/>
		<path d="M629.3,322.3c0,1.6-0.6,2.8-1.7,3.7s-2.7,1.3-4.6,1.3c-2.1,0-3.7-0.3-4.9-0.8v-2c0.7,0.3,1.5,0.6,2.4,0.7
			c0.9,0.2,1.7,0.3,2.6,0.3c1.4,0,2.4-0.3,3.1-0.8c0.7-0.5,1-1.3,1-2.2c0-0.6-0.1-1.1-0.4-1.5c-0.2-0.4-0.7-0.8-1.2-1.1
			c-0.6-0.3-1.5-0.7-2.7-1.1c-1.7-0.6-2.8-1.3-3.6-2.1c-0.7-0.8-1.1-1.9-1.1-3.2c0-1.4,0.5-2.5,1.6-3.3c1-0.8,2.4-1.2,4.1-1.2
			c1.8,0,3.4,0.3,4.9,1l-0.6,1.8c-1.5-0.6-2.9-0.9-4.3-0.9c-1.1,0-2,0.2-2.6,0.7c-0.6,0.5-0.9,1.1-0.9,2c0,0.6,0.1,1.1,0.3,1.5
			c0.2,0.4,0.6,0.8,1.2,1.1c0.5,0.3,1.4,0.7,2.5,1.1c1.9,0.7,3.2,1.4,3.9,2.1C629,320.1,629.3,321.1,629.3,322.3z"/>
		<path d="M638.5,327.1h-2.1v-16h-5.7v-1.8h13.4v1.8h-5.7V327.1z"/>
		<path d="M646.8,327.1v-17.8h2.1v17.8H646.8z"/>
		<path d="M667.7,327.1h-2.4l-9.8-15h-0.1c0.1,1.8,0.2,3.4,0.2,4.8v10.1h-1.9v-17.8h2.3l9.7,14.9h0.1c0-0.2-0.1-0.9-0.1-2.1
			c-0.1-1.2-0.1-2-0.1-2.6v-10.2h1.9V327.1z"/>
		<path d="M680.5,317.7h6.1v8.7c-0.9,0.3-1.9,0.5-2.9,0.7s-2.1,0.2-3.4,0.2c-2.7,0-4.8-0.8-6.3-2.4c-1.5-1.6-2.3-3.9-2.3-6.8
			c0-1.9,0.4-3.5,1.1-4.9c0.7-1.4,1.8-2.5,3.2-3.2c1.4-0.7,3-1.1,4.9-1.1c1.9,0,3.7,0.4,5.3,1l-0.8,1.8c-1.6-0.7-3.2-1-4.7-1
			c-2.2,0-3.9,0.6-5.1,1.9s-1.8,3.1-1.8,5.4c0,2.4,0.6,4.2,1.8,5.5c1.2,1.2,2.9,1.9,5.2,1.9c1.2,0,2.4-0.1,3.6-0.4v-5.5h-4V317.7z"
			/>
		<path d="M711.6,318c0,2.9-0.8,5.2-2.4,6.8c-1.6,1.6-3.9,2.3-6.9,2.3h-4.9v-17.8h5.5c2.8,0,4.9,0.8,6.5,2.3
			C710.8,313.1,711.6,315.2,711.6,318z M709.4,318c0-2.3-0.6-4.1-1.8-5.3c-1.2-1.2-2.9-1.8-5.2-1.8h-3v14.3h2.5
			c2.5,0,4.3-0.6,5.6-1.8C708.8,322.2,709.4,320.4,709.4,318z"/>
		<path d="M731,318.1c0,2.9-0.7,5.1-2.2,6.7s-3.5,2.5-6,2.5c-2.6,0-4.7-0.8-6.1-2.4c-1.4-1.6-2.1-3.9-2.1-6.8c0-2.9,0.7-5.2,2.1-6.8
			c1.4-1.6,3.5-2.4,6.1-2.4c2.6,0,4.6,0.8,6,2.4C730.3,313,731,315.2,731,318.1z M716.8,318.1c0,2.4,0.5,4.3,1.5,5.5
			c1,1.2,2.5,1.9,4.5,1.9c2,0,3.5-0.6,4.5-1.9s1.5-3.1,1.5-5.5c0-2.4-0.5-4.2-1.5-5.5c-1-1.2-2.5-1.9-4.5-1.9c-2,0-3.5,0.6-4.5,1.9
			C717.3,313.9,716.8,315.7,716.8,318.1z"/>
		<path d="M742.9,317.7h6.1v8.7c-0.9,0.3-1.9,0.5-2.9,0.7s-2.1,0.2-3.4,0.2c-2.7,0-4.8-0.8-6.3-2.4c-1.5-1.6-2.3-3.9-2.3-6.8
			c0-1.9,0.4-3.5,1.1-4.9c0.7-1.4,1.8-2.5,3.2-3.2c1.4-0.7,3-1.1,4.9-1.1c1.9,0,3.7,0.4,5.3,1l-0.8,1.8c-1.6-0.7-3.2-1-4.7-1
			c-2.2,0-3.9,0.6-5.1,1.9s-1.8,3.1-1.8,5.4c0,2.4,0.6,4.2,1.8,5.5c1.2,1.2,2.9,1.9,5.2,1.9c1.2,0,2.4-0.1,3.6-0.4v-5.5h-4V317.7z"
			/>
		<path d="M763.3,322.3c0,1.6-0.6,2.8-1.7,3.7s-2.7,1.3-4.6,1.3c-2.1,0-3.7-0.3-4.9-0.8v-2c0.7,0.3,1.5,0.6,2.4,0.7
			c0.9,0.2,1.7,0.3,2.6,0.3c1.4,0,2.4-0.3,3.1-0.8c0.7-0.5,1-1.3,1-2.2c0-0.6-0.1-1.1-0.4-1.5c-0.2-0.4-0.7-0.8-1.2-1.1
			c-0.6-0.3-1.5-0.7-2.7-1.1c-1.7-0.6-2.8-1.3-3.6-2.1c-0.7-0.8-1.1-1.9-1.1-3.2c0-1.4,0.5-2.5,1.6-3.3c1-0.8,2.4-1.2,4.1-1.2
			c1.8,0,3.4,0.3,4.9,1l-0.6,1.8c-1.5-0.6-2.9-0.9-4.3-0.9c-1.1,0-2,0.2-2.6,0.7c-0.6,0.5-0.9,1.1-0.9,2c0,0.6,0.1,1.1,0.3,1.5
			c0.2,0.4,0.6,0.8,1.2,1.1c0.5,0.3,1.4,0.7,2.5,1.1c1.9,0.7,3.2,1.4,3.9,2.1C762.9,320.1,763.3,321.1,763.3,322.3z"/>
		<path d="M787.4,327.1H785l-9.8-15h-0.1c0.1,1.8,0.2,3.4,0.2,4.8v10.1h-1.9v-17.8h2.3l9.7,14.9h0.1c0-0.2-0.1-0.9-0.1-2.1
			c-0.1-1.2-0.1-2-0.1-2.6v-10.2h1.9V327.1z"/>
		<path d="M802.2,327.1h-9.9v-17.8h9.9v1.8h-7.9v5.7h7.4v1.8h-7.4v6.6h7.9V327.1z"/>
		<path d="M817.4,327.1l-2.2-5.7H808l-2.2,5.7h-2.1l7.1-17.9h1.7l7,17.9H817.4z M814.5,319.5l-2.1-5.5c-0.3-0.7-0.5-1.6-0.8-2.6
			c-0.2,0.8-0.4,1.6-0.8,2.6l-2.1,5.5H814.5z"/>
		<path d="M824.1,319.6v7.4H822v-17.8h4.9c2.2,0,3.8,0.4,4.9,1.3c1,0.8,1.6,2.1,1.6,3.8c0,2.4-1.2,4-3.6,4.8l4.8,8h-2.5l-4.3-7.4
			H824.1z M824.1,317.9h2.8c1.5,0,2.5-0.3,3.2-0.9c0.7-0.6,1-1.5,1-2.6c0-1.2-0.3-2-1-2.6c-0.7-0.5-1.8-0.8-3.4-0.8h-2.7V317.9z"/>
		<path d="M837.5,309.2h5c2.4,0,4.1,0.4,5.1,1.1c1.1,0.7,1.6,1.8,1.6,3.4c0,1.1-0.3,1.9-0.9,2.6c-0.6,0.7-1.5,1.1-2.6,1.3v0.1
			c2.7,0.5,4.1,1.9,4.1,4.3c0,1.6-0.5,2.8-1.6,3.7c-1.1,0.9-2.6,1.3-4.5,1.3h-6.2V309.2z M839.5,316.9h3.4c1.5,0,2.5-0.2,3.2-0.7
			c0.6-0.5,1-1.2,1-2.3c0-1-0.4-1.7-1.1-2.2c-0.7-0.4-1.9-0.7-3.4-0.7h-3.1V316.9z M839.5,318.6v6.7h3.7c1.4,0,2.5-0.3,3.3-0.8
			c0.7-0.6,1.1-1.4,1.1-2.6c0-1.1-0.4-1.9-1.1-2.4c-0.7-0.5-1.9-0.8-3.4-0.8H839.5z"/>
		<path d="M858.2,318.1l4.8-8.9h2.2l-6,10.9v6.9h-2.1v-6.8l-5.9-11h2.3L858.2,318.1z"/>
		<path d="M867.1,325.8c0-0.5,0.1-1,0.4-1.2c0.2-0.3,0.6-0.4,1.1-0.4c0.5,0,0.8,0.1,1.1,0.4c0.3,0.3,0.4,0.7,0.4,1.2
			c0,0.5-0.1,0.9-0.4,1.2s-0.6,0.4-1.1,0.4c-0.4,0-0.8-0.1-1-0.4C867.2,326.8,867.1,326.3,867.1,325.8z"/>
	</g>
	<g>
		<polyline class="st55" points="1333.6,274.1 1357.1,348.1 1358.9,290.8 		"/>
		<polyline class="st55" points="1347.9,294.1 1374.5,348.6 1375.7,310.9 		"/>
		<polyline class="st55" points="1443.9,277.6 1415.8,349.9 1417.6,292.6 		"/>
		<polyline class="st55" points="1428.4,296.7 1398.4,349.4 1399.6,311.6 		"/>
		<path class="st20" d="M1413.3,312.1c22.6-21.8,55.9-56.9,56.8-84.9c1.4-44-33.1-80.7-77.1-82.1c-44-1.4-80.7,33.1-82.1,77.1
			c-0.9,28.1,30.1,65.2,51.3,88.4L1413.3,312.1z"/>
		<path class="st6" d="M1401.2,311.7c12.2-22.1,30.2-57.7,31.1-85.8c1.4-44-16.2-80.2-39.3-80.9c-23.1-0.7-42.9,34.3-44.3,78.3
			c-0.9,28.1,14.8,64.7,25.6,87.5L1401.2,311.7z"/>
		<path class="st56" d="M1362.2,310.5l51.1,1.6l-0.3,8.4c-0.1,3.1-2.7,5.5-5.7,5.4l-40-1.3c-3.1-0.1-5.5-2.7-5.4-5.7L1362.2,310.5z"
			/>
		<path class="st16" d="M1416.4,369.3l-60.8-1.9c-1.7-0.1-3-1.5-2.9-3.1l0.4-13.3c0.1-1.7,1.5-3,3.1-2.9l60.8,1.9
			c1.7,0.1,3,1.5,2.9,3.1l-0.4,13.3C1419.4,368,1418,369.3,1416.4,369.3z"/>
		<path class="st57" d="M1356.5,367.4l59,1.9l-5.2,26.2c-1,5.1-5.5,8.6-10.7,8.5l-29.6-0.9c-5.1-0.2-9.4-4-10.1-9.1L1356.5,367.4z"
			/>
		<g>
			<path class="st58" d="M1369.1,379.7c-0.1,3.2-2.8,5.7-5.9,5.6c-3.2-0.1-5.7-2.8-5.6-5.9c0.1-3.2,6.1-9.4,6.1-9.4
				S1369.2,376.5,1369.1,379.7z"/>
			<path class="st58" d="M1361,367.5c0,1.5,2.6,4.6,2.6,4.6s2.8-3,2.9-4.5L1361,367.5z"/>
		</g>
		<g>
			<path class="st58" d="M1391.3,380.4c-0.1,3.2-2.8,5.7-5.9,5.6c-3.2-0.1-5.7-2.8-5.6-5.9c0.1-3.2,6.1-9.4,6.1-9.4
				S1391.4,377.2,1391.3,380.4z"/>
			<path class="st58" d="M1383.2,368.2c0,1.5,2.6,4.6,2.6,4.6s2.8-3,2.9-4.5L1383.2,368.2z"/>
		</g>
		<g>
			<path class="st58" d="M1413.6,381.1c-0.1,3.2-2.8,5.7-5.9,5.6c-3.2-0.1-5.7-2.8-5.6-5.9c0.1-3.2,6.1-9.4,6.1-9.4
				S1413.7,377.9,1413.6,381.1z"/>
			<path class="st58" d="M1405.5,368.9c0,1.5,2.6,4.6,2.6,4.6s2.8-3,2.9-4.5L1405.5,368.9z"/>
		</g>
	</g>
	<ellipse class="st15" cx="1379.8" cy="441.1" rx="41.9" ry="12.1"/>
</g>
<g id="DESIGNED_BY_FREEPIK">
	<g>
	</g>
	<g>
	</g>
	<g>
	</g>
	<g>
	</g>
	<g>
	</g>
	<g>
	</g>
</g>
</svg>
